{
.appVersion = "3108";
.formatVersion = 3;
DisplayStrings = (
"Á/A.comp ĂÂÄÀĀĄÅ̃ÃAAEÆĆČÇ̇ĊÐĎĐÉĚÊËĖÈĒĘƏĞĢĠĦĲÍÎÏİÌĪĮ/Jacute ĶĹĽĻŁŃŇŅÑÓÔÖÒŐŌØÕŒÞŔŘŖŚŠŞȘẞŤŢȚÚÛÜÙŰŪŲŮẂŴẄẀÝŶŸỲŹŽŻ/Gbreve.001/Iacute.001/Iacute.002 áăâäàāąåãæćčçċð/caroncomb.alt ďđéěêëėèēęəğģġħıíîï/idotaccent ìĳīįȷ/jacute ķĺľļłńňņñóôöòőōøõœþŕřŗśšşșßťţțúûüùűūųůẃŵẅẁýŷÿỳźžż/idotless.ss01/iacute.ss01/icircumflex.ss01/idieresis.ss01/idotaccent.ss01/igrave.ss01/ij.ss01/imacron.ss01/iogonek.ss01",
"̈̇̀́̋/caroncomb.alt ̧̨̦̂̌̆̊̃̄̒/ogonekcomb.cup",
"ÁĂÂÄÀĀĄÅÃÆĆČÇĊÐĎĐÉĚÊËĖÈĒĘƏĞĢĠĦĲÍÎÏİÌĪĮ/Jacute ĶĹĽĻŁ/N.comp ŃŇŅÑÓÔÖÒŐŌØÕŒÞŔŘŖŚŠŞȘẞŤŢȚÚÛÜÙŰŪŲŮẂŴẄẀÝŶŸỲŹŽŻ/Gbreve.001/Iacute.001/Iacute.002 
áă/a.comp âäàāąåãæć/c.comp čçċðďđé/e.comp ěêëėèēęə/g.comp ğģġħııíîï/idotaccent ìĳīįȷ/jacute ķĺľļł/n.comp ńňņñóôöòőōøõœþ/r.comp ŕřŗ/s.comp śšşșßťţțúûüùű/u.comp ūųů/w.comp ẃŵẅẁýŷÿ/y.comp ỳźžż/idotless.ss01/iacute.ss01/icircumflex.ss01/idieresis.ss01/idotaccent.ss01/igrave.ss01/ij.ss01/imacron.ss01/iogonek.ss01",
"WY/U.comp",
VY,
VY,
VY,
VY
);
axes = (
{
name = Width;
tag = wdth;
}
);
customParameters = (
{
name = "Axis Mappings";
value = {
wdth = {
0 = 0;
80 = 70;
100 = 100;
};
};
}
);
date = "2021-12-30 09:44:38 +0000";
familyName = Nounas;
featurePrefixes = (
{
automatic = 1;
code = "languagesystem DFLT dflt;

languagesystem latn dflt;
languagesystem latn AZE;
languagesystem latn CRT;
languagesystem latn KAZ;
languagesystem latn TAT;
languagesystem latn TRK;
languagesystem latn ROM;
languagesystem latn MOL;
languagesystem latn NLD;
";
name = Languagesystems;
}
);
features = (
{
automatic = 1;
code = "feature locl;
feature zero;
feature ss01;
feature ss02;
feature ss03;
feature ss04;
feature ss05;
";
tag = aalt;
},
{
automatic = 1;
code = "lookup ccmp_latn_1 {
	sub fi by f i;
	sub fl by f l;
} ccmp_latn_1;

script latn;
lookup ccmp_latn_1;
";
tag = ccmp;
},
{
automatic = 1;
code = "lookup locl_latn_0 {
	script latn;
	language AZE;
	sub i by idotaccent;
	language CRT;
	sub i by idotaccent;
	language KAZ;
	sub i by idotaccent;

glyphs = (
{
color = 6;
glyphname = A;
lastChange = "2022-01-13 02:25:47 +0000";
layers = (
{
anchors = (
{
name = bottom;
pos = (360,0);
},
{
name = ogonek;
pos = (680,0);
},
{
name = top;
pos = (360,860);
}
);
hints = (
{
name = _corner.arrow;
origin = (0,6);
type = Corner;
},
{
name = _corner.arrow;
origin = (0,0);
type = Corner;
},
{
name = _corner.arrow;
origin = (2,3);
type = Corner;
},
{
name = _corner.arrow;
origin = (2,0);
type = Corner;
},
{
name = _corner.arrow;
origin = (3,1);
type = Corner;
},
{
name = _corner.arrow;
origin = (3,0);
type = Corner;
},
{
name = _corner.arrow;
origin = (3,7);
type = Corner;
},
{
name = _corner.arrow;
origin = (3,6);
type = Corner;
},
{
name = _corner.arrow;
origin = (3,5);
type = Corner;
}
);
layerId = m002;
shapes = (
{
closed = 1;
nodes = (
(280,0,l),
(280,420,l),
(420,620,l),
(500,720,l),
(260,760,l),
(20,480,l),
(20,0,l)
);
},
{
closed = 1;
nodes = (
(540,160,l),
(540,360,l),
(180,360,l),
(180,160,l)
);
},
{
closed = 1;
nodes = (
(680,0,l),
(680,560,l),
(420,770,l),
(420,0,l)
);
},
{
closed = 1;
nodes = (
(680,620,l),
(680,860,l),
(320,860,l),
(220,800,l),
(260,780,l),
(260,860,l),
(20,860,l),
(20,620,l)
);
}
);
width = 700;
},
{
anchors = (
{
name = bottom;
pos = (140,0);
},
{
name = ogonek;
pos = (260,0);
},
{
name = top;
pos = (140,860);
}
);
hints = (
{
name = _corner.arrow;
origin = (0,6);
type = Corner;
},
{
name = _corner.arrow;
origin = (0,0);
type = Corner;
},
{
name = _corner.arrow;
origin = (2,3);
type = Corner;
},
{
name = _corner.arrow;
origin = (2,0);
type = Corner;
},
{
name = _corner.arrow;
origin = (3,1);
type = Corner;
},
{
name = _corner.arrow;
origin = (3,0);
type = Corner;
},
{
name = _corner.arrow;
origin = (3,7);
type = Corner;
},
{
name = _corner.arrow;
origin = (3,6);
type = Corner;
},
{
name = _corner.arrow;
origin = (3,5);
type = Corner;
}
);
layerId = "A70D3E7C-EDA6-440E-AC35-67945F302293";
shapes = (
{
closed = 1;
nodes = (
(120,0,l),
(120,620,l),
(160,680,l),
(160,720,l),
(120,760,l),
(20,620,l),
(20,0,l)
);
},
{
closed = 1;
nodes = (
(240,160,l),
(240,320,l),
(60,320,l),
(60,160,l)
);
},
{
closed = 1;
nodes = (
(260,0,l),
(260,620,l),
(160,720,l),
(160,0,l)
);
},
{
closed = 1;
nodes = (
(260,680,l),
(260,860,l),
(180,860,l),
(100,820,l),
(140,800,l),
(140,860,l),
(20,860,l),
(20,680,l)
);
}
);
width = 280;
}
);
unicode = 65;
},
{
color = 9;
glyphname = B;
lastChange = "2022-01-14 09:07:25 +0000";
layers = (
{
anchors = (
{
name = bottom;
pos = (380,0);
},
{
name = center;
pos = (380,440);
},
{
name = top;
pos = (380,860);
}
);
hints = (
{
name = _corner.arrow;
origin = (0,9);
type = Corner;
},
{
name = _corner.arrow;
origin = (0,14);
type = Corner;
},
{
name = _corner.arrow;
origin = (0,15);
type = Corner;
},
{
name = _corner.arrow;
origin = (0,10);
type = Corner;
},
{
name = _corner.arrow;
origin = (0,8);
type = Corner;
}
);
layerId = m002;
shapes = (
{
closed = 1;
nodes = (
(760,420,l),
(700,520,l),
(760,580,l),
(760,720,l),
(620,860,l),
(320,860,l),
(220,780,l),
(260,780,l),
(260,860,l),
(20,860,l),
(20,620,l),
(140,620,l),
(120,640,l),
(20,560,l),
(20,0,l),
(240,0,l),
(240,60,l),
(300,0,l),
(620,0,l),
(760,140,l)
);
},
{
closed = 1;
nodes = (
(260,462,l),
(340,320,l),
(520,320,l),
(520,240,l),
(260,240,l)
);
},
{
closed = 1;
nodes = (
(520,600,l),
(520,540,l),
(320,540,l),
(280,600,l)
);
}
);
width = 780;
},
{
anchors = (
{
name = bottom;
pos = (160,0);
},
{
name = center;
pos = (160,440);
},
{
name = top;
pos = (160,860);
}
);
hints = (
{
name = _corner.arrow;
origin = (0,9);
type = Corner;
},
{
name = _corner.arrow;
origin = (0,14);
type = Corner;
},
{
name = _corner.arrow;
origin = (0,15);
type = Corner;
},
{
name = _corner.arrow;
origin = (0,10);
type = Corner;
},
{
name = _corner.arrow;
origin = (0,8);
type = Corner;
}
);
layerId = "A70D3E7C-EDA6-440E-AC35-67945F302293";
shapes = (
{
closed = 1;
nodes = (
(280,420,l),
(220,540,l),
(280,600,l),
(280,800,l),
(220,860,l),
(180,860,l),
(80,800,l),
(120,780,l),
(120,860,l),
(20,860,l),
(20,680,l),
(80,680,l),
(80,700,l),
(20,620,l),
(20,0,l),
(120,0,l),
(120,80,l),
(160,0,l),
(220,0,l),
(280,60,l)
);
},
{
closed = 1;
nodes = (
(120,460,l),
(160,300,l),
(180,300,l),
(180,180,l),
(120,180,l)
);
},
{
closed = 1;
nodes = (
(180,680,l),
(180,560,l),
(160,560,l),
(120,680,l)
);
}
);
width = 300;
}
);
unicode = 66;
},
{
color = 9;
glyphname = C;
lastChange = "2022-01-13 02:25:26 +0000";
layers = (
{
anchors = (
{
name = bottom;
pos = (360,0);
},
{
name = top;
pos = (360,860);
}
);
hints = (
{
name = _corner.arrow;
origin = (0,4);
type = Corner;
},
{
name = _corner.arrow;
origin = (0,12);
type = Corner;
},
{
name = _corner.arrow;
origin = (0,5);
type = Corner;
},
{
name = _corner.arrow;
origin = (0,13);
type = Corner;
},
{
name = _corner.arrow;
origin = (0,14);
type = Corner;
},
{
name = _corner.arrow;
origin = (0,3);
type = Corner;
}
);
layerId = m002;
shapes = (
{
closed = 1;
nodes = (
(310,0,l),
(430,60,l),
(390,85,l),
(390,0,l),
(650,0,l),
(650,380,l),
(490,380,l),
(310,260,l),
(290,260,l),
(290,600,l),
(310,600,l),
(490,480,l),
(650,480,l),
(650,860,l),
(430,860,l),
(430,780,l),
(470,800,l),
(350,860,l),
(160,860,l),
(20,720,l),
(20,140,l),
(160,0,l)
);
}
);
width = 670;
},
{
anchors = (
{
name = bottom;
pos = (160,0);
},
{
name = top;
pos = (160,860);
}
);
hints = (
{
name = _corner.arrow;
origin = (0,4);
type = Corner;
},
{
name = _corner.arrow;
origin = (0,12);
type = Corner;
},
{
name = _corner.arrow;
origin = (0,5);
type = Corner;
},
{
name = _corner.arrow;
origin = (0,13);
type = Corner;
},
{
name = _corner.arrow;
origin = (0,14);
type = Corner;
},
{
name = _corner.arrow;
origin = (0,3);
type = Corner;
}
);
layerId = "A70D3E7C-EDA6-440E-AC35-67945F302293";
shapes = (
{
closed = 1;
nodes = (
(140,0,l),
(200,160,l),
(180,160,l),
(180,0,l),
(280,0,l),
(280,380,l),
(180,380,l),
(140,200,l),
(120,200,l),
(120,660,l),
(140,660,l),
(180,480,l),
(280,480,l),
(280,860,l),
(180,860,l),
(180,700,l),
(200,700,l),
(140,860,l),
(80,860,l),
(20,800,l),
(20,60,l),
(80,0,l)
);
}
);
width = 300;
}
);
unicode = 67;
},
{
color = 9;
glyphname = D;
lastChange = "2022-01-14 09:07:18 +0000";
layers = (
{
anchors = (
{
name = bottom;
pos = (400,0);
},
{
name = center;
pos = (400,440);
},
{
name = top;
pos = (400,860);
}
);
hints = (
{
name = _corner.arrow;
origin = (1,12);
type = Corner;
},
{
name = _corner.arrow;
origin = (1,17);
type = Corner;
},
{
name = _corner.arrow;
origin = (1,11);
type = Corner;
},
{
name = _corner.arrow;
origin = (1,0);
type = Corner;
},
{
name = _corner.arrow;
origin = (1,13);
type = Corner;
}
);
layerId = m002;
shapes = (
{
closed = 1;
nodes = (
(480,240,l),
(300,280,l),
(300,600,l),
(480,600,l)
);
},
{
closed = 1;
nodes = (
(280,0,l),
(290,87,l),
(242,54,l),
(440,0,l),
(580,0,l),
(760,200,l),
(760,660,l),
(600,860,l),
(380,860,l),
(280,800,l),
(320,780,l),
(320,860,l),
(20,860,l),
(20,620,l),
(140,620,l),
(140,680,l),
(20,560,l),
(20,0,l)
);
}
);
width = 780;
},
{
anchors = (
{
name = bottom;
pos = (160,0);
},
{
name = center;
pos = (160,440);
},
{
name = top;
pos = (160,860);
}
);
hints = (
{
name = _corner.arrow;
origin = (1,12);
type = Corner;
},
{
name = _corner.arrow;
origin = (1,17);
type = Corner;
},
{
name = _corner.arrow;
origin = (1,11);
type = Corner;
},
{
name = _corner.arrow;
origin = (1,0);
type = Corner;
},
{
name = _corner.arrow;
origin = (1,13);
type = Corner;
}
);
layerId = "A70D3E7C-EDA6-440E-AC35-67945F302293";
shapes = (
{
closed = 1;
nodes = (
(180,160,l),
(120,200,l),
(120,680,l),
(180,680,l)
);
},
{
closed = 1;
nodes = (
(140,0,l),
(140,80,l),
(80,80,l),
(200,0,l),
(220,0,l),
(280,60,l),
(280,800,l),
(220,860,l),
(200,860,l),
(80,780,l),
(140,780,l),
(140,860,l),
(20,860,l),
(20,680,l),
(100,680,l),
(100,740,l),
(20,620,l),
(20,0,l)
);
}
);
width = 300;
}
);
unicode = 68;
},
{
color = 6;
glyphname = E;
lastChange = "2022-01-14 09:07:13 +0000";
layers = (
{
anchors = (
{
name = bottom;
pos = (360,0);
},
{
name = ogonek;
pos = (640,20);
},
{
name = top;
pos = (360,860);
},
{
name = topleft;
pos = (20,860);
}
);
hints = (
{
name = _corner.arrow;
origin = (1,0);
type = Corner;
},
{
name = _corner.arrow;
origin = (1,1);
type = Corner;
},
{
name = _corner.arrow;
origin = (2,0);
type = Corner;
},
{
name = _corner.arrow;
origin = (2,1);
type = Corner;
},
{
name = _corner.arrow;
origin = (3,0);
type = Corner;
},
{
name = _corner.arrow;
origin = (3,1);
type = Corner;
},
{
name = _corner.arrow;
origin = (3,6);
type = Corner;
},
{
name = _corner.arrow;
origin = (3,7);
type = Corner;
},
{
name = _corner.arrow;
origin = (3,5);
type = Corner;
}
);
layerId = m002;
shapes = (
{
closed = 1;
nodes = (
(260,760,l),
(20,540,l),
(20,240,l),
(210,0,l),
(260,0,l)
);
},
{
closed = 1;
nodes = (
(680,0,l),
(680,260,l),
(180,260,l),
(260,0,l)
);
},
{
closed = 1;
nodes = (
(660,320,l),
(660,560,l),
(320,560,l),
(220,680,l),
(110,680,l),
(360,320,l)
);
},
{
closed = 1;
nodes = (
(680,600,l),
(680,860,l),
(320,860,l),
(220,800,l),
(260,780,l),
(260,860,l),
(20,860,l),
(20,600,l)
);
}
);
width = 700;
},
{
anchors = (
{
name = bottom;
pos = (160,0);
},
{
name = ogonek;
pos = (280,20);
},
{
name = top;
pos = (160,860);
},
{
name = topleft;
pos = (20,860);
}
);
hints = (
{
name = _corner.arrow;
origin = (1,0);
type = Corner;
},
{
name = _corner.arrow;
origin = (1,1);
type = Corner;
},
{
name = _corner.arrow;
origin = (2,0);
type = Corner;
},
{
name = _corner.arrow;
origin = (2,1);
type = Corner;
},
{
name = _corner.arrow;
origin = (3,0);
type = Corner;
},
{
name = _corner.arrow;
origin = (3,1);
type = Corner;
},
{
name = _corner.arrow;
origin = (3,6);
type = Corner;
},
{
name = _corner.arrow;
origin = (3,7);
type = Corner;
},
{
name = _corner.arrow;
origin = (3,5);
type = Corner;
}
);
layerId = "A70D3E7C-EDA6-440E-AC35-67945F302293";
shapes = (
{
closed = 1;
nodes = (
(120,740,l),
(20,640,l),
(20,60,l),
(80,0,l),
(120,0,l)
);
},
{
closed = 1;
nodes = (
(280,0,l),
(280,180,l),
(120,180,l),
(120,0,l)
);
},
{
closed = 1;
nodes = (
(260,300,l),
(260,580,l),
(160,580,l),
(120,700,l),
(100,580,l),
(160,300,l)
);
},
{
closed = 1;
nodes = (
(280,680,l),
(280,860,l),
(180,860,l),
(100,780,l),
(140,780,l),
(140,860,l),
(20,860,l),
(20,680,l)
);
}
);
width = 300;
}
);
unicode = 69;
},
{
color = 6;
glyphname = F;
lastChange = "2022-01-14 09:06:29 +0000";
layers = (
{
anchors = (
{
name = bottom;
pos = (360,0);
},
{
name = top;
pos = (360,860);
}
);
background = {
shapes = (
{
closed = 0;
nodes = (
(136,576,l),
(463,140,l)
);
}
);
};
hints = (
{
name = _corner.arrow;
origin = (2,6);
type = Corner;
},
{
name = _corner.arrow;
origin = (2,1);
type = Corner;
},
{
name = _corner.arrow;
origin = (2,0);
type = Corner;
},
{
name = _corner.arrow;
origin = (1,1);
type = Corner;
},
{
name = _corner.arrow;
origin = (1,0);
type = Corner;
},
{
name = _corner.arrow;
origin = (0,0);
type = Corner;
},
{
name = _corner.arrow;
origin = (0,5);
type = Corner;
},
{
name = _corner.arrow;
origin = (0,5);
type = Corner;
},
{
name = _corner.arrow;
origin = (2,7);
type = Corner;
},
{
name = _corner.arrow;
origin = (2,5);
type = Corner;
}
);
layerId = m002;
shapes = (
{
closed = 1;
nodes = (
(330,0,l),
(330,230,l),
(260,477,l),
(260,760,l),
(20,540,l),
(20,0,l)
);
},
{
closed = 1;
nodes = (
(620,280,l),
(620,560,l),
(310,560,l),
(220,660,l),
(160,610,l),
(408,280,l)
);
},
{
closed = 1;
nodes = (
(640,600,l),
(640,860,l),
(320,860,l),
(220,800,l),
(260,780,l),
(260,860,l),
(20,860,l),
(20,600,l)
);
}
);
width = 660;
},
{
anchors = (
{
name = bottom;
pos = (140,0);
},
{
name = top;
pos = (140,860);
}
);
hints = (
{
name = _corner.arrow;
origin = (2,6);
type = Corner;
},
{
name = _corner.arrow;
origin = (2,1);
type = Corner;
},
{
name = _corner.arrow;
origin = (2,0);
type = Corner;
},
{
name = _corner.arrow;
origin = (1,1);
type = Corner;
},
{
name = _corner.arrow;
origin = (1,0);
type = Corner;
},
{
name = _corner.arrow;
origin = (0,0);
type = Corner;
},
{
name = _corner.arrow;
origin = (0,5);
type = Corner;
},
{
name = _corner.arrow;
origin = (0,5);
type = Corner;
},
{
name = _corner.arrow;
origin = (2,7);
type = Corner;
},
{
name = _corner.arrow;
origin = (2,5);
type = Corner;
}
);
layerId = "A70D3E7C-EDA6-440E-AC35-67945F302293";
shapes = (
{
closed = 1;
nodes = (
(160,0,l),
(160,180,l),
(120,580,l),
(120,760,l),
(20,620,l),
(20,0,l)
);
},
{
closed = 1;
nodes = (
(248,300,l),
(248,590,l),
(170,590,l),
(120,680,l),
(90,620,l),
(188,300,l)
);
},
{
closed = 1;
nodes = (
(248,680,l),
(248,860,l),
(180,860,l),
(80,800,l),
(120,780,l),
(120,860,l),
(20,860,l),
(20,680,l)
);
}
);
width = 268;
}
);
unicode = 70;
},
{
color = 0;
glyphname = G;
lastChange = "2022-01-13 02:21:52 +0000";
layers = (
{
anchors = (
{
name = bottom;
pos = (440,0);
},
{
name = top;
pos = (440,860);
}
);
hints = (
{
name = _corner.arrow;
origin = (0,17);
type = Corner;
},
{
name = _corner.arrow;
origin = (0,3);
type = Corner;
},
{
name = _corner.arrow;
origin = (0,4);
type = Corner;
},
{
name = _corner.arrow;
origin = (0,8);
type = Corner;
},
{
name = _corner.arrow;
origin = (0,9);
type = Corner;
},
{
name = _corner.arrow;
origin = (0,15);
type = Corner;
},
{
name = _corner.arrow;
origin = (0,16);
type = Corner;
},
{
name = _corner.arrow;
origin = (1,0);
type = Corner;
},
{
name = _corner.arrow;
origin = (1,5);
type = Corner;
}
);
layerId = m002;
shapes = (
{
closed = 1;
nodes = (
(460,0,l),
(560,140,l),
(540,140,l),
(540,0,l),
(780,0,l),
(780,270,l),
(720,410,l),
(700,370,l),
(780,370,l),
(780,560,l),
(540,560,l),
(540,370,l),
(460,260,l),
(260,260,l),
(260,600,l),
(780,600,l),
(780,860,l),
(560,860,l),
(560,780,l),
(600,800,l),
(480,860,l),
(140,860,l),
(20,740,l),
(20,120,l),
(140,0,l)
);
},
{
closed = 1;
nodes = (
(320,320,l),
(428,320,l),
(468,370,l),
(580,370,l),
(580,560,l),
(320,560,l)
);
}
);
width = 800;
},
{
anchors = (
{
name = bottom;
pos = (200,0);
},
{
name = top;
pos = (200,860);
}
);
hints = (
{
name = _corner.arrow;
origin = (0,17);
type = Corner;
},
{
name = _corner.arrow;
origin = (0,3);
type = Corner;
},
{
name = _corner.arrow;
origin = (0,4);
type = Corner;
},
{
name = _corner.arrow;
origin = (0,8);
type = Corner;
},
{
name = _corner.arrow;
origin = (0,9);
type = Corner;
},
{
name = _corner.arrow;
origin = (0,15);
type = Corner;
},
{
name = _corner.arrow;
origin = (0,16);
type = Corner;
},
{
name = _corner.arrow;
origin = (1,0);
type = Corner;
},
{
name = _corner.arrow;
origin = (1,5);
type = Corner;
}
);
layerId = "A70D3E7C-EDA6-440E-AC35-67945F302293";
shapes = (
{
closed = 1;
nodes = (
(210,0,l),
(260,200,l),
(240,200,l),
(240,0,l),
(340,0,l),
(340,400,l),
(300,520,l),
(300,460,l),
(340,460,l),
(340,640,l),
(240,640,l),
(240,370,l),
(190,180,l),
(120,180,l),
(120,700,l),
(340,700,l),
(340,860,l),
(220,860,l),
(220,770,l),
(260,770,l),
(190,860,l),
(100,860,l),
(20,780,l),
(20,80,l),
(100,0,l)
);
},
{
closed = 1;
nodes = (
(160,320,l),
(191,320,l),
(230,460,l),
(240,460,l),
(240,640,l),
(160,640,l)
);
}
);
width = 360;
}
);
unicode = 71;
},
{
color = 9;
glyphname = H;
lastChange = "2022-01-14 09:07:34 +0000";
layers = (
{
anchors = (
{
name = bottom;
pos = (440,0);
},
{
name = center;
pos = (440,440);
},
{
name = top;
pos = (440,860);
},
{
name = topleft;
pos = (20,860);
}
);
hints = (
{
name = _corner.arrow;
origin = (0,9);
type = Corner;
},
{
name = _corner.arrow;
origin = (0,8);
type = Corner;
},
{
name = _corner.arrow;
origin = (1,6);
type = Corner;
},
{
name = _corner.arrow;
origin = (1,5);
type = Corner;
},
{
name = _corner.arrow;
origin = (1,0);
type = Corner;
},
{
name = _corner.arrow;
origin = (1,11);
type = Corner;
},
{
name = _corner.arrow;
origin = (0,0);
type = Corner;
},
{
name = _corner.arrow;
origin = (0,14);
type = Corner;
},
{
name = _corner.arrow;
origin = (0,1);
type = Corner;
},
{
name = _corner.arrow;
origin = (1,1);
type = Corner;
},
{
name = _corner.arrow;
origin = (0,10);
type = Corner;
},
{
name = _corner.arrow;
origin = (1,7);
type = Corner;
}
);
layerId = m002;
shapes = (
{
closed = 1;
nodes = (
(400,0,l),
(400,220,l),
(295,220,l),
(317,181,l),
(400,320,l),
(480,320,l),
(460,480,l),
(400,480,l),
(400,860,l),
(20,860,l),
(20,580,l),
(100,580,l),
(80,620,l),
(20,480,l),
(20,0,l)
);
},
{
closed = 1;
nodes = (
(840,0,l),
(840,220,l),
(755,220,l),
(783,178,l),
(840,320,l),
(840,860,l),
(460,860,l),
(460,580,l),
(540,580,l),
(520,620,l),
(460,480,l),
(460,0,l)
);
}
);
width = 860;
},
{
anchors = (
{
name = bottom;
pos = (160,0);
},
{
name = center;
pos = (160,440);
},
{
name = top;
pos = (160,860);
},
{
name = topleft;
pos = (20,860);
}
);
hints = (
{
name = _corner.arrow;
origin = (0,9);
type = Corner;
},
{
name = _corner.arrow;
origin = (0,8);
type = Corner;
},
{
name = _corner.arrow;
origin = (1,6);
type = Corner;
},
{
name = _corner.arrow;
origin = (1,5);
type = Corner;
},
{
name = _corner.arrow;
origin = (1,0);
type = Corner;
},
{
name = _corner.arrow;
origin = (1,11);
type = Corner;
},
{
name = _corner.arrow;
origin = (0,0);
type = Corner;
},
{
name = _corner.arrow;
origin = (0,14);
type = Corner;
},
{
name = _corner.arrow;
origin = (0,1);
type = Corner;
},
{
name = _corner.arrow;
origin = (1,1);
type = Corner;
},
{
name = _corner.arrow;
origin = (0,10);
type = Corner;
},
{
name = _corner.arrow;
origin = (1,7);
type = Corner;
}
);
layerId = "A70D3E7C-EDA6-440E-AC35-67945F302293";
shapes = (
{
closed = 1;
nodes = (
(140,0,l),
(140,160,l),
(80,160,l),
(80,80,l),
(140,340,l),
(260,340,l),
(260,460,l),
(140,460,l),
(140,860,l),
(20,860,l),
(20,700,l),
(60,700,l),
(60,760,l),
(20,600,l),
(20,0,l)
);
},
{
closed = 1;
nodes = (
(300,0,l),
(300,160,l),
(260,160,l),
(260,80,l),
(300,260,l),
(300,860,l),
(180,860,l),
(180,700,l),
(220,700,l),
(220,760,l),
(180,460,l),
(180,0,l)
);
}
);
width = 320;
}
);
unicode = 72;
},
{
color = 6;
glyphname = I;
lastChange = "2022-01-14 09:07:39 +0000";
layers = (
{
anchors = (
{
name = bottom;
pos = (220,0);
},
{
name = ogonek;
pos = (420,0);
},
{
name = top;
pos = (220,860);
},
{
name = topleft;
pos = (20,860);
}
);
hints = (
{
name = _corner.arrow;
origin = (0,6);
type = Corner;
},
{
name = _corner.arrow;
origin = (0,5);
type = Corner;
},
{
name = _corner.arrow;
origin = (0,11);
type = Corner;
},
{
name = _corner.arrow;
origin = (0,0);
type = Corner;
},
{
name = _corner.arrow;
origin = (0,7);
type = Corner;
},
{
name = _corner.arrow;
origin = (0,1);
type = Corner;
}
);
layerId = m002;
shapes = (
{
closed = 1;
nodes = (
(420,0,l),
(420,220,l),
(315,220,l),
(337,181,l),
(420,320,l),
(420,860,l),
(20,860,l),
(20,580,l),
(100,580,l),
(80,620,l),
(20,480,l),
(20,0,l)
);
}
);
width = 440;
},
{
anchors = (
{
name = bottom;
pos = (100,0);
},
{
name = ogonek;
pos = (160,20);
},
{
name = top;
pos = (100,860);
},
{
name = topleft;
pos = (20,860);
}
);
hints = (
{
name = _corner.arrow;
origin = (0,6);
type = Corner;
},
{
name = _corner.arrow;
origin = (0,5);
type = Corner;
},
{
name = _corner.arrow;
origin = (0,11);
type = Corner;
},
{
name = _corner.arrow;
origin = (0,0);
type = Corner;
},
{
name = _corner.arrow;
origin = (0,7);
type = Corner;
},
{
name = _corner.arrow;
origin = (0,1);
type = Corner;
}
);
layerId = "A70D3E7C-EDA6-440E-AC35-67945F302293";
shapes = (
{
closed = 1;
nodes = (
(140,0,l),
(140,160,l),
(80,160,l),
(80,120,l),
(140,220,l),
(140,860,l),
(20,860,l),
(20,700,l),
(80,700,l),
(80,740,l),
(20,640,l),
(20,0,l)
);
}
);
width = 160;
}
);
unicode = 73;
},
{
color = 9;
glyphname = J;
lastChange = "2022-01-14 09:07:44 +0000";
layers = (
{
anchors = (
{
name = bottom;
pos = (340,0);
},
{
name = top;
pos = (340,860);
}
);
hints = (
{
name = _corner.arrow;
origin = (0,12);
type = Corner;
},
{
name = _corner.arrow;
origin = (0,11);
type = Corner;
},
{
name = _corner.arrow;
origin = (1,9);
type = Corner;
},
{
name = _corner.arrow;
origin = (1,8);
type = Corner;
},
{
name = _corner.arrow;
origin = (1,3);
type = Corner;
},
{
name = _corner.arrow;
origin = (1,2);
type = Corner;
},
{
name = _corner.arrow;
origin = (0,13);
type = Corner;
},
{
name = _corner.arrow;
origin = (0,0);
type = Corner;
},
{
name = _corner.arrow;
origin = (1,7);
type = Corner;
}
);
layerId = m002;
shapes = (
{
closed = 1;
nodes = (
(260,0,l),
(260,105,l),
(228,92,l),
(320,0,l),
(460,0,l),
(660,200,l),
(660,540,l),
(600,680,l),
(380,680,l),
(380,240,l),
(300,240,l),
(300,440,l),
(20,440,l),
(20,0,l)
);
},
{
closed = 1;
nodes = (
(280,520,l),
(340,620,l),
(660,620,l),
(660,860,l),
(340,860,l),
(260,780,l),
(300,780,l),
(300,860,l),
(20,860,l),
(20,520,l)
);
}
);
width = 680;
},
{
anchors = (
{
name = bottom;
pos = (160,0);
},
{
name = top;
pos = (160,860);
}
);
hints = (
{
name = _corner.arrow;
origin = (0,12);
type = Corner;
},
{
name = _corner.arrow;
origin = (0,11);
type = Corner;
},
{
name = _corner.arrow;
origin = (1,9);
type = Corner;
},
{
name = _corner.arrow;
origin = (1,8);
type = Corner;
},
{
name = _corner.arrow;
origin = (1,3);
type = Corner;
},
{
name = _corner.arrow;
origin = (1,2);
type = Corner;
},
{
name = _corner.arrow;
origin = (0,13);
type = Corner;
},
{
name = _corner.arrow;
origin = (0,0);
type = Corner;
},
{
name = _corner.arrow;
origin = (1,7);
type = Corner;
}
);
layerId = "A70D3E7C-EDA6-440E-AC35-67945F302293";
shapes = (
{
closed = 1;
nodes = (
(120,0,l),
(115,130,l),
(50,130,l),
(170,0,l),
(200,0,l),
(260,60,l),
(260,640,l),
(200,760,l),
(155,760,l),
(155,170,l),
(115,170,l),
(115,440,l),
(20,440,l),
(20,0,l)
);
},
{
closed = 1;
nodes = (
(115,560,l),
(135,700,l),
(260,700,l),
(260,860,l),
(180,860,l),
(100,780,l),
(140,780,l),
(140,860,l),
(20,860,l),
(20,560,l)
);
}
);
width = 280;
}
);
unicode = 74;
},
{
color = 0;
glyphname = K;
lastChange = "2022-01-14 09:07:50 +0000";
layers = (
{
anchors = (
{
name = bottom;
pos = (380,0);
},
{
name = top;
pos = (380,860);
}
);
hints = (
{
name = _corner.arrow;
origin = (0,23);
type = Corner;
},
{
name = _corner.arrow;
origin = (0,0);
type = Corner;
},
{
name = _corner.arrow;
origin = (0,6);
type = Corner;
},
{
name = _corner.arrow;
origin = (0,9);
type = Corner;
},
{
name = _corner.arrow;
origin = (0,10);
type = Corner;
},
{
name = _corner.arrow;
origin = (0,17);
type = Corner;
},
{
name = _corner.arrow;
origin = (0,18);
type = Corner;
},
{
name = _corner.arrow;
origin = (0,19);
type = Corner;
},
{
name = _corner.arrow;
origin = (0,5);
type = Corner;
},
{
name = _corner.arrow;
origin = (0,11);
type = Corner;
}
);
layerId = m002;
shapes = (
{
closed = 1;
nodes = (
(340,0,l),
(340,140,l),
(300,260,l),
(340,260,l),
(400,140,l),
(400,0,l),
(720,0,l),
(720,280,l),
(560,440,l),
(720,440,l),
(720,860,l),
(420,860,l),
(420,562,l),
(380,460,l),
(120,460,l),
(280,360,l),
(360,540,l),
(360,860,l),
(20,860,l),
(20,580,l),
(140,580,l),
(120,620,l),
(20,480,l),
(20,0,l)
);
}
);
width = 740;
},
{
anchors = (
{
name = bottom;
pos = (120,0);
},
{
name = top;
pos = (120,860);
}
);
hints = (
{
name = _corner.arrow;
origin = (0,0);
type = Corner;
},
{
name = _corner.arrow;
origin = (0,5);
type = Corner;
},
{
name = _corner.arrow;
origin = (0,6);
type = Corner;
},
{
name = _corner.arrow;
origin = (0,9);
type = Corner;
},
{
name = _corner.arrow;
origin = (0,10);
type = Corner;
},
{
name = _corner.arrow;
origin = (0,17);
type = Corner;
},
{
name = _corner.arrow;
origin = (0,18);
type = Corner;
},
{
name = _corner.arrow;
origin = (0,19);
type = Corner;
},
{
name = _corner.arrow;
origin = (0,23);
type = Corner;
},
{
name = _corner.arrow;
origin = (0,11);
type = Corner;
}
);
layerId = "A70D3E7C-EDA6-440E-AC35-67945F302293";
shapes = (
{
closed = 1;
nodes = (
(120,0,l),
(120,210,l),
(100,300,l),
(130,300,l),
(160,200,l),
(160,0,l),
(240,0,l),
(240,340,l),
(200,420,l),
(240,420,l),
(240,860,l),
(160,860,l),
(160,754,l),
(130,460,l),
(80,460,l),
(79,360,l),
(120,755,l),
(120,860,l),
(20,860,l),
(20,660,l),
(100,660,l),
(100,760,l),
(20,620,l),
(20,0,l)
);
}
);
width = 260;
}
);
unicode = 75;
},
{
color = 0;
glyphname = L;
lastChange = "2022-01-14 09:07:03 +0000";
layers = (
{
anchors = (
{
name = bottom;
pos = (340,0);
},
{
name = center;
pos = (340,440);
},
{
name = top;
pos = (340,860);
},
{
name = topright;
pos = (440,860);
}
);
hints = (
{
name = _corner.arrow;
origin = (0,13);
type = Corner;
},
{
name = _corner.arrow;
origin = (0,12);
type = Corner;
},
{
name = _corner.arrow;
origin = (0,14);
type = Corner;
},
{
name = _corner.arrow;
origin = (0,18);
type = Corner;
},
{
name = _corner.arrow;
origin = (0,2);
type = Corner;
},
{
name = _corner.arrow;
origin = (0,3);
type = Corner;
},
{
name = _corner.arrow;
origin = (0,4);
type = Corner;
}
);
layerId = m002;
shapes = (
{
closed = 1;
nodes = (
(340,0,l),
(420,60,l),
(420,0,l),
(640,0,l),
(640,460,l),
(440,460,l),
(280,300,l),
(280,460,l),
(361,541,ls),
(373,553,o),
(380,566,o),
(380,589,cs),
(380,860,l),
(20,860,l),
(20,580,l),
(100,580,l),
(80,620,l),
(20,480,l),
(20,0,l)
);
}
);
width = 660;
},
{
anchors = (
{
name = bottom;
pos = (160,0);
},
{
name = center;
pos = (160,440);
},
{
name = top;
pos = (160,860);
},
{
name = topright;
pos = (183,860);
}
);
hints = (
{
name = _corner.arrow;
origin = (0,13);
type = Corner;
},
{
name = _corner.arrow;
origin = (0,12);
type = Corner;
},
{
name = _corner.arrow;
origin = (0,14);
type = Corner;
},
{
name = _corner.arrow;
origin = (0,18);
type = Corner;
},
{
name = _corner.arrow;
origin = (0,2);
type = Corner;
},
{
name = _corner.arrow;
origin = (0,3);
type = Corner;
},
{
name = _corner.arrow;
origin = (0,4);
type = Corner;
}
);
layerId = "A70D3E7C-EDA6-440E-AC35-67945F302293";
shapes = (
{
closed = 1;
nodes = (
(140,0,l),
(180,180,l),
(180,0,l),
(270,0,l),
(270,480,l),
(188,480,l),
(123,220,l),
(100,220,l),
(134,392,ls),
(138,412,o),
(140,431,o),
(140,451,cs),
(140,860,l),
(20,860,l),
(20,580,l),
(100,580,l),
(80,620,l),
(20,480,l),
(20,0,l)
);
}
);
width = 290;
}
);
unicode = 76;
},
{
color = 9;
glyphname = M;
lastChange = "2022-01-14 09:03:04 +0000";
layers = (
{
anchors = (
{
name = bottom;
pos = (520,0);
},
{
name = top;
pos = (520,860);
}
);
hints = (
{
name = _corner.arrow;
origin = (0,12);
type = Corner;
},
{
name = _corner.arrow;
origin = (0,11);
type = Corner;
},
{
name = _corner.arrow;
origin = (0,5);
type = Corner;
},
{
name = _corner.arrow;
origin = (0,4);
type = Corner;
},
{
name = _corner.arrow;
origin = (0,25);
type = Corner;
},
{
name = _corner.arrow;
origin = (0,24);
type = Corner;
},
{
name = _corner.arrow;
origin = (0,17);
type = Corner;
},
{
name = _corner.arrow;
origin = (0,16);
type = Corner;
}
);
layerId = m002;
shapes = (
{
closed = 1;
nodes = (
(620,350,l),
(620,580,l),
(660,580,l),
(740,460,l),
(740,0,l),
(1000,0,l),
(1000,700,l),
(840,860,l),
(580,860,l),
(500,740,l),
(420,860,l),
(20,860,l),
(20,580,l),
(100,580,l),
(80,620,l),
(20,480,l),
(20,0,l),
(340,0,l),
(340,194,l),
(300,260,l),
(300,580,l),
(360,580,l),
(360,350,l),
(400,284,l),
(400,0,l),
(680,0,l),
(680,250,l)
);
}
);
width = 1020;
},
{
anchors = (
{
name = bottom;
pos = (220,0);
},
{
name = top;
pos = (220,860);
}
);
hints = (
{
name = _corner.arrow;
origin = (0,12);
type = Corner;
},
{
name = _corner.arrow;
origin = (0,11);
type = Corner;
},
{
name = _corner.arrow;
origin = (0,5);
type = Corner;
},
{
name = _corner.arrow;
origin = (0,4);
type = Corner;
},
{
name = _corner.arrow;
origin = (0,25);
type = Corner;
},
{
name = _corner.arrow;
origin = (0,24);
type = Corner;
},
{
name = _corner.arrow;
origin = (0,17);
type = Corner;
},
{
name = _corner.arrow;
origin = (0,16);
type = Corner;
}
);
layerId = "A70D3E7C-EDA6-440E-AC35-67945F302293";
shapes = (
{
closed = 1;
nodes = (
(260,580,l),
(260,660,l),
(280,660,l),
(320,560,l),
(320,0,l),
(420,0,l),
(420,680,l),
(340,860,l),
(280,860,l),
(220,780,l),
(160,860,l),
(20,860,l),
(20,660,l),
(100,660,l),
(80,700,l),
(20,580,l),
(20,0,l),
(140,0,l),
(140,320,l),
(120,400,l),
(120,660,l),
(160,660,l),
(160,420,l),
(180,340,l),
(180,0,l),
(280,0,l),
(280,520,l)
);
}
);
width = 440;
}
);
unicode = 77;
},
{
color = 9;
glyphname = N;
lastChange = "2022-01-14 09:08:06 +0000";
layers = (
{
anchors = (
{
name = bottom;
pos = (460,0);
},
{
name = top;
pos = (460,860);
}
);
hints = (
{
name = _corner.arrow;
origin = (0,21);
type = Corner;
},
{
name = _corner.arrow;
origin = (0,20);
type = Corner;
},
{
name = _corner.arrow;
origin = (0,19);
type = Corner;
},
{
name = _corner.arrow;
origin = (0,13);
type = Corner;
},
{
name = _corner.arrow;
origin = (0,12);
type = Corner;
},
{
name = _corner.arrow;
origin = (0,7);
type = Corner;
},
{
name = _corner.arrow;
origin = (0,8);
type = Corner;
},
{
name = _corner.arrow;
origin = (0,6);
type = Corner;
},
{
name = _corner.arrow;
origin = (0,0);
type = Corner;
},
{
name = _corner.arrow;
origin = (0,25);
type = Corner;
}
);
layerId = m002;
shapes = (
{
closed = 1;
nodes = (
(380,0,l),
(380,140,l),
(240,500,l),
(240,580,l),
(280,580,l),
(440,160,l),
(440,0,l),
(880,0,l),
(880,280,l),
(795,280,l),
(826,237,l),
(880,400,l),
(880,860,l),
(540,860,l),
(540,680,l),
(660,340,l),
(660,300,l),
(620,300,l),
(480,660,l),
(480,860,l),
(20,860,l),
(20,580,l),
(100,580,l),
(80,620,l),
(20,480,l),
(20,0,l)
);
}
);
width = 900;
},
{
anchors = (
{
name = bottom;
pos = (200,0);
},
{
name = top;
pos = (200,860);
}
);
hints = (
{
name = _corner.arrow;
origin = (0,21);
type = Corner;
},
{
name = _corner.arrow;
origin = (0,20);
type = Corner;
},
{
name = _corner.arrow;
origin = (0,19);
type = Corner;
},
{
name = _corner.arrow;
origin = (0,13);
type = Corner;
},
{
name = _corner.arrow;
origin = (0,12);
type = Corner;
},
{
name = _corner.arrow;
origin = (0,7);
type = Corner;
},
{
name = _corner.arrow;
origin = (0,8);
type = Corner;
},
{
name = _corner.arrow;
origin = (0,6);
type = Corner;
},
{
name = _corner.arrow;
origin = (0,0);
type = Corner;
},
{
name = _corner.arrow;
origin = (0,25);
type = Corner;
}
);
layerId = "A70D3E7C-EDA6-440E-AC35-67945F302293";
shapes = (
{
closed = 1;
nodes = (
(140,0,l),
(140,140,l),
(100,580,l),
(100,660,l),
(120,660,l),
(180,160,l),
(180,0,l),
(360,0,l),
(360,240,l),
(300,240,l),
(300,180,l),
(360,280,l),
(360,860,l),
(240,860,l),
(240,720,l),
(280,340,l),
(280,240,l),
(260,240,l),
(200,700,l),
(200,860,l),
(20,860,l),
(20,660,l),
(80,660,l),
(80,740,l),
(20,580,l),
(20,0,l)
);
}
);
width = 380;
}
);
unicode = 78;
},
{
color = 9;
glyphname = O;
lastChange = "2021-12-20 09:20:25 +0000";
layers = (
{
anchors = (
{
name = bottom;
pos = (360,0);
},
{
name = center;
pos = (360,440);
},
{
name = ogonek;
pos = (700,20);
},
{
name = top;
pos = (360,860);
},
{
name = topleft;
pos = (-40,860);
},
{
name = topright;
pos = (760,860);
}
);
hints = (
{
name = _corner.arrow;
origin = (0,4);
type = Corner;
},
{
name = _corner.arrow;
origin = (0,1);
type = Corner;
}
);
layerId = m002;
shapes = (
{
closed = 1;
nodes = (
(700,160,l),
(700,860,l),
(180,860,l),
(20,700,l),
(20,0,l),
(540,0,l)
);
},
{
closed = 1;
nodes = (
(340,600,l),
(360,520,l),
(480,520,l),
(480,260,l),
(380,260,l),
(360,340,l),
(240,340,l),
(240,600,l)
);
}
);
width = 720;
},
{
anchors = (
{
name = bottom;
pos = (140,0);
},
{
name = center;
pos = (140,440);
},
{
name = ogonek;
pos = (260,20);
},
{
name = top;
pos = (140,860);
},
{
name = topleft;
pos = (20,860);
},
{
name = topright;
pos = (260,860);
}
);
hints = (
{
name = _corner.arrow;
origin = (0,4);
type = Corner;
},
{
name = _corner.arrow;
origin = (0,1);
type = Corner;
}
);
layerId = "A70D3E7C-EDA6-440E-AC35-67945F302293";
shapes = (
{
closed = 1;
nodes = (
(260,60,l),
(260,860,l),
(80,860,l),
(20,800,l),
(20,0,l),
(200,0,l)
);
},
{
closed = 1;
nodes = (
(140,720,l),
(140,580,l),
(180,500,l),
(180,140,l),
(140,140,l),
(140,280,l),
(100,360,l),
(100,720,l)
);
}
);
width = 280;
}
);
unicode = 79;
},
{
color = 9;
glyphname = P;
lastChange = "2021-12-20 09:20:25 +0000";
layers = (
{
anchors = (
{
name = bottom;
pos = (360,0);
},
{
name = top;
pos = (360,860);
}
);
hints = (
{
name = _corner.arrow;
origin = (0,3);
type = Corner;
},
{
name = _corner.arrow;
origin = (0,4);
type = Corner;
},
{
name = _corner.arrow;
origin = (0,8);
type = Corner;
},
{
name = _corner.arrow;
origin = (0,9);
type = Corner;
},
{
name = _corner.arrow;
origin = (1,1);
type = Corner;
}
);
layerId = m002;
shapes = (
{
closed = 1;
nodes = (
(320,160,l),
(280,260,l),
(280,860,l),
(20,860,l),
(20,580,l),
(100,580,l),
(80,620,l),
(20,480,l),
(20,0,l),
(320,0,l)
);
},
{
closed = 1;
nodes = (
(700,420,l),
(700,860,l),
(240,860,l),
(240,600,l),
(460,600,l),
(460,540,l),
(380,540,l),
(220,420,l),
(220,260,l),
(540,260,l)
);
}
);
width = 720;
},
{
anchors = (
{
name = bottom;
pos = (160,0);
},
{
name = top;
pos = (160,860);
}
);
hints = (
{
name = _corner.arrow;
origin = (0,3);
type = Corner;
},
{
name = _corner.arrow;
origin = (0,4);
type = Corner;
},
{
name = _corner.arrow;
origin = (0,8);
type = Corner;
},
{
name = _corner.arrow;
origin = (0,9);
type = Corner;
},
{
name = _corner.arrow;
origin = (1,1);
type = Corner;
}
);
layerId = "A70D3E7C-EDA6-440E-AC35-67945F302293";
shapes = (
{
closed = 1;
nodes = (
(150,160,l),
(120,280,l),
(120,860,l),
(20,860,l),
(20,660,l),
(80,660,l),
(80,700,l),
(20,580,l),
(20,0,l),
(150,0,l)
);
},
{
closed = 1;
nodes = (
(260,510,l),
(260,860,l),
(100,860,l),
(100,660,l),
(160,660,l),
(160,560,l),
(160,560,l),
(120,420,l),
(70,280,l),
(170,280,l)
);
}
);
width = 280;
}
);
unicode = 80;
},
{
color = 0;
glyphname = Q;
lastChange = "2022-01-14 09:18:56 +0000";
layers = (
{
anchors = (
{
name = bottom;
pos = (400,0);
},
{
name = top;
pos = (400,860);
}
);
hints = (
{
name = _corner.arrow;
origin = (1,4);
type = Corner;
},
{
name = _corner.arrow;
origin = (1,5);
type = Corner;
},
{
name = _corner.arrow;
origin = (1,8);
type = Corner;
},
{
name = _corner.arrow;
origin = (1,0);
type = Corner;
}
);
layerId = m002;
shapes = (
{
closed = 1;
nodes = (
(380,340,l),
(240,340,l),
(240,600,l),
(340,600,l),
(360,520,l),
(500,520,l),
(500,350,l),
(400,260,l)
);
},
{
closed = 1;
nodes = (
(20,0,l),
(401,0,l),
(465,68,l),
(500,0,l),
(700,0,l),
(700,350,l),
(620,350,l),
(700,430,l),
(700,860,l),
(180,860,l),
(20,700,l)
);
}
);
width = 720;
},
{
anchors = (
{
name = bottom;
pos = (150,0);
},
{
name = top;
pos = (150,860);
}
);
hints = (
{
name = _corner.arrow;
origin = (1,4);
type = Corner;
},
{
name = _corner.arrow;
origin = (1,5);
type = Corner;
},
{
name = _corner.arrow;
origin = (1,8);
type = Corner;
},
{
name = _corner.arrow;
origin = (1,0);
type = Corner;
}
);
layerId = "A70D3E7C-EDA6-440E-AC35-67945F302293";
shapes = (
{
closed = 1;
nodes = (
(150,140,l),
(120,140,l),
(120,720,l),
(160,720,l),
(160,580,l),
(210,500,l),
(210,360,l),
(150,283,l)
);
},
{
closed = 1;
nodes = (
(20,0,l),
(191,0,l),
(205,68,l),
(220,0,l),
(310,0,l),
(310,310,l),
(259,310,l),
(310,370,l),
(310,860,l),
(90,860,l),
(20,800,l)
);
}
);
width = 330;
},
{
anchors = (
{
name = bottom;
pos = (400,0);
},
{
name = top;
pos = (400,860);
}
);
associatedMasterId = m002;
hints = (
{
name = _corner.arrow;
origin = (0,4);
type = Corner;
},
{
name = _corner.arrow;
origin = (0,1);
type = Corner;
},
{
name = _corner.arrow;
origin = (0,5);
type = Corner;
},
{
name = _corner.arrow;
origin = (1,3);
type = Corner;
},
{
name = _corner.arrow;
origin = (1,4);
type = Corner;
}
);
layerId = "61D0DC96-C34D-40B6-BC22-2D2DAE4D51C8";
name = "24 Dec 21, 14:09";
shapes = (
{
closed = 1;
nodes = (
(760,330,l),
(760,860,l),
(210,860,l),
(50,700,l),
(50,0,l),
(460,0,l),
(460,220,l),
(270,220,l),
(270,640,l),
(540,640,l),
(540,180,l)
);
},
{
closed = 1;
nodes = (
(310,315,l),
(329,315,l),
(500,0,l),
(760,0,l),
(760,220,l),
(650,220,l),
(490,480,l),
(310,480,l)
);
}
);
width = 780;
}
);
unicode = 81;
},
{
color = 9;
glyphname = R;
lastChange = "2021-12-20 09:20:25 +0000";
layers = (
{
anchors = (
{
name = bottom;
pos = (360,0);
},
{
name = top;
pos = (360,860);
}
);
hints = (
{
name = _corner.arrow;
origin = (0,8);
type = Corner;
},
{
name = _corner.arrow;
origin = (0,9);
type = Corner;
},
{
name = _corner.arrow;
origin = (1,11);
type = Corner;
},
{
name = _corner.arrow;
origin = (1,12);
type = Corner;
},
{
name = _corner.arrow;
origin = (1,1);
type = Corner;
},
{
name = _corner.arrow;
origin = (0,3);
type = Corner;
},
{
name = _corner.arrow;
origin = (0,4);
type = Corner;
}
);
layerId = m002;
shapes = (
{
closed = 1;
nodes = (
(320,160,l),
(280,260,l),
(280,860,l),
(20,860,l),
(20,580,l),
(100,580,l),
(80,620,l),
(20,480,l),
(20,0,l),
(320,0,l)
);
},
{
closed = 1;
nodes = (
(700,420,l),
(700,860,l),
(240,860,l),
(240,600,l),
(460,600,l),
(460,540,l),
(380,540,l),
(280,380,l),
(220,260,l),
(320,260,l),
(380,160,l),
(380,0,l),
(700,0,l),
(700,280,l),
(620,340,l)
);
}
);
width = 720;
},
{
anchors = (
{
name = bottom;
pos = (160,0);
},
{
name = top;
pos = (160,860);
}
);
hints = (
{
name = _corner.arrow;
origin = (0,8);
type = Corner;
},
{
name = _corner.arrow;
origin = (0,9);
type = Corner;
},
{
name = _corner.arrow;
origin = (1,11);
type = Corner;
},
{
name = _corner.arrow;
origin = (1,12);
type = Corner;
},
{
name = _corner.arrow;
origin = (1,1);
type = Corner;
},
{
name = _corner.arrow;
origin = (0,3);
type = Corner;
},
{
name = _corner.arrow;
origin = (0,4);
type = Corner;
}
);
layerId = "A70D3E7C-EDA6-440E-AC35-67945F302293";
shapes = (
{
closed = 1;
nodes = (
(140,160,l),
(120,300,l),
(120,860,l),
(20,860,l),
(20,660,l),
(100,660,l),
(80,700,l),
(20,580,l),
(20,0,l),
(140,0,l)
);
},
{
closed = 1;
nodes = (
(280,520,l),
(280,860,l),
(100,860,l),
(100,680,l),
(180,680,l),
(180,580,l),
(180,580,l),
(120,400,l),
(80,300,l),
(140,300,l),
(180,200,l),
(180,0,l),
(280,0,l),
(280,340,l),
(240,420,l)
);
}
);
width = 300;
}
);
unicode = 82;
},
{
color = 0;
glyphname = S;
lastChange = "2022-01-14 09:11:02 +0000";
layers = (
{
anchors = (
{
name = bottom;
pos = (400,0);
},
{
name = top;
pos = (400,860);
}
);
hints = (
{
name = _corner.arrow;
origin = (0,17);
type = Corner;
},
{
name = _corner.arrow;
origin = (0,16);
type = Corner;
},
{
name = _corner.arrow;
origin = (0,15);
type = Corner;
},
{
name = _corner.arrow;
origin = (0,1);
type = Corner;
},
{
name = _corner.arrow;
origin = (0,0);
type = Corner;
},
{
name = _corner.arrow;
origin = (0,2);
type = Corner;
}
);
layerId = m002;
shapes = (
{
closed = 1;
nodes = (
(20,320,l),
(20,0,l),
(300,0,l),
(300,105,l),
(268,92,l),
(360,0,l),
(580,0,l),
(780,200,l),
(780,460,l),
(480,580,l),
(320,580,l),
(280,500,l),
(280,620,l),
(480,620,l),
(680,540,l),
(780,540,l),
(780,860,l),
(520,860,l),
(520,760,l),
(560,760,l),
(460,860,l),
(220,860,l),
(20,720,l),
(20,400,l),
(320,300,l),
(480,300,l),
(520,360,l),
(520,240,l),
(340,240,l),
(120,320,l)
);
}
);
width = 800;
},
{
anchors = (
{
name = bottom;
pos = (180,0);
},
{
name = top;
pos = (180,860);
}
);
hints = (
{
name = _corner.arrow;
origin = (0,17);
type = Corner;
},
{
name = _corner.arrow;
origin = (0,16);
type = Corner;
},
{
name = _corner.arrow;
origin = (0,15);
type = Corner;
},
{
name = _corner.arrow;
origin = (0,1);
type = Corner;
},
{
name = _corner.arrow;
origin = (0,0);
type = Corner;
},
{
name = _corner.arrow;
origin = (0,2);
type = Corner;
}
);
layerId = "A70D3E7C-EDA6-440E-AC35-67945F302293";
shapes = (
{
closed = 1;
nodes = (
(20,320,l),
(20,0,l),
(140,0,l),
(140,100,l),
(100,100,l),
(200,0,l),
(240,0,l),
(340,100,l),
(340,420,l),
(224,620,l),
(180,620,l),
(120,480,l),
(120,680,l),
(220,680,l),
(300,540,l),
(340,540,l),
(340,860,l),
(220,860,l),
(220,760,l),
(260,760,l),
(190,860,l),
(120,860,l),
(20,720,l),
(20,440,l),
(126,260,l),
(180,260,l),
(240,400,l),
(240,180,l),
(140,180,l),
(60,320,l)
);
}
);
width = 360;
}
);
unicode = 83;
},
{
color = 9;
glyphname = T;
lastChange = "2021-12-20 09:20:25 +0000";
layers = (
{
anchors = (
{
name = bottom;
pos = (420,0);
},
{
name = center;
pos = (420,440);
},
{
name = top;
pos = (420,860);
}
);
hints = (
{
name = _corner.arrow;
origin = (0,18);
type = Corner;
},
{
name = _corner.arrow;
origin = (0,0);
type = Corner;
},
{
name = _corner.arrow;
origin = (0,1);
type = Corner;
},
{
name = _corner.arrow;
origin = (0,7);
type = Corner;
},
{
name = _corner.arrow;
origin = (0,8);
type = Corner;
},
{
name = _corner.arrow;
origin = (0,12);
type = Corner;
},
{
name = _corner.arrow;
origin = (0,11);
type = Corner;
},
{
name = _corner.arrow;
origin = (0,10);
type = Corner;
},
{
name = _corner.arrow;
origin = (0,9);
type = Corner;
}
);
layerId = m002;
shapes = (
{
closed = 1;
nodes = (
(700,0,l),
(700,260,l),
(440,260,l),
(560,360,l),
(560,600,l),
(580,600,l),
(620,500,l),
(640,300,l),
(820,300,l),
(820,860,l),
(20,860,l),
(20,300,l),
(200,300,l),
(220,500,l),
(260,600,l),
(280,600,l),
(280,300,l),
(140,180,l),
(140,0,l)
);
}
);
width = 840;
},
{
anchors = (
{
name = bottom;
pos = (180,0);
},
{
name = center;
pos = (180,440);
},
{
name = top;
pos = (180,860);
}
);
hints = (
{
name = _corner.arrow;
origin = (0,18);
type = Corner;
},
{
name = _corner.arrow;
origin = (0,0);
type = Corner;
},
{
name = _corner.arrow;
origin = (0,1);
type = Corner;
},
{
name = _corner.arrow;
origin = (0,7);
type = Corner;
},
{
name = _corner.arrow;
origin = (0,8);
type = Corner;
},
{
name = _corner.arrow;
origin = (0,12);
type = Corner;
},
{
name = _corner.arrow;
origin = (0,11);
type = Corner;
},
{
name = _corner.arrow;
origin = (0,10);
type = Corner;
},
{
name = _corner.arrow;
origin = (0,9);
type = Corner;
}
);
layerId = "A70D3E7C-EDA6-440E-AC35-67945F302293";
shapes = (
{
closed = 1;
nodes = (
(300,0,l),
(300,180,l),
(160,180,l),
(220,260,l),
(220,680,l),
(240,680,l),
(240,520,l),
(260,200,l),
(320,200,l),
(320,860,l),
(20,860,l),
(20,200,l),
(80,200,l),
(100,520,l),
(100,680,l),
(120,680,l),
(120,200,l),
(40,80,l),
(40,0,l)
);
}
);
width = 340;
}
);
unicode = 84;
},
{
color = 9;
glyphname = U;
lastChange = "2021-12-20 09:20:25 +0000";
layers = (
{
anchors = (
{
name = bottom;
pos = (380,0);
},
{
name = ogonek;
pos = (548,20);
},
{
name = top;
pos = (380,860);
},
{
name = topright;
pos = (720,860);
}
);
hints = (
{
name = _corner.arrow;
origin = (0,6);
type = Corner;
},
{
name = _corner.arrow;
origin = (0,5);
type = Corner;
},
{
name = _corner.arrow;
origin = (0,4);
type = Corner;
},
{
name = _corner.arrow;
origin = (1,3);
type = Corner;
},
{
name = _corner.arrow;
origin = (1,2);
type = Corner;
},
{
name = _corner.arrow;
origin = (1,4);
type = Corner;
},
{
name = _corner.arrow;
origin = (0,10);
type = Corner;
}
);
layerId = m002;
shapes = (
{
closed = 1;
nodes = (
(460,0,l),
(460,240,l),
(280,240,l),
(340,340,l),
(340,860,l),
(20,860,l),
(20,580,l),
(100,580,l),
(80,620,l),
(20,480,l),
(20,0,l)
);
},
{
closed = 1;
nodes = (
(560,0,l),
(720,160,l),
(720,860,l),
(400,860,l),
(400,580,l),
(480,580,l),
(460,620,l),
(400,480,l),
(400,0,l)
);
}
);
width = 740;
},
{
anchors = (
{
name = bottom;
pos = (140,0);
},
{
name = ogonek;
pos = (260,20);
},
{
name = top;
pos = (140,860);
},
{
name = topright;
pos = (260,860);
}
);
hints = (
{
name = _corner.arrow;
origin = (0,6);
type = Corner;
},
{
name = _corner.arrow;
origin = (0,5);
type = Corner;
},
{
name = _corner.arrow;
origin = (0,4);
type = Corner;
},
{
name = _corner.arrow;
origin = (1,3);
type = Corner;
},
{
name = _corner.arrow;
origin = (1,2);
type = Corner;
},
{
name = _corner.arrow;
origin = (1,4);
type = Corner;
},
{
name = _corner.arrow;
origin = (0,10);
type = Corner;
}
);
layerId = "A70D3E7C-EDA6-440E-AC35-67945F302293";
shapes = (
{
closed = 1;
nodes = (
(180,0,l),
(180,180,l),
(100,180,l),
(120,260,l),
(120,860,l),
(20,860,l),
(20,660,l),
(100,660,l),
(80,700,l),
(20,580,l),
(20,0,l)
);
},
{
closed = 1;
nodes = (
(200,0,l),
(260,60,l),
(260,860,l),
(140,860,l),
(140,660,l),
(240,660,l),
(200,740,l),
(160,580,l),
(160,0,l)
);
}
);
width = 280;
}
);
unicode = 85;
},
{
color = 9;
glyphname = V;
lastChange = "2022-01-14 12:02:20 +0000";
layers = (
{
anchors = (
{
name = bottom;
pos = (360,0);
},
{
name = top;
pos = (360,860);
}
);
hints = (
{
name = _corner.arrow;
origin = (0,22);
type = Corner;
},
{
name = _corner.arrow;
origin = (0,6);
type = Corner;
},
{
name = _corner.arrow;
origin = (0,5);
type = Corner;
},
{
name = _corner.arrow;
origin = (0,21);
type = Corner;
}
);
layerId = m002;
shapes = (
{
closed = 1;
nodes = (
(540,0,l),
(680,140,l),
(680,460,l),
(620,620,l),
(600,580,l),
(680,580,l),
(680,860,l),
(449,860,l),
(426,860,o),
(417,851,o),
(415,833,cs),
(380,580,l),
(380,360,l),
(440,280,l),
(260,280,l),
(320,360,l),
(320,580,l),
(284,833,ls),
(282,851,o),
(273,860,o),
(250,860,cs),
(20,860,l),
(20,580,l),
(100,580,l),
(80,620,l),
(20,460,l),
(20,140,l),
(160,0,l)
);
}
);
width = 700;
},
{
anchors = (
{
name = bottom;
pos = (140,0);
},
{
name = top;
pos = (140,860);
}
);
hints = (
{
name = _corner.arrow;
origin = (0,5);
type = Corner;
},
{
name = _corner.arrow;
origin = (0,6);
type = Corner;
},
{
name = _corner.arrow;
origin = (0,21);
type = Corner;
},
{
name = _corner.arrow;
origin = (0,22);
type = Corner;
}
);
layerId = "A70D3E7C-EDA6-440E-AC35-67945F302293";
shapes = (
{
closed = 1;
nodes = (
(160,0,l),
(260,140,l),
(260,600,l),
(220,700,l),
(200,660,l),
(260,660,l),
(260,860,l),
(193,860,ls),
(182,860,o),
(179,855,o),
(178,842,cs),
(160,660,l),
(160,260,l),
(180,180,l),
(100,180,l),
(120,260,l),
(120,660,l),
(102,842,ls),
(101,855,o),
(98,860,o),
(87,860,cs),
(20,860,l),
(20,660,l),
(80,660,l),
(60,700,l),
(20,600,l),
(20,140,l),
(120,0,l)
);
}
);
width = 280;
}
);
unicode = 86;
},
{
color = 9;
glyphname = W;
lastChange = "2022-01-14 09:11:44 +0000";
layers = (
{
anchors = (
{
name = bottom;
pos = (520,0);
},
{
name = top;
pos = (520,860);
}
);
hints = (
{
name = _corner.arrow;
origin = (0,7);
type = Corner;
},
{
name = _corner.arrow;
origin = (0,8);
type = Corner;
},
{
name = _corner.arrow;
origin = (0,15);
type = Corner;
},
{
name = _corner.arrow;
origin = (0,16);
type = Corner;
},
{
name = _corner.arrow;
origin = (1,6);
type = Corner;
},
{
name = _corner.arrow;
origin = (1,7);
type = Corner;
}
);
layerId = m002;
shapes = (
{
closed = 1;
nodes = (
(340,520,l),
(400,440,l),
(400,260,l),
(480,200,l),
(600,0,l),
(780,0,l),
(1000,280,l),
(1000,860,l),
(680,860,l),
(680,680,l),
(720,540,l),
(720,280,l),
(660,280,l),
(660,500,l),
(620,660,l),
(620,860,l),
(340,860,l)
);
},
{
closed = 1;
nodes = (
(20,280,l),
(240,0,l),
(440,0,l),
(640,280,l),
(380,280,l),
(280,420,l),
(280,860,l),
(20,860,l)
);
}
);
width = 1020;
},
{
anchors = (
{
name = bottom;
pos = (520,0);
},
{
name = top;
pos = (520,860);
}
);
hints = (
{
name = _corner.arrow;
origin = (0,7);
type = Corner;
},
{
name = _corner.arrow;
origin = (0,8);
type = Corner;
},
{
name = _corner.arrow;
origin = (0,15);
type = Corner;
},
{
name = _corner.arrow;
origin = (0,16);
type = Corner;
},
{
name = _corner.arrow;
origin = (1,6);
type = Corner;
},
{
name = _corner.arrow;
origin = (1,7);
type = Corner;
}
);
layerId = "A70D3E7C-EDA6-440E-AC35-67945F302293";
shapes = (
{
closed = 1;
nodes = (
(160,400,l),
(220,280,l),
(220,160,l),
(240,120,l),
(280,0,l),
(340,0,l),
(440,140,l),
(440,860,l),
(300,860,l),
(300,540,l),
(340,440,l),
(340,180,l),
(300,180,l),
(300,360,l),
(260,440,l),
(260,860,l),
(160,860,l)
);
},
{
closed = 1;
nodes = (
(20,140,l),
(120,0,l),
(200,0,l),
(280,180,l),
(200,180,l),
(120,320,l),
(120,860,l),
(20,860,l)
);
}
);
width = 460;
}
);
unicode = 87;
},
{
color = 9;
glyphname = X;
lastChange = "2022-01-13 02:12:45 +0000";
layers = (
{
anchors = (
{
name = bottom;
pos = (380,0);
},
{
name = top;
pos = (380,860);
}
);
hints = (
{
name = _corner.arrow;
origin = (0,1);
type = Corner;
},
{
name = _corner.arrow;
origin = (0,15);
type = Corner;
},
{
name = _corner.arrow;
origin = (0,5);
type = Corner;
},
{
name = _corner.arrow;
origin = (0,11);
type = Corner;
},
{
name = _corner.arrow;
origin = (0,16);
type = Corner;
},
{
name = _corner.arrow;
origin = (0,6);
type = Corner;
}
);
layerId = m002;
shapes = (
{
closed = 1;
nodes = (
(290,860,l),
(20,860,l),
(20,600,l),
(120,460,l),
(20,390,l),
(20,0,l),
(320,0,l),
(320,140,l),
(260,260,l),
(290,279,l),
(440,0,l),
(720,0,l),
(720,280,l),
(620,420,l),
(720,490,l),
(720,860,l),
(420,860,l),
(420,700,l),
(500,552,l),
(470,533,l)
);
}
);
width = 740;
},
{
anchors = (
{
name = bottom;
pos = (140,0);
},
{
name = top;
pos = (140,860);
}
);
hints = (
{
name = _corner.arrow;
origin = (0,1);
type = Corner;
},
{
name = _corner.arrow;
origin = (0,5);
type = Corner;
},
{
name = _corner.arrow;
origin = (0,6);
type = Corner;
},
{
name = _corner.arrow;
origin = (0,11);
type = Corner;
},
{
name = _corner.arrow;
origin = (0,15);
type = Corner;
},
{
name = _corner.arrow;
origin = (0,16);
type = Corner;
}
);
layerId = "A70D3E7C-EDA6-440E-AC35-67945F302293";
shapes = (
{
closed = 1;
nodes = (
(100,860,l),
(20,860,l),
(20,680,l),
(80,440,l),
(20,240,l),
(20,0,l),
(140,0,l),
(140,140,l),
(120,320,l),
(140,320,l),
(220,0,l),
(300,0,l),
(300,200,l),
(240,440,l),
(300,640,l),
(300,860,l),
(180,860,l),
(180,700,l),
(200,500,l),
(180,500,l)
);
}
);
width = 320;
}
);
unicode = 88;
},
{
color = 6;
glyphname = Y;
lastChange = "2022-01-14 12:02:14 +0000";
layers = (
{
anchors = (
{
name = bottom;
pos = (360,0);
},
{
name = top;
pos = (360,860);
},
{
name = topleft;
pos = (20,860);
}
);
hints = (
{
name = _corner.arrow;
origin = (0,5);
type = Corner;
},
{
name = _corner.arrow;
origin = (0,25);
type = Corner;
},
{
name = _corner.arrow;
origin = (0,0);
type = Corner;
},
{
name = _corner.arrow;
origin = (0,20);
type = Corner;
}
);
layerId = m002;
shapes = (
{
closed = 1;
nodes = (
(620,0,l),
(620,140,l),
(500,260,l),
(580,260,l),
(680,360,l),
(680,860,l),
(446,860,ls),
(423,860,o),
(417,850,o),
(412,833,cs),
(380,720,l),
(380,540,l),
(440,460,l),
(260,460,l),
(320,540,l),
(320,720,l),
(288,833,ls),
(283,850,o),
(277,860,o),
(254,860,cs),
(20,860,l),
(20,360,l),
(120,260,l),
(200,260,l),
(80,140,l),
(80,0,l)
);
}
);
width = 700;
},
{
anchors = (
{
name = bottom;
pos = (140,0);
},
{
name = top;
pos = (140,860);
},
{
name = topleft;
pos = (20,860);
}
);
hints = (
{
name = _corner.arrow;
origin = (0,25);
type = Corner;
},
{
name = _corner.arrow;
origin = (0,0);
type = Corner;
},
{
name = _corner.arrow;
origin = (0,5);
type = Corner;
},
{
name = _corner.arrow;
origin = (0,20);
type = Corner;
}
);
layerId = "A70D3E7C-EDA6-440E-AC35-67945F302293";
shapes = (
{
closed = 1;
nodes = (
(220,0,l),
(220,100,l),
(200,160,l),
(200,220,l),
(260,360,l),
(260,860,l),
(194,860,ls),
(182,860,o),
(179,855,o),
(178,846,cs),
(160,730,l),
(160,520,l),
(180,420,l),
(100,420,l),
(120,520,l),
(120,730,l),
(102,846,ls),
(101,855,o),
(98,860,o),
(86,860,cs),
(20,860,l),
(20,360,l),
(80,220,l),
(80,160,l),
(60,100,l),
(60,0,l)
);
}
);
width = 280;
}
);
unicode = 89;
},
{
color = 6;
glyphname = Z;
lastChange = "2022-01-14 09:10:16 +0000";
layers = (
{
anchors = (
{
name = bottom;
pos = (400,0);
},
{
name = center;
pos = (400,440);
},
{
name = top;
pos = (400,860);
}
);
hints = (
{
name = _corner.arrow;
origin = (0,25);
type = Corner;
},
{
name = _corner.arrow;
origin = (0,0);
type = Corner;
},
{
name = _corner.arrow;
origin = (0,13);
type = Corner;
},
{
name = _corner.arrow;
origin = (0,12);
type = Corner;
},
{
name = _corner.arrow;
origin = (0,5);
type = Corner;
},
{
name = _corner.arrow;
origin = (0,4);
type = Corner;
},
{
name = _corner.arrow;
origin = (0,18);
type = Corner;
},
{
name = _corner.arrow;
origin = (0,17);
type = Corner;
}
);
layerId = m002;
shapes = (
{
closed = 1;
nodes = (
(260,0,l),
(260,85,l),
(220,60,l),
(340,0,l),
(780,0,l),
(780,260,l),
(710,260,l),
(710,260,l),
(280,260,l),
(280,320,l),
(640,320,l),
(780,460,l),
(780,860,l),
(540,860,l),
(540,780,l),
(580,800,l),
(460,860,l),
(20,860,l),
(20,600,l),
(90,600,l),
(90,600,l),
(540,600,l),
(540,560,l),
(160,560,l),
(20,420,l),
(20,0,l)
);
}
);
width = 800;
},
{
anchors = (
{
name = bottom;
pos = (180,0);
},
{
name = center;
pos = (180,440);
},
{
name = top;
pos = (180,860);
}
);
hints = (
{
name = _corner.arrow;
origin = (0,25);
type = Corner;
},
{
name = _corner.arrow;
origin = (0,0);
type = Corner;
},
{
name = _corner.arrow;
origin = (0,13);
type = Corner;
},
{
name = _corner.arrow;
origin = (0,12);
type = Corner;
},
{
name = _corner.arrow;
origin = (0,5);
type = Corner;
},
{
name = _corner.arrow;
origin = (0,4);
type = Corner;
},
{
name = _corner.arrow;
origin = (0,18);
type = Corner;
},
{
name = _corner.arrow;
origin = (0,17);
type = Corner;
}
);
layerId = "A70D3E7C-EDA6-440E-AC35-67945F302293";
shapes = (
{
closed = 1;
nodes = (
(140,0,l),
(140,80,l),
(100,60,l),
(200,0,l),
(320,0,l),
(320,370,l),
(268,370,l),
(190,180,l),
(140,180,l),
(140,260,l),
(180,260,l),
(320,600,l),
(320,860,l),
(200,860,l),
(200,780,l),
(240,800,l),
(140,860,l),
(20,860,l),
(20,490,l),
(70,490,l),
(140,660,l),
(220,660,l),
(220,600,l),
(160,600,l),
(20,260,l),
(20,0,l)
);
}
);
width = 340;
}
);
unicode = 90;
},
{
color = 1;
glyphname = A.comp;
lastChange = "2022-01-14 09:41:06 +0000";
layers = (
{
anchors = (
{
name = bottom;
pos = (360,0);
},
{
name = ogonek;
pos = (640,20);
},
{
name = top;
pos = (360,720);
}
);
hints = (
{
name = _corner.arrow;
origin = (0,0);
type = Corner;
},
{
name = _corner.arrow;
origin = (0,7);
type = Corner;
},
{
name = _corner.arrow;
origin = (2,0);
type = Corner;
},
{
name = _corner.arrow;
origin = (2,3);
type = Corner;
},
{
name = _corner.arrow;
origin = (3,3);
type = Corner;
},
{
name = _corner.arrow;
origin = (3,4);
type = Corner;
},
{
name = _corner.arrow;
origin = (3,8);
type = Corner;
},
{
name = _corner.arrow;
origin = (3,9);
type = Corner;
},
{
name = _corner.arrow;
origin = (3,10);
type = Corner;
}
);
layerId = m002;
shapes = (
{
closed = 1;
nodes = (
(280,0,l),
(280,360,l),
(400,520,l),
(500,520,l),
(500,660,l),
(260,660,l),
(20,360,l),
(20,0,l)
);
},
{
closed = 1;
nodes = (
(540,160,l),
(540,360,l),
(180,360,l),
(180,160,l)
);
},
{
closed = 1;
nodes = (
(680,0,l),
(680,420,l),
(420,620,l),
(420,0,l)
);
},
{
closed = 1;
nodes = (
(280,480,l),
(420,580,l),
(420,480,l),
(680,480,l),
(680,720,l),
(320,720,l),
(220,660,l),
(260,660,l),
(260,720,l),
(20,720,l),
(20,480,l)
);
}
);
width = 700;
},
{
anchors = (
{
name = bottom;
pos = (140,0);
},
{
name = ogonek;
pos = (260,20);
},
{
name = top;
pos = (140,820);
}
);
hints = (
{
name = _corner.arrow;
origin = (0,0);
type = Corner;
},
{
name = _corner.arrow;
origin = (0,7);
type = Corner;
},
{
name = _corner.arrow;
origin = (2,0);
type = Corner;
},
{
name = _corner.arrow;
origin = (2,3);
type = Corner;
},
{
name = _corner.arrow;
origin = (3,3);
type = Corner;
},
{
name = _corner.arrow;
origin = (3,4);
type = Corner;
},
{
name = _corner.arrow;
origin = (3,8);
type = Corner;
},
{
name = _corner.arrow;
origin = (3,9);
type = Corner;
},
{
name = _corner.arrow;
origin = (3,10);
type = Corner;
}
);
layerId = "A70D3E7C-EDA6-440E-AC35-67945F302293";
shapes = (
{
closed = 1;
nodes = (
(120,0,l),
(120,320,l),
(140,680,l),
(160,700,l),
(160,760,l),
(140,760,l),
(20,580,l),
(20,0,l)
);
},
{
closed = 1;
nodes = (
(200,180,l),
(200,320,l),
(60,320,l),
(60,180,l)
);
},
{
closed = 1;
nodes = (
(260,0,l),
(260,580,l),
(160,680,l),
(160,0,l)
);
},
{
closed = 1;
nodes = (
(120,640,l),
(160,640,l),
(160,640,l),
(260,640,l),
(260,820,l),
(180,820,l),
(100,780,l),
(140,760,l),
(140,820,l),
(20,820,l),
(20,640,l)
);
}
);
width = 280;
}
);
subCategory = special;
},
{
color = 1;
glyphname = C.comp;
lastChange = "2021-12-20 09:20:25 +0000";
layers = (
{
anchors = (
{
name = bottom;
pos = (520,0);
},
{
name = top;
pos = (360,820);
}
);
hints = (
{
name = _corner.arrow;
origin = (0,4);
type = Corner;
},
{
name = _corner.arrow;
origin = (0,12);
type = Corner;
},
{
name = _corner.arrow;
origin = (0,5);
type = Corner;
},
{
name = _corner.arrow;
origin = (0,13);
type = Corner;
},
{
name = _corner.arrow;
origin = (0,14);
type = Corner;
},
{
name = _corner.arrow;
origin = (0,3);
type = Corner;
}
);
layerId = m002;
shapes = (
{
closed = 1;
nodes = (
(340,0,l),
(460,60,l),
(420,85,l),
(420,0,l),
(680,0,l),
(680,360,l),
(520,360,l),
(340,260,l),
(320,260,l),
(320,560,l),
(340,560,l),
(520,460,l),
(680,460,l),
(680,820,l),
(460,820,l),
(460,740,l),
(500,760,l),
(380,820,l),
(140,820,l),
(20,700,l),
(20,120,l),
(140,0,l)
);
}
);
width = 700;
},
{
anchors = (
{
name = bottom;
pos = (160,0);
},
{
name = top;
pos = (160,820);
}
);
hints = (
{
name = _corner.arrow;
origin = (0,4);
type = Corner;
},
{
name = _corner.arrow;
origin = (0,12);
type = Corner;
},
{
name = _corner.arrow;
origin = (0,5);
type = Corner;
},
{
name = _corner.arrow;
origin = (0,13);
type = Corner;
},
{
name = _corner.arrow;
origin = (0,14);
type = Corner;
},
{
name = _corner.arrow;
origin = (0,3);
type = Corner;
}
);
layerId = "A70D3E7C-EDA6-440E-AC35-67945F302293";
shapes = (
{
closed = 1;
nodes = (
(140,0,l),
(200,160,l),
(180,160,l),
(180,0,l),
(280,0,l),
(280,360,l),
(180,360,l),
(140,190,l),
(120,190,l),
(120,620,l),
(140,620,l),
(180,450,l),
(280,450,l),
(280,820,l),
(180,820,l),
(180,660,l),
(200,660,l),
(140,820,l),
(80,820,l),
(20,760,l),
(20,60,l),
(80,0,l)
);
}
);
width = 300;
}
);
subCategory = special;
},
{
color = 1;
glyphname = E.comp;
lastChange = "2022-01-14 09:19:39 +0000";
layers = (
{
anchors = (
{
name = bottom;
pos = (360,0);
},
{
name = ogonek;
pos = (700,0);
},
{
name = top;
pos = (360,820);
},
{
name = topleft;
pos = (20,860);
}
);
hints = (
{
name = _corner.arrow;
origin = (0,0);
type = Corner;
},
{
name = _corner.arrow;
origin = (0,1);
type = Corner;
},
{
name = _corner.arrow;
origin = (1,0);
type = Corner;
},
{
name = _corner.arrow;
origin = (1,1);
type = Corner;
},
{
name = _corner.arrow;
origin = (2,0);
type = Corner;
},
{
name = _corner.arrow;
origin = (2,1);
type = Corner;
},
{
name = _corner.arrow;
origin = (2,6);
type = Corner;
},
{
name = _corner.arrow;
origin = (2,7);
type = Corner;
},
{
name = _corner.arrow;
origin = (2,5);
type = Corner;
}
);
layerId = m002;
shapes = (
{
closed = 1;
nodes = (
(700,0,l),
(700,250,l),
(260,250,l),
(260,720,l),
(20,510,l),
(20,230,l),
(210,0,l)
);
},
{
closed = 1;
nodes = (
(680,300,l),
(680,520,l),
(320,520,l),
(240,640,l),
(150,640,l),
(340,300,l)
);
},
{
closed = 1;
nodes = (
(700,570,l),
(700,820,l),
(320,820,l),
(220,760,l),
(260,740,l),
(260,820,l),
(20,820,l),
(20,570,l)
);
}
);
width = 720;
},
{
anchors = (
{
name = bottom;
pos = (160,0);
},
{
name = ogonek;
pos = (280,0);
},
{
name = top;
pos = (160,820);
},
{
name = topleft;
pos = (20,820);
}
);
hints = (
{
name = _corner.arrow;
origin = (0,0);
type = Corner;
},
{
name = _corner.arrow;
origin = (0,1);
type = Corner;
},
{
name = _corner.arrow;
origin = (1,0);
type = Corner;
},
{
name = _corner.arrow;
origin = (1,1);
type = Corner;
},
{
name = _corner.arrow;
origin = (2,0);
type = Corner;
},
{
name = _corner.arrow;
origin = (2,1);
type = Corner;
},
{
name = _corner.arrow;
origin = (2,6);
type = Corner;
},
{
name = _corner.arrow;
origin = (2,7);
type = Corner;
},
{
name = _corner.arrow;
origin = (2,5);
type = Corner;
}
);
layerId = "A70D3E7C-EDA6-440E-AC35-67945F302293";
shapes = (
{
closed = 1;
nodes = (
(280,0,l),
(280,180,l),
(120,180,l),
(120,700,l),
(20,600,l),
(20,60,l),
(80,0,l)
);
},
{
closed = 1;
nodes = (
(260,280,l),
(260,540,l),
(160,540,l),
(120,660,l),
(100,500,l),
(160,280,l)
);
},
{
closed = 1;
nodes = (
(280,640,l),
(280,820,l),
(180,820,l),
(100,740,l),
(140,740,l),
(140,820,l),
(20,820,l),
(20,640,l)
);
}
);
width = 300;
}
);
subCategory = special;
},
{
color = 0;
glyphname = G.comp;
lastChange = "2022-01-13 05:59:37 +0000";
layers = (
{
anchors = (
{
name = bottom;
pos = (440,0);
},
{
name = top;
pos = (440,820);
}
);
hints = (
{
name = _corner.arrow;
origin = (0,17);
type = Corner;
},
{
name = _corner.arrow;
origin = (0,3);
type = Corner;
},
{
name = _corner.arrow;
origin = (0,4);
type = Corner;
},
{
name = _corner.arrow;
origin = (0,8);
type = Corner;
},
{
name = _corner.arrow;
origin = (0,9);
type = Corner;
},
{
name = _corner.arrow;
origin = (0,15);
type = Corner;
},
{
name = _corner.arrow;
origin = (0,16);
type = Corner;
},
{
name = _corner.arrow;
origin = (1,0);
type = Corner;
},
{
name = _corner.arrow;
origin = (1,5);
type = Corner;
}
);
layerId = m002;
shapes = (
{
closed = 1;
nodes = (
(460,0,l),
(560,140,l),
(540,140,l),
(540,0,l),
(780,0,l),
(780,230,l),
(720,370,l),
(700,330,l),
(780,330,l),
(780,510,l),
(530,510,l),
(530,330,l),
(460,240,l),
(270,240,l),
(270,580,l),
(780,580,l),
(780,820,l),
(560,820,l),
(560,740,l),
(600,760,l),
(480,820,l),
(140,820,l),
(20,700,l),
(20,120,l),
(140,0,l)
);
},
{
closed = 1;
nodes = (
(340,310,l),
(450,310,l),
(470,340,l),
(580,340,l),
(580,510,l),
(340,510,l)
);
}
);
width = 800;
},
{
anchors = (
{
name = bottom;
pos = (200,0);
},
{
name = top;
pos = (200,860);
}
);
hints = (
{
name = _corner.arrow;
origin = (0,17);
type = Corner;
},
{
name = _corner.arrow;
origin = (0,3);
type = Corner;
},
{
name = _corner.arrow;
origin = (0,4);
type = Corner;
},
{
name = _corner.arrow;
origin = (0,8);
type = Corner;
},
{
name = _corner.arrow;
origin = (0,9);
type = Corner;
},
{
name = _corner.arrow;
origin = (0,15);
type = Corner;
},
{
name = _corner.arrow;
origin = (0,16);
type = Corner;
},
{
name = _corner.arrow;
origin = (1,0);
type = Corner;
},
{
name = _corner.arrow;
origin = (1,5);
type = Corner;
}
);
layerId = "A70D3E7C-EDA6-440E-AC35-67945F302293";
shapes = (
{
closed = 1;
nodes = (
(200,0,l),
(280,200,l),
(260,200,l),
(260,0,l),
(360,0,l),
(360,380,l),
(320,500,l),
(320,440,l),
(360,440,l),
(360,580,l),
(260,580,l),
(260,380,l),
(200,180,l),
(120,180,l),
(120,640,l),
(360,640,l),
(360,820,l),
(240,820,l),
(240,740,l),
(280,740,l),
(200,820,l),
(100,820,l),
(20,740,l),
(20,80,l),
(100,0,l)
);
},
{
closed = 1;
nodes = (
(160,320,l),
(200,320,l),
(240,440,l),
(260,440,l),
(260,580,l),
(160,580,l)
);
}
);
width = 380;
}
);
subCategory = special;
},
{
color = 1;
glyphname = I.comp;
lastChange = "2022-01-14 09:19:33 +0000";
layers = (
{
anchors = (
{
name = bottom;
pos = (220,0);
},
{
name = ogonek;
pos = (400,20);
},
{
name = top;
pos = (220,820);
},
{
name = topleft;
pos = (20,820);
}
);
hints = (
{
name = _corner.arrow;
origin = (0,6);
type = Corner;
},
{
name = _corner.arrow;
origin = (0,5);
type = Corner;
},
{
name = _corner.arrow;
origin = (0,11);
type = Corner;
},
{
name = _corner.arrow;
origin = (0,0);
type = Corner;
},
{
name = _corner.arrow;
origin = (0,7);
type = Corner;
},
{
name = _corner.arrow;
origin = (0,1);
type = Corner;
}
);
layerId = m002;
shapes = (
{
closed = 1;
nodes = (
(420,0,l),
(420,220,l),
(315,220,l),
(337,181,l),
(420,320,l),
(420,820,l),
(20,820,l),
(20,540,l),
(100,540,l),
(80,580,l),
(20,440,l),
(20,0,l)
);
}
);
width = 440;
},
{
anchors = (
{
name = bottom;
pos = (100,0);
},
{
name = ogonek;
pos = (160,20);
},
{
name = top;
pos = (100,820);
},
{
name = topleft;
pos = (20,820);
}
);
hints = (
{
name = _corner.arrow;
origin = (0,6);
type = Corner;
},
{
name = _corner.arrow;
origin = (0,5);
type = Corner;
},
{
name = _corner.arrow;
origin = (0,11);
type = Corner;
},
{
name = _corner.arrow;
origin = (0,0);
type = Corner;
},
{
name = _corner.arrow;
origin = (0,7);
type = Corner;
},
{
name = _corner.arrow;
origin = (0,1);
type = Corner;
}
);
layerId = "A70D3E7C-EDA6-440E-AC35-67945F302293";
shapes = (
{
closed = 1;
nodes = (
(160,0,l),
(160,160,l),
(100,160,l),
(100,120,l),
(160,220,l),
(160,820,l),
(20,820,l),
(20,660,l),
(80,660,l),
(80,700,l),
(20,600,l),
(20,0,l)
);
}
);
width = 180;
}
);
subCategory = special;
},
{
color = 1;
glyphname = N.comp;
lastChange = "2022-01-14 09:20:43 +0000";
layers = (
{
anchors = (
{
name = bottom;
pos = (460,0);
},
{
name = top;
pos = (460,830);
}
);
hints = (
{
name = _corner.arrow;
origin = (0,0);
type = Corner;
},
{
name = _corner.arrow;
origin = (0,6);
type = Corner;
},
{
name = _corner.arrow;
origin = (0,7);
type = Corner;
},
{
name = _corner.arrow;
origin = (0,8);
type = Corner;
},
{
name = _corner.arrow;
origin = (0,12);
type = Corner;
},
{
name = _corner.arrow;
origin = (0,13);
type = Corner;
},
{
name = _corner.arrow;
origin = (0,19);
type = Corner;
},
{
name = _corner.arrow;
origin = (0,20);
type = Corner;
},
{
name = _corner.arrow;
origin = (0,21);
type = Corner;
},
{
name = _corner.arrow;
origin = (0,25);
type = Corner;
}
);
layerId = m002;
shapes = (
{
closed = 1;
nodes = (
(380,0,l),
(380,138,l),
(240,499,l),
(240,560,l),
(280,560,l),
(440,150,l),
(440,0,l),
(880,0,l),
(880,270,l),
(795,270,l),
(826,227,l),
(880,390,l),
(880,830,l),
(540,830,l),
(540,652,l),
(660,351,l),
(660,290,l),
(620,290,l),
(480,640,l),
(480,830,l),
(20,830,l),
(20,560,l),
(100,560,l),
(80,600,l),
(20,460,l),
(20,0,l)
);
}
);
width = 902;
},
{
anchors = (
{
name = bottom;
pos = (200,0);
},
{
name = top;
pos = (200,820);
}
);
hints = (
{
name = _corner.arrow;
origin = (0,21);
type = Corner;
},
{
name = _corner.arrow;
origin = (0,20);
type = Corner;
},
{
name = _corner.arrow;
origin = (0,19);
type = Corner;
},
{
name = _corner.arrow;
origin = (0,13);
type = Corner;
},
{
name = _corner.arrow;
origin = (0,12);
type = Corner;
},
{
name = _corner.arrow;
origin = (0,7);
type = Corner;
},
{
name = _corner.arrow;
origin = (0,8);
type = Corner;
},
{
name = _corner.arrow;
origin = (0,6);
type = Corner;
},
{
name = _corner.arrow;
origin = (0,0);
type = Corner;
},
{
name = _corner.arrow;
origin = (0,25);
type = Corner;
}
);
layerId = "A70D3E7C-EDA6-440E-AC35-67945F302293";
shapes = (
{
closed = 1;
nodes = (
(140,0,l),
(140,140,l),
(100,540,l),
(100,620,l),
(120,620,l),
(180,160,l),
(180,0,l),
(360,0,l),
(360,240,l),
(300,240,l),
(300,180,l),
(360,280,l),
(360,820,l),
(240,820,l),
(240,680,l),
(280,340,l),
(280,240,l),
(260,240,l),
(200,660,l),
(200,820,l),
(20,820,l),
(20,620,l),
(80,620,l),
(80,700,l),
(20,540,l),
(20,0,l)
);
}
);
width = 380;
}
);
subCategory = special;
},
{
color = 1;
glyphname = O.comp;
lastChange = "2021-12-21 03:19:40 +0000";
layers = (
{
anchors = (
{
name = bottom;
pos = (360,0);
},
{
name = center;
pos = (360,440);
},
{
name = ogonek;
pos = (700,20);
},
{
name = top;
pos = (384,820);
},
{
name = topleft;
pos = (-40,860);
},
{
name = topright;
pos = (760,860);
}
);
hints = (
{
name = _corner.arrow;
origin = (0,4);
type = Corner;
},
{
name = _corner.arrow;
origin = (0,1);
type = Corner;
}
);
layerId = m002;
shapes = (
{
closed = 1;
nodes = (
(700,160,l),
(700,820,l),
(180,820,l),
(20,660,l),
(20,0,l),
(540,0,l)
);
},
{
closed = 1;
nodes = (
(340,570,l),
(360,490,l),
(480,490,l),
(480,250,l),
(380,250,l),
(360,330,l),
(240,330,l),
(240,570,l)
);
}
);
width = 720;
},
{
anchors = (
{
name = bottom;
pos = (140,0);
},
{
name = center;
pos = (140,440);
},
{
name = ogonek;
pos = (260,20);
},
{
name = top;
pos = (140,820);
},
{
name = topleft;
pos = (20,820);
},
{
name = topright;
pos = (260,820);
}
);
hints = (
{
name = _corner.arrow;
origin = (0,4);
type = Corner;
},
{
name = _corner.arrow;
origin = (0,1);
type = Corner;
}
);
layerId = "A70D3E7C-EDA6-440E-AC35-67945F302293";
shapes = (
{
closed = 1;
nodes = (
(260,60,l),
(260,820,l),
(80,820,l),
(20,760,l),
(20,0,l),
(200,0,l)
);
},
{
closed = 1;
nodes = (
(140,680,l),
(140,540,l),
(180,460,l),
(180,140,l),
(140,140,l),
(140,280,l),
(100,360,l),
(100,680,l)
);
}
);
width = 280;
}
);
subCategory = special;
},
{
color = 1;
glyphname = S.comp;
lastChange = "2022-01-14 09:20:53 +0000";
layers = (
{
anchors = (
{
name = bottom;
pos = (460,0);
},
{
name = top;
pos = (400,820);
}
);
hints = (
{
name = _corner.arrow;
origin = (0,17);
type = Corner;
},
{
name = _corner.arrow;
origin = (0,16);
type = Corner;
},
{
name = _corner.arrow;
origin = (0,15);
type = Corner;
},
{
name = _corner.arrow;
origin = (0,1);
type = Corner;
},
{
name = _corner.arrow;
origin = (0,0);
type = Corner;
},
{
name = _corner.arrow;
origin = (0,2);
type = Corner;
}
);
layerId = m002;
shapes = (
{
closed = 1;
nodes = (
(20,310,l),
(20,0,l),
(300,0,l),
(300,105,l),
(268,92,l),
(360,0,l),
(580,0,l),
(780,200,l),
(780,440,l),
(480,550,l),
(320,550,l),
(280,470,l),
(280,590,l),
(480,590,l),
(700,510,l),
(780,510,l),
(780,820,l),
(520,820,l),
(520,720,l),
(560,720,l),
(460,820,l),
(220,820,l),
(20,680,l),
(20,400,l),
(322,290,l),
(480,290,l),
(520,350,l),
(520,230,l),
(340,230,l),
(120,310,l)
);
}
);
width = 800;
},
{
anchors = (
{
name = bottom;
pos = (180,0);
},
{
name = top;
pos = (180,820);
}
);
hints = (
{
name = _corner.arrow;
origin = (0,17);
type = Corner;
},
{
name = _corner.arrow;
origin = (0,16);
type = Corner;
},
{
name = _corner.arrow;
origin = (0,15);
type = Corner;
},
{
name = _corner.arrow;
origin = (0,1);
type = Corner;
},
{
name = _corner.arrow;
origin = (0,0);
type = Corner;
},
{
name = _corner.arrow;
origin = (0,2);
type = Corner;
}
);
layerId = "A70D3E7C-EDA6-440E-AC35-67945F302293";
shapes = (
{
closed = 1;
nodes = (
(20,320,l),
(20,0,l),
(140,0,l),
(140,100,l),
(100,100,l),
(200,0,l),
(240,0,l),
(340,100,l),
(340,420,l),
(220,580,l),
(180,580,l),
(120,440,l),
(120,640,l),
(210,640,l),
(310,500,l),
(340,500,l),
(340,820,l),
(220,820,l),
(220,720,l),
(260,720,l),
(200,820,l),
(120,820,l),
(20,680,l),
(20,400,l),
(140,260,l),
(180,260,l),
(240,400,l),
(240,180,l),
(150,180,l),
(60,320,l)
);
}
);
width = 360;
}
);
subCategory = special;
},
{
color = 1;
glyphname = U.comp;
lastChange = "2022-01-13 05:54:19 +0000";
layers = (
{
anchors = (
{
name = bottom;
pos = (380,0);
},
{
name = ogonek;
pos = (548,20);
},
{
name = top;
pos = (380,820);
},
{
name = topright;
pos = (720,820);
}
);
hints = (
{
name = _corner.arrow;
origin = (0,6);
type = Corner;
},
{
name = _corner.arrow;
origin = (0,5);
type = Corner;
},
{
name = _corner.arrow;
origin = (0,4);
type = Corner;
},
{
name = _corner.arrow;
origin = (1,3);
type = Corner;
},
{
name = _corner.arrow;
origin = (1,2);
type = Corner;
},
{
name = _corner.arrow;
origin = (1,4);
type = Corner;
},
{
name = _corner.arrow;
origin = (0,10);
type = Corner;
}
);
layerId = m002;
shapes = (
{
closed = 1;
nodes = (
(460,0,l),
(460,240,l),
(280,240,l),
(340,340,l),
(340,820,l),
(20,820,l),
(20,540,l),
(100,540,l),
(80,580,l),
(20,440,l),
(20,0,l)
);
},
{
closed = 1;
nodes = (
(560,0,l),
(720,160,l),
(720,820,l),
(400,820,l),
(400,540,l),
(480,540,l),
(460,580,l),
(400,440,l),
(400,0,l)
);
}
);
width = 740;
},
{
anchors = (
{
name = bottom;
pos = (140,0);
},
{
name = ogonek;
pos = (260,20);
},
{
name = top;
pos = (140,860);
},
{
name = topright;
pos = (260,860);
}
);
hints = (
{
name = _corner.arrow;
origin = (0,6);
type = Corner;
},
{
name = _corner.arrow;
origin = (0,5);
type = Corner;
},
{
name = _corner.arrow;
origin = (0,4);
type = Corner;
},
{
name = _corner.arrow;
origin = (1,3);
type = Corner;
},
{
name = _corner.arrow;
origin = (1,2);
type = Corner;
},
{
name = _corner.arrow;
origin = (1,4);
type = Corner;
},
{
name = _corner.arrow;
origin = (0,10);
type = Corner;
}
);
layerId = "A70D3E7C-EDA6-440E-AC35-67945F302293";
shapes = (
{
closed = 1;
nodes = (
(180,0,l),
(180,180,l),
(100,180,l),
(120,260,l),
(120,820,l),
(20,820,l),
(20,620,l),
(100,620,l),
(80,660,l),
(20,540,l),
(20,0,l)
);
},
{
closed = 1;
nodes = (
(200,0,l),
(260,60,l),
(260,820,l),
(140,820,l),
(140,620,l),
(240,620,l),
(200,700,l),
(160,540,l),
(160,0,l)
);
}
);
width = 280;
}
);
subCategory = special;
},
{
color = 1;
glyphname = W.comp;
lastChange = "2021-12-21 03:36:48 +0000";
layers = (
{
anchors = (
{
name = bottom;
pos = (520,0);
},
{
name = top;
pos = (520,820);
}
);
hints = (
{
name = _corner.arrow;
origin = (0,7);
type = Corner;
},
{
name = _corner.arrow;
origin = (0,8);
type = Corner;
},
{
name = _corner.arrow;
origin = (0,15);
type = Corner;
},
{
name = _corner.arrow;
origin = (0,16);
type = Corner;
},
{
name = _corner.arrow;
origin = (1,6);
type = Corner;
},
{
name = _corner.arrow;
origin = (1,7);
type = Corner;
}
);
layerId = m002;
shapes = (
{
closed = 1;
nodes = (
(340,540,l),
(400,440,l),
(400,260,l),
(480,200,l),
(600,0,l),
(780,0,l),
(1000,280,l),
(1000,820,l),
(680,820,l),
(680,680,l),
(720,540,l),
(720,280,l),
(660,280,l),
(660,360,l),
(620,660,l),
(620,820,l),
(340,820,l)
);
},
{
closed = 1;
nodes = (
(20,280,l),
(240,0,l),
(440,0,l),
(640,280,l),
(380,280,l),
(280,420,l),
(280,820,l),
(20,820,l)
);
}
);
width = 1020;
},
{
anchors = (
{
name = bottom;
pos = (520,0);
},
{
name = top;
pos = (240,820);
}
);
hints = (
{
name = _corner.arrow;
origin = (0,7);
type = Corner;
},
{
name = _corner.arrow;
origin = (0,8);
type = Corner;
},
{
name = _corner.arrow;
origin = (0,15);
type = Corner;
},
{
name = _corner.arrow;
origin = (0,16);
type = Corner;
},
{
name = _corner.arrow;
origin = (1,6);
type = Corner;
},
{
name = _corner.arrow;
origin = (1,7);
type = Corner;
}
);
layerId = "A70D3E7C-EDA6-440E-AC35-67945F302293";
shapes = (
{
closed = 1;
nodes = (
(160,400,l),
(220,280,l),
(220,160,l),
(240,120,l),
(280,0,l),
(340,0,l),
(440,140,l),
(440,820,l),
(300,820,l),
(300,540,l),
(340,440,l),
(340,180,l),
(300,180,l),
(300,360,l),
(260,440,l),
(260,820,l),
(160,820,l)
);
},
{
closed = 1;
nodes = (
(20,140,l),
(120,0,l),
(200,0,l),
(280,180,l),
(200,180,l),
(120,320,l),
(120,820,l),
(20,820,l)
);
}
);
width = 460;
}
);
subCategory = special;
},
{
color = 1;
glyphname = Y.comp;
lastChange = "2022-01-13 05:57:21 +0000";
layers = (
{
anchors = (
{
name = bottom;
pos = (360,0);
},
{
name = top;
pos = (350,820);
},
{
name = topleft;
pos = (20,820);
}
);
hints = (
{
name = _corner.arrow;
origin = (0,24);
type = Corner;
},
{
name = _corner.arrow;
origin = (0,9);
type = Corner;
},
{
name = _corner.arrow;
origin = (0,3);
type = Corner;
},
{
name = _corner.arrow;
origin = (0,4);
type = Corner;
}
);
layerId = m002;
shapes = (
{
closed = 1;
nodes = (
(120,260,l),
(200,260,l),
(80,140,l),
(80,0,l),
(620,0,l),
(620,140,l),
(500,260,l),
(580,260,l),
(680,360,l),
(680,820,l),
(440,820,ls),
(422,820,o),
(418,812,o),
(413,795,cs),
(380,680,l),
(380,540,l),
(440,460,l),
(260,460,l),
(320,540,l),
(320,680,l),
(287,795,ls),
(282,812,o),
(278,820,o),
(260,820,cs),
(20,820,l),
(20,360,l)
);
}
);
width = 700;
},
{
anchors = (
{
name = bottom;
pos = (140,0);
},
{
name = top;
pos = (140,860);
},
{
name = topleft;
pos = (20,860);
}
);
hints = (
{
name = _corner.arrow;
origin = (0,3);
type = Corner;
},
{
name = _corner.arrow;
origin = (0,4);
type = Corner;
},
{
name = _corner.arrow;
origin = (0,9);
type = Corner;
},
{
name = _corner.arrow;
origin = (0,24);
type = Corner;
}
);
layerId = "A70D3E7C-EDA6-440E-AC35-67945F302293";
shapes = (
{
closed = 1;
nodes = (
(90,270,l),
(90,240,l),
(60,170,l),
(60,0,l),
(220,0,l),
(220,170,l),
(190,240,l),
(190,270,l),
(260,360,l),
(260,820,l),
(190,820,ls),
(185,820,o),
(180,816,o),
(177,806,cs),
(160,740,l),
(160,520,l),
(180,420,l),
(100,420,l),
(120,520,l),
(120,740,l),
(103,806,ls),
(100,816,o),
(95,820,o),
(90,820,cs),
(20,820,l),
(20,360,l)
);
}
);
width = 280;
}
);
subCategory = special;
},
{
color = 1;
glyphname = Z.comp;
lastChange = "2022-01-14 09:21:03 +0000";
layers = (
{
anchors = (
{
name = bottom;
pos = (400,0);
},
{
name = center;
pos = (400,440);
},
{
name = top;
pos = (400,820);
}
);
hints = (
{
name = _corner.arrow;
origin = (0,25);
type = Corner;
},
{
name = _corner.arrow;
origin = (0,0);
type = Corner;
},
{
name = _corner.arrow;
origin = (0,13);
type = Corner;
},
{
name = _corner.arrow;
origin = (0,12);
type = Corner;
},
{
name = _corner.arrow;
origin = (0,5);
type = Corner;
},
{
name = _corner.arrow;
origin = (0,4);
type = Corner;
},
{
name = _corner.arrow;
origin = (0,18);
type = Corner;
},
{
name = _corner.arrow;
origin = (0,17);
type = Corner;
}
);
layerId = m002;
shapes = (
{
closed = 1;
nodes = (
(260,0,l),
(260,85,l),
(220,60,l),
(340,0,l),
(780,0,l),
(780,250,l),
(640,250,l),
(640,250,l),
(280,250,l),
(280,300,l),
(640,300,l),
(780,440,l),
(780,820,l),
(540,820,l),
(540,740,l),
(580,760,l),
(460,820,l),
(20,820,l),
(20,570,l),
(160,570,l),
(160,570,l),
(540,570,l),
(540,520,l),
(160,520,l),
(20,380,l),
(20,0,l)
);
}
);
width = 800;
},
{
anchors = (
{
name = bottom;
pos = (180,0);
},
{
name = center;
pos = (180,440);
},
{
name = top;
pos = (180,820);
}
);
hints = (
{
name = _corner.arrow;
origin = (0,25);
type = Corner;
},
{
name = _corner.arrow;
origin = (0,0);
type = Corner;
},
{
name = _corner.arrow;
origin = (0,13);
type = Corner;
},
{
name = _corner.arrow;
origin = (0,12);
type = Corner;
},
{
name = _corner.arrow;
origin = (0,5);
type = Corner;
},
{
name = _corner.arrow;
origin = (0,4);
type = Corner;
},
{
name = _corner.arrow;
origin = (0,18);
type = Corner;
},
{
name = _corner.arrow;
origin = (0,17);
type = Corner;
}
);
layerId = "A70D3E7C-EDA6-440E-AC35-67945F302293";
shapes = (
{
closed = 1;
nodes = (
(140,0,l),
(140,80,l),
(100,60,l),
(200,0,l),
(300,0,l),
(300,390,l),
(260,390,l),
(160,170,l),
(140,170,l),
(140,250,l),
(160,250,l),
(320,590,l),
(320,820,l),
(200,820,l),
(200,740,l),
(240,760,l),
(140,820,l),
(40,820,l),
(40,430,l),
(80,430,l),
(160,630,l),
(220,630,l),
(220,570,l),
(180,570,l),
(20,230,l),
(20,0,l)
);
}
);
width = 340;
}
);
subCategory = special;
},
{
color = 8;
glyphname = a;
lastChange = "2021-12-20 09:20:25 +0000";
layers = (
{
anchors = (
{
name = bottom;
pos = (360,0);
},
{
name = ogonek;
pos = (680,0);
},
{
name = top;
pos = (360,720);
}
);
hints = (
{
name = _corner.arrow;
origin = (0,14);
type = Corner;
},
{
name = _corner.arrow;
origin = (0,13);
type = Corner;
},
{
name = _corner.arrow;
origin = (0,19);
type = Corner;
},
{
name = _corner.arrow;
origin = (0,3);
type = Corner;
},
{
name = _corner.arrow;
origin = (0,2);
type = Corner;
},
{
name = _corner.arrow;
origin = (0,4);
type = Corner;
}
);
layerId = m002;
shapes = (
{
closed = 1;
nodes = (
(360,0,l),
(440,80,l),
(440,0,l),
(680,0,l),
(680,220,l),
(620,220,l),
(680,300,l),
(680,600,l),
(560,720,l),
(320,720,l),
(260,660,l),
(300,660,l),
(240,720,l),
(20,720,l),
(20,480,l),
(300,480,l),
(260,440,l),
(160,440,l),
(20,320,l),
(20,0,l)
);
},
{
closed = 1;
nodes = (
(260,300,l),
(320,360,l),
(440,360,l),
(440,300,l),
(360,300,l),
(300,240,l),
(260,240,l)
);
}
);
width = 700;
},
{
associatedMasterId = m002;
layerId = "ACCD30F6-79E0-40CF-95AF-B9C370268BA8";
name = "4 Dec 21, 04:31";
shapes = (
{
closed = 1;
nodes = (
(480,427,l),
(480,246,l),
(233,246,l)
);
},
{
closed = 1;
nodes = (
(567,711,l),
(340,711,l),
(163,480,l),
(245,630,l),
(245,711,l),
(10,711,l),
(10,427,l),
(221,427,l),
(364,484,l),
(10,238,l),
(10,0,l),
(322,0,l),
(480,243,l),
(480,0,l),
(715,0,l),
(715,361,l),
(509,511,l),
(715,511,l)
);
}
);
width = 725;
},
{
anchors = (
{
name = bottom;
pos = (160,0);
},
{
name = ogonek;
pos = (280,0);
},
{
name = top;
pos = (160,720);
}
);
hints = (
{
name = _corner.arrow;
origin = (0,2);
type = Corner;
},
{
name = _corner.arrow;
origin = (0,3);
type = Corner;
},
{
name = _corner.arrow;
origin = (0,4);
type = Corner;
},
{
name = _corner.arrow;
origin = (0,13);
type = Corner;
},
{
name = _corner.arrow;
origin = (0,14);
type = Corner;
},
{
name = _corner.arrow;
origin = (0,19);
type = Corner;
}
);
layerId = "A70D3E7C-EDA6-440E-AC35-67945F302293";
shapes = (
{
closed = 1;
nodes = (
(140,0,l),
(180,140,l),
(180,0,l),
(280,0,l),
(280,180,l),
(240,180,l),
(280,240,l),
(280,660,l),
(220,720,l),
(180,720,l),
(120,660,l),
(160,660,l),
(100,720,l),
(20,720,l),
(20,540,l),
(160,540,l),
(120,500,l),
(60,500,l),
(20,460,l),
(20,0,l)
);
},
{
closed = 1;
nodes = (
(120,380,l),
(160,440,l),
(180,440,l),
(180,300,l),
(160,300,l),
(120,180,l),
(120,180,l)
);
}
);
width = 300;
},
{
associatedMasterId = "A70D3E7C-EDA6-440E-AC35-67945F302293";
layerId = "539FAD73-93F0-476E-B2F1-87C5269095DB";
name = "4 Dec 21, 04:31";
shapes = (
{
closed = 1;
nodes = (
(480,427,l),
(480,246,l),
(233,246,l)
);
},
{
closed = 1;
nodes = (
(567,711,l),
(340,711,l),
(163,480,l),
(245,630,l),
(245,711,l),
(10,711,l),
(10,427,l),
(221,427,l),
(364,484,l),
(10,238,l),
(10,0,l),
(322,0,l),
(480,243,l),
(480,0,l),
(715,0,l),
(715,361,l),
(509,511,l),
(715,511,l)
);
}
);
width = 725;
}
);
unicode = 97;
},
{
color = 8;
glyphname = b;
lastChange = "2021-12-20 09:20:25 +0000";
layers = (
{
anchors = (
{
name = bottom;
pos = (360,0);
},
{
name = center;
pos = (360,360);
},
{
name = top;
pos = (360,720);
}
);
hints = (
{
name = _corner.arrow;
origin = (0,15);
type = Corner;
},
{
name = _corner.arrow;
origin = (0,0);
type = Corner;
},
{
name = _corner.arrow;
origin = (0,4);
type = Corner;
},
{
name = _corner.arrow;
origin = (0,9);
type = Corner;
},
{
name = _corner.arrow;
origin = (0,10);
type = Corner;
},
{
name = _corner.arrow;
origin = (0,11);
type = Corner;
}
);
layerId = m002;
shapes = (
{
closed = 1;
nodes = (
(280,0,l),
(280,85,l),
(243,65,l),
(340,0,l),
(680,0,l),
(680,600,l),
(560,720,l),
(360,720,l),
(280,640,l),
(280,860,l),
(20,860,l),
(20,580,l),
(100,580,l),
(80,620,l),
(20,500,l),
(20,0,l)
);
},
{
closed = 1;
nodes = (
(280,380,l),
(400,500,l),
(420,500,l),
(420,220,l),
(280,220,l)
);
}
);
width = 700;
},
{
anchors = (
{
name = bottom;
pos = (140,0);
},
{
name = center;
pos = (140,360);
},
{
name = top;
pos = (140,720);
}
);
hints = (
{
name = _corner.arrow;
origin = (0,15);
type = Corner;
},
{
name = _corner.arrow;
origin = (0,0);
type = Corner;
},
{
name = _corner.arrow;
origin = (0,4);
type = Corner;
},
{
name = _corner.arrow;
origin = (0,9);
type = Corner;
},
{
name = _corner.arrow;
origin = (0,10);
type = Corner;
},
{
name = _corner.arrow;
origin = (0,11);
type = Corner;
}
);
layerId = "A70D3E7C-EDA6-440E-AC35-67945F302293";
shapes = (
{
closed = 1;
nodes = (
(120,0,l),
(120,140,l),
(80,140,l),
(180,0,l),
(260,0,l),
(260,660,l),
(200,720,l),
(160,720,l),
(120,660,l),
(120,860,l),
(20,860,l),
(20,660,l),
(80,660,l),
(80,700,l),
(20,580,l),
(20,0,l)
);
},
{
closed = 1;
nodes = (
(120,440,l),
(140,540,l),
(160,540,l),
(160,180,l),
(120,180,l)
);
}
);
width = 280;
}
);
unicode = 98;
},
{
color = 8;
glyphname = c;
lastChange = "2022-01-13 03:03:27 +0000";
layers = (
{
anchors = (
{
name = bottom;
pos = (360,0);
},
{
name = top;
pos = (360,720);
}
);
hints = (
{
name = _corner.arrow;
origin = (3,7);
type = Corner;
},
{
name = _corner.arrow;
origin = (0,10);
type = Corner;
},
{
name = _corner.arrow;
origin = (0,11);
type = Corner;
},
{
name = _corner.arrow;
origin = (0,12);
type = Corner;
},
{
name = _corner.arrow;
origin = (0,3);
type = Corner;
},
{
name = _corner.arrow;
origin = (0,4);
type = Corner;
},
{
name = _corner.arrow;
origin = (0,5);
type = Corner;
}
);
layerId = m002;
shapes = (
{
closed = 1;
nodes = (
(340,0,l),
(440,60,l),
(400,85,l),
(400,0,l),
(660,0,l),
(660,260,l),
(320,260,l),
(320,460,l),
(340,460,l),
(500,360,l),
(660,360,l),
(660,720,l),
(440,720,l),
(440,635,l),
(480,660,l),
(380,720,l),
(140,720,l),
(20,600,l),
(20,120,l),
(140,0,l)
);
}
);
width = 680;
},
{
anchors = (
{
name = bottom;
pos = (140,0);
},
{
name = top;
pos = (140,720);
}
);
hints = (
{
name = _corner.arrow;
origin = (3,7);
type = Corner;
},
{
name = _corner.arrow;
origin = (0,10);
type = Corner;
},
{
name = _corner.arrow;
origin = (0,11);
type = Corner;
},
{
name = _corner.arrow;
origin = (0,12);
type = Corner;
},
{
name = _corner.arrow;
origin = (0,3);
type = Corner;
},
{
name = _corner.arrow;
origin = (0,4);
type = Corner;
},
{
name = _corner.arrow;
origin = (0,5);
type = Corner;
}
);
layerId = "A70D3E7C-EDA6-440E-AC35-67945F302293";
shapes = (
{
closed = 1;
nodes = (
(120,0,l),
(190,60,l),
(150,80,l),
(150,0,l),
(230,0,l),
(230,180,l),
(120,180,l),
(120,540,l),
(140,540,l),
(180,380,l),
(230,380,l),
(230,720,l),
(150,720,l),
(150,640,l),
(190,660,l),
(120,720,l),
(80,720,l),
(20,660,l),
(20,60,l),
(80,0,l)
);
}
);
width = 250;
}
);
unicode = 99;
},
{
color = 8;
glyphname = d;
lastChange = "2021-12-20 09:20:25 +0000";
layers = (
{
anchors = (
{
name = bottom;
pos = (360,0);
},
{
name = center;
pos = (360,360);
},
{
name = top;
pos = (360,860);
},
{
name = topright;
pos = (680,860);
}
);
hints = (
{
name = _corner.arrow;
origin = (0,10);
type = Corner;
},
{
name = _corner.arrow;
origin = (0,11);
type = Corner;
},
{
name = _corner.arrow;
origin = (0,5);
type = Corner;
},
{
name = _corner.arrow;
origin = (0,4);
type = Corner;
},
{
name = _corner.arrow;
origin = (0,6);
type = Corner;
},
{
name = _corner.arrow;
origin = (0,1);
type = Corner;
}
);
layerId = m002;
shapes = (
{
closed = 1;
nodes = (
(20,600,l),
(20,0,l),
(340,0,l),
(420,80,l),
(420,0,l),
(680,0,l),
(680,300,l),
(595,300,l),
(620,260,l),
(680,380,l),
(680,860,l),
(420,860,l),
(420,680,l),
(360,720,l),
(140,720,l)
);
},
{
closed = 1;
nodes = (
(420,340,l),
(300,220,l),
(280,220,l),
(280,500,l),
(420,500,l)
);
}
);
width = 700;
},
{
anchors = (
{
name = bottom;
pos = (140,0);
},
{
name = center;
pos = (140,360);
},
{
name = top;
pos = (140,920);
},
{
name = topright;
pos = (260,920);
}
);
hints = (
{
name = _corner.arrow;
origin = (0,10);
type = Corner;
},
{
name = _corner.arrow;
origin = (0,11);
type = Corner;
},
{
name = _corner.arrow;
origin = (0,5);
type = Corner;
},
{
name = _corner.arrow;
origin = (0,4);
type = Corner;
},
{
name = _corner.arrow;
origin = (0,6);
type = Corner;
},
{
name = _corner.arrow;
origin = (0,1);
type = Corner;
}
);
layerId = "A70D3E7C-EDA6-440E-AC35-67945F302293";
shapes = (
{
closed = 1;
nodes = (
(20,660,l),
(20,0,l),
(100,0,l),
(160,160,l),
(160,0,l),
(260,0,l),
(260,240,l),
(200,240,l),
(200,200,l),
(260,320,l),
(260,860,l),
(160,860,l),
(160,680,l),
(120,720,l),
(80,720,l)
);
},
{
closed = 1;
nodes = (
(160,280,l),
(140,220,l),
(120,220,l),
(120,540,l),
(160,540,l)
);
}
);
width = 280;
}
);
unicode = 100;
},
{
color = 0;
glyphname = e;
lastChange = "2022-01-13 02:22:23 +0000";
layers = (
{
anchors = (
{
name = bottom;
pos = (360,0);
},
{
name = ogonek;
pos = (640,20);
},
{
name = top;
pos = (360,720);
}
);
hints = (
{
name = _corner.arrow;
origin = (0,5);
type = Corner;
},
{
name = _corner.arrow;
origin = (0,10);
type = Corner;
},
{
name = _corner.arrow;
origin = (0,11);
type = Corner;
}
);
layerId = m002;
shapes = (
{
closed = 1;
nodes = (
(420,440,l),
(280,390,l),
(280,300,l),
(480,300,l),
(680,370,l),
(680,720,l),
(160,720,l),
(20,580,l),
(20,100,l),
(160,0,l),
(680,0,l),
(680,260,l),
(280,260,l),
(280,500,l),
(420,500,l)
);
}
);
width = 700;
},
{
anchors = (
{
name = bottom;
pos = (140,0);
},
{
name = ogonek;
pos = (260,20);
},
{
name = top;
pos = (140,720);
}
);
hints = (
{
name = _corner.arrow;
origin = (0,5);
type = Corner;
},
{
name = _corner.arrow;
origin = (0,10);
type = Corner;
},
{
name = _corner.arrow;
origin = (0,11);
type = Corner;
}
);
layerId = "A70D3E7C-EDA6-440E-AC35-67945F302293";
shapes = (
{
closed = 1;
nodes = (
(160,440,l),
(80,320,l),
(80,220,l),
(120,220,l),
(260,400,l),
(260,720,l),
(100,720,l),
(20,660,l),
(20,60,l),
(100,0,l),
(260,0,l),
(260,180,l),
(120,180,l),
(120,580,l),
(160,580,l)
);
}
);
width = 280;
}
);
unicode = 101;
},
{
color = 8;
glyphname = f;
lastChange = "2022-01-13 02:16:18 +0000";
layers = (
{
anchors = (
{
name = bottom;
pos = (320,0);
},
{
name = top;
pos = (320,920);
}
);
hints = (
{
name = _corner.arrow;
origin = (0,10);
type = Corner;
},
{
name = _corner.arrow;
origin = (0,9);
type = Corner;
},
{
name = _corner.arrow;
origin = (0,0);
type = Corner;
},
{
name = _corner.arrow;
origin = (0,13);
type = Corner;
},
{
name = _corner.arrow;
origin = (0,5);
type = Corner;
},
{
name = _corner.arrow;
origin = (0,6);
type = Corner;
}
);
layerId = m002;
shapes = (
{
closed = 1;
nodes = (
(320,0,l),
(320,200,l),
(280,280,l),
(280,400,l),
(158,320,l),
(550,320,l),
(550,570,l),
(320,570,l),
(280,630,l),
(570,630,l),
(570,860,l),
(240,860,l),
(20,560,l),
(20,0,l)
);
}
);
width = 590;
},
{
anchors = (
{
name = bottom;
pos = (100,0);
},
{
name = top;
pos = (100,920);
}
);
hints = (
{
name = _corner.arrow;
origin = (0,10);
type = Corner;
},
{
name = _corner.arrow;
origin = (0,9);
type = Corner;
},
{
name = _corner.arrow;
origin = (0,0);
type = Corner;
},
{
name = _corner.arrow;
origin = (0,13);
type = Corner;
},
{
name = _corner.arrow;
origin = (0,5);
type = Corner;
},
{
name = _corner.arrow;
origin = (0,6);
type = Corner;
}
);
layerId = "A70D3E7C-EDA6-440E-AC35-67945F302293";
shapes = (
{
closed = 1;
nodes = (
(120,0,l),
(120,260,l),
(100,340,l),
(100,460,l),
(140,360,l),
(180,360,l),
(180,600,l),
(140,600,l),
(100,660,l),
(180,660,l),
(180,860,l),
(120,860,l),
(20,660,l),
(20,0,l)
);
}
);
width = 200;
}
);
unicode = 102;
},
{
color = 8;
glyphname = g;
lastChange = "2021-12-20 09:20:25 +0000";
layers = (
{
anchors = (
{
name = bottom;
pos = (360,-180);
},
{
name = top;
pos = (360,720);
}
);
hints = (
{
name = _corner.arrow;
origin = (0,9);
type = Corner;
},
{
name = _corner.arrow;
origin = (0,13);
type = Corner;
},
{
name = _corner.arrow;
origin = (0,14);
type = Corner;
},
{
name = _corner.arrow;
origin = (0,2);
type = Corner;
},
{
name = _corner.arrow;
origin = (0,3);
type = Corner;
}
);
layerId = m002;
shapes = (
{
closed = 1;
nodes = (
(500,-180,l),
(680,0,l),
(680,720,l),
(460,720,l),
(460,595,l),
(487,604,l),
(400,720,l),
(160,720,l),
(20,580,l),
(20,80,l),
(400,80,l),
(460,160,l),
(460,40,l),
(20,40,l),
(20,-180,l)
);
},
{
closed = 1;
nodes = (
(240,500,l),
(380,500,l),
(460,420,l),
(460,380,l),
(340,380,l),
(280,300,l),
(240,300,l)
);
}
);
width = 700;
},
{
anchors = (
{
name = bottom;
pos = (160,-180);
},
{
name = top;
pos = (160,720);
}
);
hints = (
{
name = _corner.arrow;
origin = (0,2);
type = Corner;
},
{
name = _corner.arrow;
origin = (0,3);
type = Corner;
},
{
name = _corner.arrow;
origin = (0,9);
type = Corner;
},
{
name = _corner.arrow;
origin = (0,13);
type = Corner;
},
{
name = _corner.arrow;
origin = (0,14);
type = Corner;
}
);
layerId = "A70D3E7C-EDA6-440E-AC35-67945F302293";
shapes = (
{
closed = 1;
nodes = (
(160,-180,l),
(260,-80,l),
(260,720,l),
(180,720,l),
(180,640,l),
(220,640,l),
(140,720,l),
(100,720,l),
(20,640,l),
(20,0,l),
(140,0,l),
(180,60,l),
(180,-40,l),
(20,-40,l),
(20,-180,l)
);
},
{
closed = 1;
nodes = (
(120,580,l),
(140,580,l),
(160,540,l),
(160,220,l),
(160,220,l),
(140,120,l),
(120,120,l)
);
}
);
width = 280;
}
);
unicode = 103;
},
{
color = 8;
glyphname = h;
lastChange = "2021-12-20 09:20:25 +0000";
layers = (
{
anchors = (
{
name = bottom;
pos = (360,0);
},
{
name = center;
pos = (360,460);
},
{
name = top;
pos = (360,920);
}
);
hints = (
{
name = _corner.arrow;
origin = (0,12);
type = Corner;
},
{
name = _corner.arrow;
origin = (0,11);
type = Corner;
},
{
name = _corner.arrow;
origin = (0,10);
type = Corner;
},
{
name = _corner.arrow;
origin = (0,2);
type = Corner;
},
{
name = _corner.arrow;
origin = (0,1);
type = Corner;
},
{
name = _corner.arrow;
origin = (0,0);
type = Corner;
},
{
name = _corner.arrow;
origin = (0,17);
type = Corner;
},
{
name = _corner.arrow;
origin = (0,18);
type = Corner;
},
{
name = _corner.arrow;
origin = (0,16);
type = Corner;
}
);
layerId = m002;
shapes = (
{
closed = 1;
nodes = (
(380,0,l),
(680,0,l),
(680,220,l),
(600,220,l),
(620,180,l),
(680,320,l),
(680,600,l),
(560,720,l),
(360,720,l),
(280,640,l),
(280,860,l),
(20,860,l),
(20,580,l),
(100,580,l),
(80,620,l),
(20,500,l),
(20,0,l),
(320,0,l),
(320,220,l),
(240,220,l),
(260,180,l),
(320,320,l),
(320,420,l),
(380,420,l)
);
}
);
width = 700;
},
{
anchors = (
{
name = bottom;
pos = (140,0);
},
{
name = center;
pos = (140,460);
},
{
name = top;
pos = (140,920);
}
);
hints = (
{
name = _corner.arrow;
origin = (0,12);
type = Corner;
},
{
name = _corner.arrow;
origin = (0,11);
type = Corner;
},
{
name = _corner.arrow;
origin = (0,10);
type = Corner;
},
{
name = _corner.arrow;
origin = (0,2);
type = Corner;
},
{
name = _corner.arrow;
origin = (0,1);
type = Corner;
},
{
name = _corner.arrow;
origin = (0,0);
type = Corner;
},
{
name = _corner.arrow;
origin = (0,17);
type = Corner;
},
{
name = _corner.arrow;
origin = (0,18);
type = Corner;
},
{
name = _corner.arrow;
origin = (0,16);
type = Corner;
}
);
layerId = "A70D3E7C-EDA6-440E-AC35-67945F302293";
shapes = (
{
closed = 1;
nodes = (
(160,0,l),
(260,0,l),
(260,180,l),
(180,180,l),
(220,140,l),
(260,280,l),
(260,620,l),
(220,700,l),
(140,700,l),
(120,680,l),
(120,860,l),
(20,860,l),
(20,640,l),
(80,640,l),
(60,700,l),
(20,560,l),
(20,0,l),
(120,0,l),
(120,180,l),
(40,180,l),
(80,140,l),
(120,280,l),
(120,540,l),
(160,540,l)
);
}
);
width = 280;
}
);
unicode = 104;
},
{
color = 8;
glyphname = i;
lastChange = "2021-12-20 09:20:25 +0000";
layers = (
{
anchors = (
{
name = bottom;
pos = (200,0);
}
);
hints = (
{
name = _corner.arrow;
origin = (0,6);
type = Corner;
},
{
name = _corner.arrow;
origin = (0,7);
type = Corner;
},
{
name = _corner.arrow;
origin = (0,1);
type = Corner;
},
{
name = _corner.arrow;
origin = (0,0);
type = Corner;
},
{
name = _corner.arrow;
origin = (0,11);
type = Corner;
},
{
name = _corner.arrow;
origin = (0,5);
type = Corner;
},
{
name = _corner.arrow;
origin = (1,0);
type = Corner;
},
{
name = _corner.arrow;
origin = (1,1);
type = Corner;
},
{
name = _corner.arrow;
origin = (1,2);
type = Corner;
},
{
name = _corner.arrow;
origin = (1,3);
type = Corner;
}
);
layerId = m002;
shapes = (
{
closed = 1;
nodes = (
(360,0,l),
(360,220,l),
(275,220,l),
(300,180,l),
(360,300,l),
(360,720,l),
(20,720,l),
(20,520,l),
(105,520,l),
(80,560,l),
(20,440,l),
(20,0,l)
);
},
{
closed = 1;
nodes = (
(360,760,l),
(360,920,l),
(20,920,l),
(20,760,l)
);
}
);
width = 380;
},
{
anchors = (
{
name = bottom;
pos = (80,0);
}
);
hints = (
{
name = _corner.arrow;
origin = (0,0);
type = Corner;
},
{
name = _corner.arrow;
origin = (0,1);
type = Corner;
},
{
name = _corner.arrow;
origin = (0,5);
type = Corner;
},
{
name = _corner.arrow;
origin = (0,6);
type = Corner;
},
{
name = _corner.arrow;
origin = (0,7);
type = Corner;
},
{
name = _corner.arrow;
origin = (0,11);
type = Corner;
},
{
name = _corner.arrow;
origin = (1,0);
type = Corner;
},
{
name = _corner.arrow;
origin = (1,1);
type = Corner;
},
{
name = _corner.arrow;
origin = (1,2);
type = Corner;
},
{
name = _corner.arrow;
origin = (1,3);
type = Corner;
}
);
layerId = "A70D3E7C-EDA6-440E-AC35-67945F302293";
shapes = (
{
closed = 1;
nodes = (
(120,0,l),
(120,180,l),
(60,180,l),
(80,140,l),
(120,260,l),
(120,720,l),
(20,720,l),
(20,520,l),
(80,520,l),
(60,560,l),
(20,440,l),
(20,0,l)
);
},
{
closed = 1;
nodes = (
(120,760,l),
(120,880,l),
(20,880,l),
(20,760,l)
);
}
);
width = 140;
}
);
unicode = 105;
},
{
color = 0;
glyphname = j;
lastChange = "2022-01-13 02:20:23 +0000";
layers = (
{
background = {
hints = (
{
name = _corner.arrow;
origin = (0,0);
type = Corner;
},
{
name = _corner.arrow;
origin = (0,1);
type = Corner;
},
{
name = _corner.arrow;
origin = (0,2);
type = Corner;
},
{
name = _corner.arrow;
origin = (0,3);
type = Corner;
},
{
name = _corner.arrow;
origin = (1,0);
type = Corner;
},
{
name = _corner.arrow;
origin = (1,1);
type = Corner;
},
{
name = _corner.arrow;
origin = (1,2);
type = Corner;
},
{
name = _corner.arrow;
origin = (1,3);
type = Corner;
}
);
shapes = (
{
closed = 1;
nodes = (
(25,0,l),
(260,0,l),
(260,592,l),
(25,592,l)
);
},
{
closed = 1;
nodes = (
(25,642,l),
(260,642,l),
(260,820,l),
(25,820,l)
);
}
);
};
hints = (
{
name = _corner.arrow;
origin = (1,2);
type = Corner;
},
{
name = _corner.arrow;
origin = (1,1);
type = Corner;
},
{
name = _corner.arrow;
origin = (1,0);
type = Corner;
},
{
name = _corner.arrow;
origin = (1,3);
type = Corner;
},
{
name = _corner.arrow;
origin = (0,3);
type = Corner;
},
{
name = _corner.arrow;
origin = (0,2);
type = Corner;
},
{
name = _corner.arrow;
origin = (0,4);
type = Corner;
},
{
name = _corner.arrow;
origin = (0,8);
type = Corner;
},
{
name = _corner.arrow;
origin = (0,0);
type = Corner;
}
);
layerId = m002;
shapes = (
{
closed = 1;
nodes = (
(290,-180,l),
(360,220,l),
(360,720,l),
(20,720,l),
(20,520,l),
(100,520,l),
(80,560,l),
(20,440,l),
(20,-180,l)
);
},
{
closed = 1;
nodes = (
(360,760,l),
(360,920,l),
(20,920,l),
(20,760,l)
);
}
);
width = 380;
},
{
background = {
hints = (
{
name = _corner.arrow;
origin = (0,0);
type = Corner;
},
{
name = _corner.arrow;
origin = (0,1);
type = Corner;
},
{
name = _corner.arrow;
origin = (0,2);
type = Corner;
},
{
name = _corner.arrow;
origin = (0,3);
type = Corner;
},
{
name = _corner.arrow;
origin = (1,0);
type = Corner;
},
{
name = _corner.arrow;
origin = (1,1);
type = Corner;
},
{
name = _corner.arrow;
origin = (1,2);
type = Corner;
},
{
name = _corner.arrow;
origin = (1,3);
type = Corner;
}
);
shapes = (
{
closed = 1;
nodes = (
(25,0,l),
(260,0,l),
(260,592,l),
(25,592,l)
);
},
{
closed = 1;
nodes = (
(25,642,l),
(260,642,l),
(260,820,l),
(25,820,l)
);
}
);
};
hints = (
{
name = _corner.arrow;
origin = (1,2);
type = Corner;
},
{
name = _corner.arrow;
origin = (1,1);
type = Corner;
},
{
name = _corner.arrow;
origin = (1,0);
type = Corner;
},
{
name = _corner.arrow;
origin = (1,3);
type = Corner;
},
{
name = _corner.arrow;
origin = (0,3);
type = Corner;
},
{
name = _corner.arrow;
origin = (0,2);
type = Corner;
},
{
name = _corner.arrow;
origin = (0,4);
type = Corner;
},
{
name = _corner.arrow;
origin = (0,8);
type = Corner;
},
{
name = _corner.arrow;
origin = (0,0);
type = Corner;
}
);
layerId = "A70D3E7C-EDA6-440E-AC35-67945F302293";
shapes = (
{
closed = 1;
nodes = (
(80,-180,l),
(120,160,l),
(120,720,l),
(20,720,l),
(20,520,l),
(80,520,l),
(60,560,l),
(20,440,l),
(20,-180,l)
);
},
{
closed = 1;
nodes = (
(120,760,l),
(120,880,l),
(20,880,l),
(20,760,l)
);
}
);
width = 140;
}
);
unicode = 106;
},
{
color = 8;
glyphname = k;
lastChange = "2021-12-28 20:49:48 +0000";
layers = (
{
anchors = (
{
name = bottom;
pos = (360,0);
},
{
name = top;
pos = (360,920);
}
);
guides = (
{
angle = 63.5326;
pos = (317,0);
}
);
hints = (
{
name = _corner.arrow;
origin = (0,21);
type = Corner;
},
{
name = _corner.arrow;
origin = (0,20);
type = Corner;
},
{
name = _corner.arrow;
origin = (0,19);
type = Corner;
},
{
name = _corner.arrow;
origin = (0,10);
type = Corner;
},
{
name = _corner.arrow;
origin = (0,9);
type = Corner;
},
{
name = _corner.arrow;
origin = (0,6);
type = Corner;
},
{
name = _corner.arrow;
origin = (0,5);
type = Corner;
},
{
name = _corner.arrow;
origin = (0,4);
type = Corner;
},
{
name = _corner.arrow;
origin = (0,0);
type = Corner;
},
{
name = _corner.arrow;
origin = (0,25);
type = Corner;
}
);
layerId = m002;
shapes = (
{
closed = 1;
nodes = (
(360,0,l),
(360,140,l),
(260,220,l),
(400,220,l),
(400,0,l),
(680,0,l),
(680,320,l),
(480,320,l),
(500,360,l),
(680,360,l),
(680,720,l),
(525,720,ls),
(504,720,o),
(494,709,o),
(488,699,cs),
(320,400,l),
(280,400,l),
(280,420,l),
(360,560,l),
(360,860,l),
(20,860,l),
(20,620,l),
(100,620,l),
(80,660,l),
(20,540,l),
(20,0,l)
);
}
);
width = 700;
},
{
anchors = (
{
name = bottom;
pos = (160,0);
},
{
name = top;
pos = (160,920);
}
);
guides = (
{
angle = 63.5326;
pos = (317,0);
}
);
hints = (
{
name = _corner.arrow;
origin = (0,21);
type = Corner;
},
{
name = _corner.arrow;
origin = (0,20);
type = Corner;
},
{
name = _corner.arrow;
origin = (0,19);
type = Corner;
},
{
name = _corner.arrow;
origin = (0,10);
type = Corner;
},
{
name = _corner.arrow;
origin = (0,9);
type = Corner;
},
{
name = _corner.arrow;
origin = (0,6);
type = Corner;
},
{
name = _corner.arrow;
origin = (0,5);
type = Corner;
},
{
name = _corner.arrow;
origin = (0,4);
type = Corner;
},
{
name = _corner.arrow;
origin = (0,0);
type = Corner;
},
{
name = _corner.arrow;
origin = (0,25);
type = Corner;
}
);
layerId = "A70D3E7C-EDA6-440E-AC35-67945F302293";
shapes = (
{
closed = 1;
nodes = (
(120,0,l),
(120,140,l),
(100,260,l),
(160,260,l),
(160,0,l),
(280,0,l),
(280,340,l),
(180,340,l),
(200,380,l),
(280,380,l),
(280,720,l),
(234,720,ls),
(225,720,o),
(217,710,o),
(214,701,cs),
(120,400,l),
(100,400,l),
(100,440,l),
(120,520,l),
(120,860,l),
(20,860,l),
(20,660,l),
(100,660,l),
(80,700,l),
(20,580,l),
(20,0,l)
);
}
);
width = 300;
}
);
unicode = 107;
},
{
color = 8;
glyphname = l;
lastChange = "2021-12-20 09:20:25 +0000";
layers = (
{
anchors = (
{
name = bottom;
pos = (200,0);
},
{
name = center;
pos = (200,460);
},
{
name = top;
pos = (200,860);
},
{
name = topright;
pos = (360,860);
}
);
hints = (
{
name = _corner.arrow;
origin = (0,7);
type = Corner;
},
{
name = _corner.arrow;
origin = (0,6);
type = Corner;
},
{
name = _corner.arrow;
origin = (0,5);
type = Corner;
},
{
name = _corner.arrow;
origin = (0,1);
type = Corner;
},
{
name = _corner.arrow;
origin = (0,0);
type = Corner;
},
{
name = _corner.arrow;
origin = (0,11);
type = Corner;
}
);
layerId = m002;
shapes = (
{
closed = 1;
nodes = (
(360,0,l),
(360,220,l),
(275,220,l),
(295,183,l),
(360,280,l),
(360,860,l),
(20,860,l),
(20,620,l),
(100,620,l),
(80,660,l),
(20,540,l),
(20,0,l)
);
}
);
width = 380;
},
{
anchors = (
{
name = bottom;
pos = (80,0);
},
{
name = center;
pos = (80,460);
},
{
name = top;
pos = (80,920);
},
{
name = topright;
pos = (120,920);
}
);
hints = (
{
name = _corner.arrow;
origin = (0,7);
type = Corner;
},
{
name = _corner.arrow;
origin = (0,6);
type = Corner;
},
{
name = _corner.arrow;
origin = (0,5);
type = Corner;
},
{
name = _corner.arrow;
origin = (0,1);
type = Corner;
},
{
name = _corner.arrow;
origin = (0,0);
type = Corner;
},
{
name = _corner.arrow;
origin = (0,11);
type = Corner;
}
);
layerId = "A70D3E7C-EDA6-440E-AC35-67945F302293";
shapes = (
{
closed = 1;
nodes = (
(120,0,l),
(120,180,l),
(60,180,l),
(80,140,l),
(120,240,l),
(120,860,l),
(20,860,l),
(20,680,l),
(80,680,l),
(60,720,l),
(20,600,l),
(20,0,l)
);
}
);
width = 140;
}
);
unicode = 108;
},
{
color = 8;
glyphname = m;
lastChange = "2021-12-20 09:20:25 +0000";
layers = (
{
anchors = (
{
name = bottom;
pos = (520,0);
},
{
name = top;
pos = (520,720);
}
);
hints = (
{
name = _corner.arrow;
origin = (0,11);
type = Corner;
},
{
name = _corner.arrow;
origin = (0,12);
type = Corner;
},
{
name = _corner.arrow;
origin = (0,10);
type = Corner;
},
{
name = _corner.arrow;
origin = (1,4);
type = Corner;
},
{
name = _corner.arrow;
origin = (1,3);
type = Corner;
},
{
name = _corner.arrow;
origin = (1,2);
type = Corner;
},
{
name = _corner.arrow;
origin = (0,1);
type = Corner;
},
{
name = _corner.arrow;
origin = (0,0);
type = Corner;
},
{
name = _corner.arrow;
origin = (0,17);
type = Corner;
},
{
name = _corner.arrow;
origin = (0,16);
type = Corner;
},
{
name = _corner.arrow;
origin = (0,18);
type = Corner;
},
{
name = _corner.arrow;
origin = (0,2);
type = Corner;
}
);
layerId = m002;
shapes = (
{
closed = 1;
nodes = (
(400,0,l),
(660,0,l),
(660,220,l),
(575,220,l),
(603,178,l),
(660,320,l),
(680,600,l),
(560,720,l),
(360,720,l),
(280,640,l),
(280,720,l),
(20,720,l),
(20,420,l),
(105,420,l),
(80,460,l),
(20,340,l),
(20,0,l),
(340,0,l),
(340,220,l),
(255,220,l),
(283,178,l),
(340,320,l),
(340,420,l),
(400,420,l)
);
},
{
closed = 1;
nodes = (
(660,420,l),
(720,420,l),
(720,0,l),
(1020,0,l),
(1020,220,l),
(935,220,l),
(963,178,l),
(1020,320,l),
(1020,600,l),
(900,720,l),
(700,720,l),
(620,640,l)
);
}
);
width = 1040;
},
{
anchors = (
{
name = bottom;
pos = (220,0);
},
{
name = top;
pos = (220,720);
}
);
hints = (
{
name = _corner.arrow;
origin = (0,11);
type = Corner;
},
{
name = _corner.arrow;
origin = (0,12);
type = Corner;
},
{
name = _corner.arrow;
origin = (0,10);
type = Corner;
},
{
name = _corner.arrow;
origin = (1,4);
type = Corner;
},
{
name = _corner.arrow;
origin = (1,3);
type = Corner;
},
{
name = _corner.arrow;
origin = (1,2);
type = Corner;
},
{
name = _corner.arrow;
origin = (0,1);
type = Corner;
},
{
name = _corner.arrow;
origin = (0,0);
type = Corner;
},
{
name = _corner.arrow;
origin = (0,17);
type = Corner;
},
{
name = _corner.arrow;
origin = (0,16);
type = Corner;
},
{
name = _corner.arrow;
origin = (0,18);
type = Corner;
},
{
name = _corner.arrow;
origin = (0,2);
type = Corner;
}
);
layerId = "A70D3E7C-EDA6-440E-AC35-67945F302293";
shapes = (
{
closed = 1;
nodes = (
(160,0,l),
(260,0,l),
(260,180,l),
(220,180,l),
(220,140,l),
(260,240,l),
(260,680,l),
(200,720,l),
(160,720,l),
(120,680,l),
(120,720,l),
(20,720,l),
(20,540,l),
(100,540,l),
(60,580,l),
(20,480,l),
(20,0,l),
(120,0,l),
(120,180,l),
(80,180,l),
(80,140,l),
(120,240,l),
(120,540,l),
(160,540,l)
);
},
{
closed = 1;
nodes = (
(260,540,l),
(300,540,l),
(300,0,l),
(400,0,l),
(400,180,l),
(360,180,l),
(360,140,l),
(400,320,l),
(400,660,l),
(340,720,l),
(280,720,l),
(260,680,l)
);
}
);
width = 420;
}
);
unicode = 109;
},
{
color = 8;
glyphname = n;
lastChange = "2021-12-20 09:20:25 +0000";
layers = (
{
anchors = (
{
name = bottom;
pos = (360,0);
},
{
name = top;
pos = (360,720);
}
);
hints = (
{
name = _corner.arrow;
origin = (0,11);
type = Corner;
},
{
name = _corner.arrow;
origin = (0,10);
type = Corner;
},
{
name = _corner.arrow;
origin = (0,12);
type = Corner;
},
{
name = _corner.arrow;
origin = (0,16);
type = Corner;
},
{
name = _corner.arrow;
origin = (0,17);
type = Corner;
},
{
name = _corner.arrow;
origin = (0,18);
type = Corner;
},
{
name = _corner.arrow;
origin = (0,0);
type = Corner;
},
{
name = _corner.arrow;
origin = (0,1);
type = Corner;
},
{
name = _corner.arrow;
origin = (0,2);
type = Corner;
}
);
layerId = m002;
shapes = (
{
closed = 1;
nodes = (
(380,0,l),
(680,0,l),
(680,220,l),
(595,220,l),
(623,178,l),
(680,320,l),
(680,600,l),
(560,720,l),
(360,720,l),
(280,640,l),
(280,720,l),
(20,720,l),
(20,420,l),
(105,420,l),
(80,460,l),
(20,340,l),
(20,0,l),
(320,0,l),
(320,220,l),
(235,220,l),
(263,178,l),
(320,320,l),
(320,420,l),
(380,420,l)
);
}
);
width = 700;
},
{
anchors = (
{
name = bottom;
pos = (140,0);
},
{
name = top;
pos = (140,720);
}
);
hints = (
{
name = _corner.arrow;
origin = (0,11);
type = Corner;
},
{
name = _corner.arrow;
origin = (0,10);
type = Corner;
},
{
name = _corner.arrow;
origin = (0,12);
type = Corner;
},
{
name = _corner.arrow;
origin = (0,16);
type = Corner;
},
{
name = _corner.arrow;
origin = (0,17);
type = Corner;
},
{
name = _corner.arrow;
origin = (0,18);
type = Corner;
},
{
name = _corner.arrow;
origin = (0,0);
type = Corner;
},
{
name = _corner.arrow;
origin = (0,1);
type = Corner;
},
{
name = _corner.arrow;
origin = (0,2);
type = Corner;
}
);
layerId = "A70D3E7C-EDA6-440E-AC35-67945F302293";
shapes = (
{
closed = 1;
nodes = (
(160,0,l),
(260,0,l),
(260,180,l),
(180,180,l),
(200,140,l),
(260,320,l),
(260,660,l),
(200,720,l),
(160,720,l),
(120,680,l),
(120,720,l),
(20,720,l),
(20,540,l),
(80,540,l),
(60,580,l),
(20,460,l),
(20,0,l),
(120,0,l),
(120,180,l),
(40,180,l),
(60,140,l),
(120,240,l),
(120,540,l),
(160,540,l)
);
}
);
width = 280;
}
);
unicode = 110;
},
{
color = 8;
glyphname = o;
lastChange = "2022-01-13 02:32:06 +0000";
layers = (
{
anchors = (
{
name = bottom;
pos = (340,0);
},
{
name = center;
pos = (340,360);
},
{
name = ogonek;
pos = (640,20);
},
{
name = top;
pos = (340,720);
},
{
name = topright;
pos = (680,720);
}
);
background = {
shapes = (
{
closed = 0;
nodes = (
(320,580,l),
(140,400,l)
);
},
{
closed = 0;
nodes = (
(620,240,l),
(440,80,l)
);
}
);
};
hints = (
{
name = _corner.arrow;
origin = (0,5);
type = Corner;
},
{
name = _corner.arrow;
origin = (0,2);
type = Corner;
}
);
layerId = m002;
shapes = (
{
closed = 1;
nodes = (
(500,0,l),
(660,160,l),
(660,720,l),
(180,720,l),
(20,560,l),
(20,0,l)
);
},
{
closed = 1;
nodes = (
(340,300,l),
(220,360,l),
(220,500,l),
(300,500,l),
(340,420,l),
(460,360,l),
(460,220,l),
(380,220,l)
);
}
);
width = 680;
},
{
anchors = (
{
name = bottom;
pos = (130,0);
},
{
name = center;
pos = (130,360);
},
{
name = ogonek;
pos = (250,20);
},
{
name = top;
pos = (130,720);
},
{
name = topright;
pos = (250,720);
}
);
background = {
shapes = (
{
closed = 0;
nodes = (
(327,573,l),
(159,405,l)
);
},
{
closed = 0;
nodes = (
(626,240,l),
(458,72,l)
);
}
);
};
hints = (
{
name = _corner.arrow;
origin = (0,5);
type = Corner;
},
{
name = _corner.arrow;
origin = (0,2);
type = Corner;
}
);
layerId = "A70D3E7C-EDA6-440E-AC35-67945F302293";
shapes = (
{
closed = 1;
nodes = (
(180,0,l),
(240,80,l),
(240,720,l),
(80,720,l),
(20,660,l),
(20,0,l)
);
},
{
closed = 1;
nodes = (
(130,300,l),
(90,400,l),
(90,560,l),
(130,560,l),
(130,440,l),
(170,340,l),
(170,160,l),
(130,160,l)
);
}
);
width = 260;
}
);
unicode = 111;
},
{
color = 8;
glyphname = p;
lastChange = "2021-12-20 09:20:25 +0000";
layers = (
{
anchors = (
{
name = bottom;
pos = (360,0);
},
{
name = top;
pos = (360,720);
}
);
hints = (
{
name = _corner.arrow;
origin = (0,9);
type = Corner;
},
{
name = _corner.arrow;
origin = (0,10);
type = Corner;
},
{
name = _corner.arrow;
origin = (0,0);
type = Corner;
},
{
name = _corner.arrow;
origin = (0,14);
type = Corner;
},
{
name = _corner.arrow;
origin = (0,3);
type = Corner;
},
{
name = _corner.arrow;
origin = (0,8);
type = Corner;
}
);
layerId = m002;
shapes = (
{
closed = 1;
nodes = (
(280,-180,l),
(280,40,l),
(340,0,l),
(680,0,l),
(680,600,l),
(560,720,l),
(360,720,l),
(280,640,l),
(280,720,l),
(20,720,l),
(20,420,l),
(105,420,l),
(80,460,l),
(20,340,l),
(20,-180,l)
);
},
{
closed = 1;
nodes = (
(280,380,l),
(400,500,l),
(420,500,l),
(420,220,l),
(280,220,l)
);
}
);
width = 700;
},
{
anchors = (
{
name = bottom;
pos = (140,0);
},
{
name = top;
pos = (140,720);
}
);
hints = (
{
name = _corner.arrow;
origin = (0,9);
type = Corner;
},
{
name = _corner.arrow;
origin = (0,10);
type = Corner;
},
{
name = _corner.arrow;
origin = (0,0);
type = Corner;
},
{
name = _corner.arrow;
origin = (0,14);
type = Corner;
},
{
name = _corner.arrow;
origin = (0,3);
type = Corner;
},
{
name = _corner.arrow;
origin = (0,8);
type = Corner;
}
);
layerId = "A70D3E7C-EDA6-440E-AC35-67945F302293";
shapes = (
{
closed = 1;
nodes = (
(120,-180,l),
(120,100,l),
(160,0,l),
(260,0,l),
(260,660,l),
(220,720,l),
(160,720,l),
(120,680,l),
(120,720,l),
(20,720,l),
(20,560,l),
(100,560,l),
(60,600,l),
(20,480,l),
(20,-180,l)
);
},
{
closed = 1;
nodes = (
(120,420,l),
(140,600,l),
(160,600,l),
(160,160,l),
(120,160,l)
);
}
);
width = 280;
}
);
unicode = 112;
},
{
color = 8;
glyphname = q;
lastChange = "2021-12-20 09:20:25 +0000";
layers = (
{
anchors = (
{
name = bottom;
pos = (360,0);
},
{
name = top;
pos = (360,720);
}
);
hints = (
{
name = _corner.arrow;
origin = (1,1);
type = Corner;
},
{
name = _corner.arrow;
origin = (1,4);
type = Corner;
},
{
name = _corner.arrow;
origin = (1,5);
type = Corner;
},
{
name = _corner.arrow;
origin = (1,6);
type = Corner;
},
{
name = _corner.arrow;
origin = (1,10);
type = Corner;
},
{
name = _corner.arrow;
origin = (1,11);
type = Corner;
}
);
layerId = m002;
shapes = (
{
closed = 1;
nodes = (
(420,340,l),
(300,220,l),
(280,220,l),
(280,500,l),
(420,500,l)
);
},
{
closed = 1;
nodes = (
(20,600,l),
(20,0,l),
(340,0,l),
(420,80,l),
(420,-180,l),
(680,-180,l),
(680,80,l),
(595,80,l),
(620,40,l),
(680,160,l),
(680,720,l),
(420,720,l),
(420,635,l),
(457,655,l),
(360,720,l),
(140,720,l)
);
}
);
width = 700;
},
{
anchors = (
{
name = bottom;
pos = (140,0);
},
{
name = top;
pos = (140,720);
}
);
hints = (
{
name = _corner.arrow;
origin = (1,1);
type = Corner;
},
{
name = _corner.arrow;
origin = (1,4);
type = Corner;
},
{
name = _corner.arrow;
origin = (1,5);
type = Corner;
},
{
name = _corner.arrow;
origin = (1,6);
type = Corner;
},
{
name = _corner.arrow;
origin = (1,10);
type = Corner;
},
{
name = _corner.arrow;
origin = (1,11);
type = Corner;
}
);
layerId = "A70D3E7C-EDA6-440E-AC35-67945F302293";
shapes = (
{
closed = 1;
nodes = (
(160,360,l),
(140,160,l),
(120,160,l),
(120,540,l),
(160,540,l)
);
},
{
closed = 1;
nodes = (
(20,660,l),
(20,0,l),
(120,0,l),
(160,100,l),
(160,-180,l),
(260,-180,l),
(260,0,l),
(180,0,l),
(200,-40,l),
(260,60,l),
(260,720,l),
(160,720,l),
(160,640,l),
(200,640,l),
(120,720,l),
(80,720,l)
);
}
);
width = 280;
}
);
unicode = 113;
},
{
color = 8;
glyphname = r;
lastChange = "2021-12-28 20:46:58 +0000";
layers = (
{
anchors = (
{
name = bottom;
pos = (300,0);
},
{
name = top;
pos = (300,720);
}
);
hints = (
{
name = _corner.arrow;
origin = (0,12);
type = Corner;
},
{
name = _corner.arrow;
origin = (0,11);
type = Corner;
},
{
name = _corner.arrow;
origin = (0,13);
type = Corner;
},
{
name = _corner.arrow;
origin = (0,17);
type = Corner;
},
{
name = _corner.arrow;
origin = (0,0);
type = Corner;
},
{
name = _corner.arrow;
origin = (0,6);
type = Corner;
},
{
name = _corner.arrow;
origin = (0,7);
type = Corner;
},
{
name = _corner.arrow;
origin = (0,1);
type = Corner;
}
);
layerId = m002;
shapes = (
{
closed = 1;
nodes = (
(380,0,l),
(380,220,l),
(320,220,l),
(320,140,l),
(380,320,l),
(380,360,l),
(560,360,l),
(560,720,l),
(380,720,l),
(140,480,l),
(260,520,l),
(260,720,l),
(20,720,l),
(20,420,l),
(105,420,l),
(80,460,l),
(20,340,l),
(20,0,l)
);
}
);
width = 580;
},
{
anchors = (
{
name = bottom;
pos = (120,0);
},
{
name = top;
pos = (120,720);
}
);
hints = (
{
name = _corner.arrow;
origin = (0,6);
type = Corner;
},
{
name = _corner.arrow;
origin = (0,7);
type = Corner;
},
{
name = _corner.arrow;
origin = (0,12);
type = Corner;
},
{
name = _corner.arrow;
origin = (0,13);
type = Corner;
},
{
name = _corner.arrow;
origin = (0,17);
type = Corner;
},
{
name = _corner.arrow;
origin = (0,1);
type = Corner;
},
{
name = _corner.arrow;
origin = (0,0);
type = Corner;
},
{
name = _corner.arrow;
origin = (0,11);
type = Corner;
}
);
layerId = "A70D3E7C-EDA6-440E-AC35-67945F302293";
shapes = (
{
closed = 1;
nodes = (
(120,0,l),
(120,180,l),
(40,180,l),
(60,140,l),
(120,240,l),
(120,540,l),
(200,540,l),
(200,720,l),
(140,720,l),
(60,620,l),
(100,620,l),
(100,720,l),
(20,720,l),
(20,540,l),
(80,540,l),
(60,580,l),
(20,460,l),
(20,0,l)
);
}
);
width = 220;
}
);
unicode = 114;
},
{
color = 8;
glyphname = s;
lastChange = "2021-12-20 10:41:05 +0000";
layers = (
{
anchors = (
{
name = bottom;
pos = (360,0);
},
{
name = top;
pos = (360,720);
}
);
background = {
shapes = (
{
closed = 1;
nodes = (
(260,353,ls),
(252,337,o),
(245,323,o),
(227,323,cs),
(210,323,o),
(201,333,o),
(201,356,cs),
(201,453,ls),
(201,488,o),
(226,513,o),
(263,513,cs),
(310,513,ls),
(342,513,o),
(372,507,o),
(395,493,cs),
(558,389,ls),
(572,380,o),
(588,376,o),
(606,376,cs),
(612,376,ls),
(630,376,o),
(645,390,o),
(645,410,cs),
(645,623,ls),
(645,635,o),
(641,640,o),
(629,640,cs),
(449,640,ls),
(439,640,o),
(431,635,o),
(431,625,cs),
(431,613,o),
(435,598,o),
(444,576,cs),
(480,497,l),
(473,497,l),
(416,588,ls),
(396,618,o),
(368,640,o),
(331,640,cs),
(78,640,ls),
(43,640,o),
(25,613,o),
(25,579,cs),
(25,365,ls),
(25,335,o),
(39,315,o),
(74,293,cs),
(222,201,ls),
(244,187,o),
(264,177,o),
(291,177,cs),
(339,177,o),
(363,200,o),
(379,230,cs),
(409,287,ls),
(417,303,o),
(425,317,o),
(442,317,cs),
(460,317,o),
(468,307,o),
(468,284,cs),
(468,187,ls),
(468,152,o),
(443,127,o),
(407,127,cs),
(359,127,ls),
(328,127,o),
(298,133,o),
(275,147,cs),
(112,251,ls),
(98,260,o),
(82,264,o),
(64,264,cs),
(57,264,ls),
(38,264,o),
(25,250,o),
(25,230,cs),
(25,17,ls),
(25,5,o),
(29,0,o),
(39,0,cs),
(220,0,ls),
(231,0,o),
(242,5,o),
(242,15,cs),
(242,27,o),
(235,42,o),
(225,64,cs),
(189,143,l),
(197,143,l),
(253,52,ls),
(273,22,o),
(302,0,o),
(338,0,cs),
(592,0,ls),
(626,0,o),
(645,27,o),
(645,61,cs),
(645,97,o),
(645,134,o),
(645,170,cs),
(645,205,o),
(645,241,o),
(645,275,cs),
(645,305,o),
(629,325,o),
(595,347,cs),
(448,439,ls),
(426,453,o),
(405,463,o),
(378,463,cs),
(330,463,o),
(306,440,o),
(290,410,cs)
);
}
);
};
hints = (
{
name = _corner.arrow;
origin = (0,8);
type = Corner;
},
{
name = _corner.arrow;
origin = (0,7);
type = Corner;
},
{
name = _corner.arrow;
origin = (0,6);
type = Corner;
},
{
name = _corner.arrow;
origin = (0,22);
type = Corner;
},
{
name = _corner.arrow;
origin = (0,21);
type = Corner;
},
{
name = _corner.arrow;
origin = (0,20);
type = Corner;
}
);
layerId = m002;
shapes = (
{
closed = 1;
nodes = (
(120,280,l),
(340,280,l),
(420,320,l),
(420,240,l),
(120,240,l),
(80,240,l),
(20,240,l),
(20,0,l),
(280,0,l),
(280,40,l),
(360,0,l),
(560,0,l),
(680,120,l),
(680,340,l),
(580,440,l),
(360,440,l),
(280,400,l),
(280,480,l),
(580,480,l),
(620,480,l),
(680,480,l),
(680,720,l),
(420,720,l),
(420,680,l),
(340,720,l),
(140,720,l),
(20,600,l),
(20,340,l)
);
}
);
width = 700;
},
{
anchors = (
{
name = bottom;
pos = (140,0);
},
{
name = top;
pos = (140,720);
}
);
background = {
shapes = (
{
closed = 1;
nodes = (
(260,353,ls),
(252,337,o),
(245,323,o),
(227,323,cs),
(210,323,o),
(201,333,o),
(201,356,cs),
(201,453,ls),
(201,488,o),
(226,513,o),
(263,513,cs),
(310,513,ls),
(342,513,o),
(372,507,o),
(395,493,cs),
(558,389,ls),
(572,380,o),
(588,376,o),
(606,376,cs),
(612,376,ls),
(630,376,o),
(645,390,o),
(645,410,cs),
(645,623,ls),
(645,635,o),
(641,640,o),
(629,640,cs),
(449,640,ls),
(439,640,o),
(431,635,o),
(431,625,cs),
(431,613,o),
(435,598,o),
(444,576,cs),
(480,497,l),
(473,497,l),
(416,588,ls),
(396,618,o),
(368,640,o),
(331,640,cs),
(78,640,ls),
(43,640,o),
(25,613,o),
(25,579,cs),
(25,365,ls),
(25,335,o),
(39,315,o),
(74,293,cs),
(222,201,ls),
(244,187,o),
(264,177,o),
(291,177,cs),
(339,177,o),
(363,200,o),
(379,230,cs),
(409,287,ls),
(417,303,o),
(425,317,o),
(442,317,cs),
(460,317,o),
(468,307,o),
(468,284,cs),
(468,187,ls),
(468,152,o),
(443,127,o),
(407,127,cs),
(359,127,ls),
(328,127,o),
(298,133,o),
(275,147,cs),
(112,251,ls),
(98,260,o),
(82,264,o),
(64,264,cs),
(57,264,ls),
(38,264,o),
(25,250,o),
(25,230,cs),
(25,17,ls),
(25,5,o),
(29,0,o),
(39,0,cs),
(220,0,ls),
(231,0,o),
(242,5,o),
(242,15,cs),
(242,27,o),
(235,42,o),
(225,64,cs),
(189,143,l),
(197,143,l),
(253,52,ls),
(273,22,o),
(302,0,o),
(338,0,cs),
(592,0,ls),
(626,0,o),
(645,27,o),
(645,61,cs),
(645,97,o),
(645,134,o),
(645,170,cs),
(645,205,o),
(645,241,o),
(645,275,cs),
(645,305,o),
(629,325,o),
(595,347,cs),
(448,439,ls),
(426,453,o),
(405,463,o),
(378,463,cs),
(330,463,o),
(306,440,o),
(290,410,cs)
);
}
);
};
hints = (
{
name = _corner.arrow;
origin = (0,8);
type = Corner;
},
{
name = _corner.arrow;
origin = (0,7);
type = Corner;
},
{
name = _corner.arrow;
origin = (0,6);
type = Corner;
},
{
name = _corner.arrow;
origin = (0,22);
type = Corner;
},
{
name = _corner.arrow;
origin = (0,21);
type = Corner;
},
{
name = _corner.arrow;
origin = (0,20);
type = Corner;
}
);
layerId = "A70D3E7C-EDA6-440E-AC35-67945F302293";
shapes = (
{
closed = 1;
nodes = (
(120,200,l),
(140,200,l),
(160,300,l),
(160,160,l),
(100,160,l),
(60,300,l),
(20,300,l),
(20,0,l),
(80,0,l),
(80,40,l),
(120,0,l),
(200,0,l),
(260,60,l),
(260,300,l),
(160,500,l),
(140,500,l),
(120,400,l),
(120,540,l),
(180,540,l),
(240,360,l),
(260,360,l),
(260,720,l),
(200,720,l),
(200,680,l),
(160,720,l),
(80,720,l),
(20,660,l),
(20,420,l)
);
}
);
width = 280;
}
);
unicode = 115;
},
{
color = 8;
glyphname = t;
lastChange = "2021-12-20 09:20:25 +0000";
layers = (
{
anchors = (
{
name = bottom;
pos = (280,0);
},
{
name = center;
pos = (280,360);
},
{
name = top;
pos = (280,720);
},
{
name = topright;
pos = (540,920);
}
);
hints = (
{
name = _corner.arrow;
origin = (0,9);
type = Corner;
},
{
name = _corner.arrow;
origin = (0,0);
type = Corner;
},
{
name = _corner.arrow;
origin = (0,1);
type = Corner;
},
{
name = _corner.arrow;
origin = (3,7);
type = Corner;
},
{
name = _corner.arrow;
origin = (3,7);
type = Corner;
},
{
name = _corner.arrow;
origin = (0,6);
type = Corner;
},
{
name = _corner.arrow;
origin = (0,5);
type = Corner;
}
);
layerId = m002;
shapes = (
{
closed = 1;
nodes = (
(540,0,l),
(540,280,l),
(280,280,l),
(280,380,l),
(340,440,l),
(540,440,l),
(540,720,l),
(340,720,l),
(280,640,l),
(280,860,l),
(80,860,l),
(20,620,l),
(20,100,l),
(120,0,l)
);
}
);
width = 569;
},
{
anchors = (
{
name = bottom;
pos = (160,0);
},
{
name = center;
pos = (120,360);
},
{
name = top;
pos = (120,720);
},
{
name = topright;
pos = (220,920);
}
);
hints = (
{
name = _corner.arrow;
origin = (0,9);
type = Corner;
},
{
name = _corner.arrow;
origin = (0,0);
type = Corner;
},
{
name = _corner.arrow;
origin = (0,1);
type = Corner;
},
{
name = _corner.arrow;
origin = (3,7);
type = Corner;
},
{
name = _corner.arrow;
origin = (3,7);
type = Corner;
},
{
name = _corner.arrow;
origin = (0,6);
type = Corner;
},
{
name = _corner.arrow;
origin = (0,5);
type = Corner;
}
);
layerId = "A70D3E7C-EDA6-440E-AC35-67945F302293";
shapes = (
{
closed = 1;
nodes = (
(220,0,l),
(220,180,l),
(120,180,l),
(120,440,l),
(180,480,l),
(220,480,l),
(220,720,l),
(180,720,l),
(120,600,l),
(120,860,l),
(40,860,l),
(20,600,l),
(20,60,l),
(80,0,l)
);
}
);
width = 240;
}
);
unicode = 116;
},
{
color = 8;
glyphname = u;
lastChange = "2021-12-20 09:20:25 +0000";
layers = (
{
anchors = (
{
name = bottom;
pos = (360,0);
},
{
name = ogonek;
pos = (640,20);
},
{
name = top;
pos = (360,720);
},
{
name = topright;
pos = (680,720);
}
);
hints = (
{
name = _corner.arrow;
origin = (0,2);
type = Corner;
},
{
name = _corner.arrow;
origin = (0,1);
type = Corner;
},
{
name = _corner.arrow;
origin = (0,0);
type = Corner;
},
{
name = _corner.arrow;
origin = (0,17);
type = Corner;
},
{
name = _corner.arrow;
origin = (0,16);
type = Corner;
},
{
name = _corner.arrow;
origin = (0,18);
type = Corner;
},
{
name = _corner.arrow;
origin = (0,12);
type = Corner;
},
{
name = _corner.arrow;
origin = (0,11);
type = Corner;
},
{
name = _corner.arrow;
origin = (0,10);
type = Corner;
}
);
layerId = m002;
shapes = (
{
closed = 1;
nodes = (
(320,720,l),
(20,720,l),
(20,500,l),
(105,500,l),
(77,542,l),
(20,400,l),
(20,120,l),
(140,0,l),
(340,0,l),
(420,80,l),
(420,0,l),
(680,0,l),
(680,300,l),
(595,300,l),
(620,260,l),
(680,380,l),
(680,720,l),
(380,720,l),
(380,500,l),
(465,500,l),
(437,542,l),
(380,400,l),
(380,300,l),
(320,300,l)
);
}
);
width = 700;
},
{
anchors = (
{
name = bottom;
pos = (140,0);
},
{
name = ogonek;
pos = (260,20);
},
{
name = top;
pos = (140,720);
},
{
name = topright;
pos = (260,720);
}
);
hints = (
{
name = _corner.arrow;
origin = (0,2);
type = Corner;
},
{
name = _corner.arrow;
origin = (0,1);
type = Corner;
},
{
name = _corner.arrow;
origin = (0,0);
type = Corner;
},
{
name = _corner.arrow;
origin = (0,17);
type = Corner;
},
{
name = _corner.arrow;
origin = (0,16);
type = Corner;
},
{
name = _corner.arrow;
origin = (0,18);
type = Corner;
},
{
name = _corner.arrow;
origin = (0,12);
type = Corner;
},
{
name = _corner.arrow;
origin = (0,11);
type = Corner;
},
{
name = _corner.arrow;
origin = (0,10);
type = Corner;
}
);
layerId = "A70D3E7C-EDA6-440E-AC35-67945F302293";
shapes = (
{
closed = 1;
nodes = (
(120,720,l),
(20,720,l),
(20,540,l),
(80,540,l),
(60,580,l),
(20,480,l),
(20,80,l),
(80,0,l),
(120,0,l),
(160,40,l),
(160,0,l),
(260,0,l),
(260,180,l),
(180,180,l),
(200,140,l),
(260,260,l),
(260,720,l),
(160,720,l),
(160,540,l),
(220,540,l),
(200,580,l),
(160,480,l),
(160,180,l),
(120,180,l)
);
}
);
width = 280;
}
);
unicode = 117;
},
{
color = 8;
glyphname = v;
lastChange = "2021-12-20 09:20:25 +0000";
layers = (
{
anchors = (
{
name = bottom;
pos = (360,0);
},
{
name = top;
pos = (360,720);
}
);
hints = (
{
name = _corner.arrow;
origin = (0,2);
type = Corner;
},
{
name = _corner.arrow;
origin = (0,3);
type = Corner;
},
{
name = _corner.arrow;
origin = (3,7);
type = Corner;
},
{
name = _corner.arrow;
origin = (0,1);
type = Corner;
},
{
name = _corner.arrow;
origin = (0,16);
type = Corner;
},
{
name = _corner.arrow;
origin = (0,15);
type = Corner;
},
{
name = _corner.arrow;
origin = (0,14);
type = Corner;
}
);
layerId = m002;
shapes = (
{
closed = 1;
nodes = (
(320,380,l),
(320,720,l),
(20,720,l),
(20,500,l),
(105,500,l),
(77,542,l),
(20,400,l),
(20,120,l),
(140,0,l),
(560,0,l),
(680,120,l),
(680,400,l),
(623,542,l),
(595,500,l),
(680,500,l),
(680,720,l),
(380,720,l),
(380,380,l),
(420,300,l),
(280,300,l)
);
}
);
width = 700;
},
{
anchors = (
{
name = bottom;
pos = (140,0);
},
{
name = top;
pos = (140,720);
}
);
hints = (
{
name = _corner.arrow;
origin = (0,2);
type = Corner;
},
{
name = _corner.arrow;
origin = (0,3);
type = Corner;
},
{
name = _corner.arrow;
origin = (3,7);
type = Corner;
},
{
name = _corner.arrow;
origin = (0,1);
type = Corner;
},
{
name = _corner.arrow;
origin = (0,16);
type = Corner;
},
{
name = _corner.arrow;
origin = (0,15);
type = Corner;
},
{
name = _corner.arrow;
origin = (0,14);
type = Corner;
}
);
layerId = "A70D3E7C-EDA6-440E-AC35-67945F302293";
shapes = (
{
closed = 1;
nodes = (
(120,260,l),
(120,720,l),
(20,720,l),
(20,540,l),
(100,540,l),
(80,580,l),
(20,440,l),
(20,80,l),
(100,0,l),
(180,0,l),
(260,80,l),
(260,440,l),
(200,580,l),
(180,540,l),
(260,540,l),
(260,720,l),
(160,720,l),
(160,260,l),
(200,180,l),
(80,180,l)
);
}
);
width = 280;
}
);
unicode = 118;
},
{
color = 8;
glyphname = w;
lastChange = "2022-01-12 23:34:31 +0000";
layers = (
{
anchors = (
{
name = bottom;
pos = (500,0);
},
{
name = top;
pos = (500,720);
}
);
guides = (
{
pos = (261,706);
}
);
hints = (
{
name = _corner.arrow;
origin = (0,33);
type = Corner;
},
{
name = _corner.arrow;
origin = (0,34);
type = Corner;
},
{
name = _corner.arrow;
origin = (0,24);
type = Corner;
},
{
name = _corner.arrow;
origin = (0,23);
type = Corner;
},
{
name = _corner.arrow;
origin = (0,11);
type = Corner;
},
{
name = _corner.arrow;
origin = (0,10);
type = Corner;
},
{
name = _corner.arrow;
origin = (0,22);
type = Corner;
}
);
layerId = m002;
shapes = (
{
closed = 1;
nodes = (
(20,120,l),
(140,0,l),
(460,0,l),
(520,100,l),
(580,0,l),
(860,0,l),
(980,120,l),
(980,400,l),
(920,540,l),
(900,500,l),
(980,500,l),
(980,720,l),
(779,720,ls),
(752,720,o),
(739,706,o),
(735,676,cs),
(700,380,l),
(740,300,l),
(640,300,l),
(640,400,l),
(580,540,l),
(560,500,l),
(640,500,l),
(640,720,l),
(360,720,l),
(360,380,l),
(400,300,l),
(260,300,l),
(300,380,l),
(265,676,ls),
(261,706,o),
(248,720,o),
(221,720,cs),
(20,720,l),
(20,500,l),
(105,500,l),
(77,542,l),
(20,400,l)
);
}
);
width = 1000;
},
{
anchors = (
{
name = bottom;
pos = (220,0);
},
{
name = top;
pos = (220,720);
}
);
hints = (
{
name = _corner.arrow;
origin = (0,34);
type = Corner;
},
{
name = _corner.arrow;
origin = (0,24);
type = Corner;
},
{
name = _corner.arrow;
origin = (0,23);
type = Corner;
},
{
name = _corner.arrow;
origin = (0,11);
type = Corner;
},
{
name = _corner.arrow;
origin = (0,10);
type = Corner;
},
{
name = _corner.arrow;
origin = (0,22);
type = Corner;
},
{
name = _corner.arrow;
origin = (0,33);
type = Corner;
}
);
layerId = "A70D3E7C-EDA6-440E-AC35-67945F302293";
shapes = (
{
closed = 1;
nodes = (
(20,80,l),
(100,0,l),
(160,0,l),
(220,100,l),
(280,0,l),
(340,0,l),
(400,80,l),
(400,400,l),
(340,540,l),
(320,500,l),
(400,500,l),
(400,720,l),
(331,720,ls),
(324,720,o),
(320,715,o),
(319,701,cs),
(300,260,l),
(340,180,l),
(260,180,l),
(260,280,l),
(220,600,l),
(200,500,l),
(260,500,l),
(260,720,l),
(160,720,l),
(160,260,l),
(200,180,l),
(80,180,l),
(120,260,l),
(101,701,ls),
(100,715,o),
(96,720,o),
(89,720,cs),
(20,720,l),
(20,500,l),
(100,500,l),
(77,542,l),
(20,400,l)
);
}
);
width = 420;
}
);
unicode = 119;
},
{
color = 8;
glyphname = x;
lastChange = "2021-12-20 09:20:25 +0000";
layers = (
{
anchors = (
{
name = bottom;
pos = (360,0);
},
{
name = top;
pos = (360,720);
}
);
hints = (
{
name = _corner.arrow;
origin = (0,14);
type = Corner;
},
{
name = _corner.arrow;
origin = (0,7);
type = Corner;
},
{
name = _corner.arrow;
origin = (0,6);
type = Corner;
},
{
name = _corner.arrow;
origin = (0,2);
type = Corner;
},
{
name = _corner.arrow;
origin = (0,19);
type = Corner;
},
{
name = _corner.arrow;
origin = (0,18);
type = Corner;
}
);
layerId = m002;
shapes = (
{
closed = 1;
nodes = (
(340,200,l),
(400,0,l),
(680,0,l),
(680,220,l),
(580,360,l),
(680,540,l),
(680,720,l),
(380,720,l),
(380,560,l),
(480,460,l),
(480,440,l),
(440,440,l),
(360,520,l),
(300,720,l),
(20,720,l),
(20,500,l),
(120,360,l),
(20,180,l),
(20,0,l),
(320,0,l),
(320,160,l),
(220,260,l),
(220,280,l),
(260,280,l)
);
}
);
width = 700;
},
{
anchors = (
{
name = bottom;
pos = (140,0);
},
{
name = top;
pos = (140,720);
}
);
hints = (
{
name = _corner.arrow;
origin = (0,2);
type = Corner;
},
{
name = _corner.arrow;
origin = (0,6);
type = Corner;
},
{
name = _corner.arrow;
origin = (0,7);
type = Corner;
},
{
name = _corner.arrow;
origin = (0,14);
type = Corner;
},
{
name = _corner.arrow;
origin = (0,18);
type = Corner;
},
{
name = _corner.arrow;
origin = (0,19);
type = Corner;
}
);
layerId = "A70D3E7C-EDA6-440E-AC35-67945F302293";
shapes = (
{
closed = 1;
nodes = (
(140,160,l),
(180,0,l),
(240,0,l),
(240,140,l),
(180,380,l),
(240,540,l),
(240,720,l),
(140,720,l),
(140,600,l),
(160,500,l),
(160,480,l),
(140,480,l),
(120,560,l),
(80,720,l),
(20,720,l),
(20,580,l),
(80,340,l),
(20,180,l),
(20,0,l),
(120,0,l),
(120,140,l),
(100,220,l),
(100,240,l),
(120,240,l)
);
}
);
width = 260;
}
);
unicode = 120;
},
{
color = 8;
glyphname = y;
lastChange = "2021-12-20 09:20:25 +0000";
layers = (
{
anchors = (
{
name = bottom;
pos = (360,0);
},
{
name = top;
pos = (360,720);
}
);
hints = (
{
name = _corner.arrow;
origin = (0,12);
type = Corner;
},
{
name = _corner.arrow;
origin = (0,11);
type = Corner;
},
{
name = _corner.arrow;
origin = (0,10);
type = Corner;
},
{
name = _corner.arrow;
origin = (0,7);
type = Corner;
},
{
name = _corner.arrow;
origin = (0,6);
type = Corner;
},
{
name = _corner.arrow;
origin = (0,1);
type = Corner;
},
{
name = _corner.arrow;
origin = (0,0);
type = Corner;
}
);
layerId = m002;
shapes = (
{
closed = 1;
nodes = (
(20,100,l),
(20,-180,l),
(440,-180,l),
(540,-80,l),
(540,40,l),
(680,180,l),
(680,720,l),
(380,720,l),
(380,360,l),
(340,360,l),
(340,720,l),
(20,720,l),
(20,440,l),
(80,440,l),
(80,260,l),
(200,140,l),
(340,140,l),
(380,180,l),
(380,100,l)
);
}
);
width = 700;
},
{
anchors = (
{
name = bottom;
pos = (160,0);
},
{
name = top;
pos = (160,720);
}
);
hints = (
{
name = _corner.arrow;
origin = (0,0);
type = Corner;
},
{
name = _corner.arrow;
origin = (0,1);
type = Corner;
},
{
name = _corner.arrow;
origin = (0,6);
type = Corner;
},
{
name = _corner.arrow;
origin = (0,7);
type = Corner;
},
{
name = _corner.arrow;
origin = (0,10);
type = Corner;
},
{
name = _corner.arrow;
origin = (0,11);
type = Corner;
},
{
name = _corner.arrow;
origin = (0,12);
type = Corner;
}
);
layerId = "A70D3E7C-EDA6-440E-AC35-67945F302293";
shapes = (
{
closed = 1;
nodes = (
(20,0,l),
(20,-180,l),
(160,-180,l),
(220,-100,l),
(220,80,l),
(280,140,l),
(280,720,l),
(180,720,l),
(180,220,l),
(140,220,l),
(140,720,l),
(20,720,l),
(20,440,l),
(40,440,l),
(40,80,l),
(80,40,l),
(100,40,l),
(120,60,l),
(120,0,l)
);
}
);
width = 300;
}
);
unicode = 121;
},
{
color = 8;
glyphname = z;
lastChange = "2021-12-20 10:38:42 +0000";
layers = (
{
anchors = (
{
name = bottom;
pos = (360,0);
},
{
name = center;
pos = (360,360);
},
{
name = top;
pos = (360,720);
}
);
hints = (
{
name = _corner.arrow;
origin = (0,6);
type = Corner;
},
{
name = _corner.arrow;
origin = (0,5);
type = Corner;
},
{
name = _corner.arrow;
origin = (0,22);
type = Corner;
},
{
name = _corner.arrow;
origin = (0,21);
type = Corner;
},
{
name = _corner.arrow;
origin = (0,1);
type = Corner;
},
{
name = _corner.arrow;
origin = (0,0);
type = Corner;
},
{
name = _corner.arrow;
origin = (0,17);
type = Corner;
},
{
name = _corner.arrow;
origin = (0,16);
type = Corner;
}
);
layerId = m002;
shapes = (
{
closed = 1;
nodes = (
(680,720,l),
(420,720,l),
(420,635,l),
(460,660,l),
(340,720,l),
(40,720,l),
(40,500,l),
(100,500,l),
(100,500,o),
(100,500,o),
(100,500,c),
(100,500,l),
(420,500,l),
(400,460,l),
(100,460,l),
(20,320,l),
(20,0,l),
(280,0,l),
(280,85,l),
(240,60,l),
(360,0,l),
(660,0,l),
(660,240,l),
(600,240,l),
(600,240,o),
(600,240,o),
(600,240,c),
(600,240,l),
(280,240,l),
(300,280,l),
(600,280,l),
(680,420,l)
);
}
);
width = 700;
},
{
anchors = (
{
name = bottom;
pos = (160,0);
},
{
name = center;
pos = (160,360);
},
{
name = top;
pos = (160,720);
}
);
hints = (
{
name = _corner.arrow;
origin = (0,6);
type = Corner;
},
{
name = _corner.arrow;
origin = (0,5);
type = Corner;
},
{
name = _corner.arrow;
origin = (0,22);
type = Corner;
},
{
name = _corner.arrow;
origin = (0,21);
type = Corner;
},
{
name = _corner.arrow;
origin = (0,1);
type = Corner;
},
{
name = _corner.arrow;
origin = (0,0);
type = Corner;
},
{
name = _corner.arrow;
origin = (0,17);
type = Corner;
},
{
name = _corner.arrow;
origin = (0,16);
type = Corner;
}
);
layerId = "A70D3E7C-EDA6-440E-AC35-67945F302293";
shapes = (
{
closed = 1;
nodes = (
(280,720,l),
(160,720,l),
(160,640,l),
(220,660,l),
(100,720,l),
(20,720,l),
(20,400,l),
(49,400,l),
(58,400,o),
(61,403,o),
(65,412,cs),
(140,580,l),
(180,580,l),
(180,540,l),
(160,540,l),
(20,220,l),
(20,0,l),
(140,0,l),
(140,80,l),
(80,60,l),
(200,0,l),
(280,0,l),
(280,320,l),
(251,320,ls),
(240,320,o),
(237,315,o),
(233,305,cs),
(160,140,l),
(120,140,l),
(120,180,l),
(140,180,l),
(280,500,l)
);
}
);
width = 300;
}
);
unicode = 122;
},
{
color = 1;
glyphname = a.comp;
lastChange = "2022-01-14 10:08:10 +0000";
layers = (
{
anchors = (
{
name = bottom;
pos = (360,0);
},
{
name = ogonek;
pos = (640,20);
},
{
name = top;
pos = (360,680);
}
);
hints = (
{
name = _corner.arrow;
origin = (0,11);
type = Corner;
},
{
name = _corner.arrow;
origin = (0,10);
type = Corner;
},
{
name = _corner.arrow;
origin = (0,16);
type = Corner;
},
{
name = _corner.arrow;
origin = (0,3);
type = Corner;
},
{
name = _corner.arrow;
origin = (0,2);
type = Corner;
}
);
layerId = m002;
shapes = (
{
closed = 1;
nodes = (
(360,0,l),
(440,80,l),
(440,0,l),
(680,0,l),
(680,560,l),
(560,680,l),
(320,680,l),
(260,620,l),
(300,620,l),
(240,680,l),
(20,680,l),
(20,460,l),
(300,460,l),
(260,420,l),
(160,420,l),
(20,300,l),
(20,0,l)
);
},
{
closed = 1;
nodes = (
(260,280,l),
(320,340,l),
(440,340,l),
(440,280,l),
(360,280,l),
(300,220,l),
(260,220,l)
);
}
);
width = 700;
},
{
associatedMasterId = m002;
layerId = "ACCD30F6-79E0-40CF-95AF-B9C370268BA8";
name = "4 Dec 21, 04:31";
shapes = (
{
closed = 1;
nodes = (
(480,427,l),
(480,246,l),
(233,246,l)
);
},
{
closed = 1;
nodes = (
(567,711,l),
(340,711,l),
(163,480,l),
(245,630,l),
(245,711,l),
(10,711,l),
(10,427,l),
(221,427,l),
(364,484,l),
(10,238,l),
(10,0,l),
(322,0,l),
(480,243,l),
(480,0,l),
(715,0,l),
(715,361,l),
(509,511,l),
(715,511,l)
);
}
);
width = 725;
},
{
anchors = (
{
name = bottom;
pos = (160,0);
},
{
name = ogonek;
pos = (280,20);
},
{
name = top;
pos = (160,680);
}
);
hints = (
{
name = _corner.arrow;
origin = (0,2);
type = Corner;
},
{
name = _corner.arrow;
origin = (0,3);
type = Corner;
},
{
name = _corner.arrow;
origin = (0,10);
type = Corner;
},
{
name = _corner.arrow;
origin = (0,11);
type = Corner;
},
{
name = _corner.arrow;
origin = (0,16);
type = Corner;
}
);
layerId = "A70D3E7C-EDA6-440E-AC35-67945F302293";
shapes = (
{
closed = 1;
nodes = (
(160,0,l),
(180,160,l),
(180,0,l),
(280,0,l),
(280,620,l),
(220,680,l),
(180,680,l),
(120,620,l),
(160,620,l),
(100,680,l),
(20,680,l),
(20,500,l),
(160,500,l),
(120,460,l),
(60,460,l),
(20,420,l),
(20,0,l)
);
},
{
closed = 1;
nodes = (
(120,340,l),
(160,400,l),
(180,400,l),
(180,300,l),
(160,300,l),
(140,180,l),
(120,180,l)
);
}
);
width = 300;
},
{
associatedMasterId = "A70D3E7C-EDA6-440E-AC35-67945F302293";
layerId = "539FAD73-93F0-476E-B2F1-87C5269095DB";
name = "4 Dec 21, 04:31";
shapes = (
{
closed = 1;
nodes = (
(480,427,l),
(480,246,l),
(233,246,l)
);
},
{
closed = 1;
nodes = (
(567,711,l),
(340,711,l),
(163,480,l),
(245,630,l),
(245,711,l),
(10,711,l),
(10,427,l),
(221,427,l),
(364,484,l),
(10,238,l),
(10,0,l),
(322,0,l),
(480,243,l),
(480,0,l),
(715,0,l),
(715,361,l),
(509,511,l),
(715,511,l)
);
}
);
width = 725;
}
);
subCategory = special;
},
{
category = Letter;
color = 1;
glyphname = c.comp;
lastChange = "2021-12-20 09:20:25 +0000";
layers = (
{
anchors = (
{
name = bottom;
pos = (360,0);
},
{
name = top;
pos = (360,680);
}
);
hints = (
{
name = _corner.arrow;
origin = (3,7);
type = Corner;
},
{
name = _corner.arrow;
origin = (0,10);
type = Corner;
},
{
name = _corner.arrow;
origin = (0,11);
type = Corner;
},
{
name = _corner.arrow;
origin = (0,12);
type = Corner;
},
{
name = _corner.arrow;
origin = (0,3);
type = Corner;
},
{
name = _corner.arrow;
origin = (0,4);
type = Corner;
},
{
name = _corner.arrow;
origin = (0,5);
type = Corner;
}
);
layerId = m002;
shapes = (
{
closed = 1;
nodes = (
(340,0,l),
(460,60,l),
(420,85,l),
(420,0,l),
(680,0,l),
(680,240,l),
(320,240,l),
(320,420,l),
(340,420,l),
(520,340,l),
(680,340,l),
(680,680,l),
(460,680,l),
(460,600,l),
(500,620,l),
(380,680,l),
(140,680,l),
(20,560,l),
(20,120,l),
(140,0,l)
);
}
);
width = 700;
},
{
anchors = (
{
name = bottom;
pos = (140,0);
},
{
name = top;
pos = (140,680);
}
);
hints = (
{
name = _corner.arrow;
origin = (3,7);
type = Corner;
},
{
name = _corner.arrow;
origin = (0,3);
type = Corner;
},
{
name = _corner.arrow;
origin = (0,4);
type = Corner;
},
{
name = _corner.arrow;
origin = (0,5);
type = Corner;
},
{
name = _corner.arrow;
origin = (0,10);
type = Corner;
},
{
name = _corner.arrow;
origin = (0,11);
type = Corner;
},
{
name = _corner.arrow;
origin = (0,12);
type = Corner;
}
);
layerId = "A70D3E7C-EDA6-440E-AC35-67945F302293";
shapes = (
{
closed = 1;
nodes = (
(120,0,l),
(200,60,l),
(160,80,l),
(160,0,l),
(240,0,l),
(240,180,l),
(120,180,l),
(120,500,l),
(140,500,l),
(200,400,l),
(240,400,l),
(240,680,l),
(160,680,l),
(160,600,l),
(200,620,l),
(120,680,l),
(80,680,l),
(20,620,l),
(20,60,l),
(80,0,l)
);
}
);
width = 260;
}
);
subCategory = special;
},
{
category = Letter;
color = 1;
glyphname = e.comp;
lastChange = "2022-01-14 10:09:14 +0000";
layers = (
{
anchors = (
{
name = bottom;
pos = (360,0);
},
{
name = ogonek;
pos = (680,0);
},
{
name = top;
pos = (360,680);
}
);
hints = (
{
name = _corner.arrow;
origin = (0,5);
type = Corner;
},
{
name = _corner.arrow;
origin = (0,10);
type = Corner;
},
{
name = _corner.arrow;
origin = (0,11);
type = Corner;
}
);
layerId = m002;
shapes = (
{
closed = 1;
nodes = (
(450,440,l),
(240,360,l),
(260,280,l),
(440,280,l),
(680,350,l),
(680,680,l),
(160,680,l),
(20,540,l),
(20,100,l),
(160,0,l),
(680,0,l),
(680,240,l),
(280,240,l),
(280,460,l),
(450,460,l)
);
}
);
width = 700;
},
{
anchors = (
{
name = bottom;
pos = (140,0);
},
{
name = ogonek;
pos = (260,0);
},
{
name = top;
pos = (140,680);
}
);
hints = (
{
name = _corner.arrow;
origin = (0,5);
type = Corner;
},
{
name = _corner.arrow;
origin = (0,10);
type = Corner;
},
{
name = _corner.arrow;
origin = (0,11);
type = Corner;
}
);
layerId = "A70D3E7C-EDA6-440E-AC35-67945F302293";
shapes = (
{
closed = 1;
nodes = (
(160,420,l),
(80,300,l),
(80,200,l),
(120,200,l),
(260,380,l),
(260,680,l),
(100,680,l),
(20,620,l),
(20,60,l),
(100,0,l),
(260,0,l),
(260,180,l),
(120,180,l),
(120,540,l),
(160,540,l)
);
}
);
width = 280;
}
);
subCategory = special;
},
{
color = 1;
glyphname = g.comp;
lastChange = "2022-01-14 10:09:31 +0000";
layers = (
{
anchors = (
{
name = bottom;
pos = (360,-180);
},
{
name = top;
pos = (360,680);
}
);
hints = (
{
name = _corner.arrow;
origin = (0,9);
type = Corner;
},
{
name = _corner.arrow;
origin = (0,13);
type = Corner;
},
{
name = _corner.arrow;
origin = (0,14);
type = Corner;
},
{
name = _corner.arrow;
origin = (0,2);
type = Corner;
},
{
name = _corner.arrow;
origin = (0,3);
type = Corner;
}
);
layerId = m002;
shapes = (
{
closed = 1;
nodes = (
(500,-180,l),
(680,0,l),
(680,680,l),
(460,680,l),
(460,560,l),
(480,560,l),
(400,680,l),
(160,680,l),
(20,540,l),
(20,80,l),
(400,80,l),
(460,160,l),
(460,40,l),
(20,40,l),
(20,-180,l)
);
},
{
closed = 1;
nodes = (
(240,480,l),
(380,480,l),
(460,400,l),
(460,360,l),
(340,360,l),
(280,280,l),
(240,280,l)
);
}
);
width = 700;
},
{
anchors = (
{
name = bottom;
pos = (180,-180);
},
{
name = top;
pos = (180,680);
}
);
hints = (
{
name = _corner.arrow;
origin = (0,2);
type = Corner;
},
{
name = _corner.arrow;
origin = (0,3);
type = Corner;
},
{
name = _corner.arrow;
origin = (0,9);
type = Corner;
},
{
name = _corner.arrow;
origin = (0,13);
type = Corner;
},
{
name = _corner.arrow;
origin = (0,14);
type = Corner;
}
);
layerId = "A70D3E7C-EDA6-440E-AC35-67945F302293";
shapes = (
{
closed = 1;
nodes = (
(200,-180,l),
(300,-80,l),
(300,680,l),
(210,680,l),
(210,480,l),
(240,480,l),
(180,680,l),
(80,680,l),
(20,620,l),
(20,40,l),
(160,40,l),
(200,160,l),
(200,0,l),
(20,0,l),
(20,-180,l)
);
},
{
closed = 1;
nodes = (
(120,540,l),
(140,540,l),
(200,340,l),
(200,280,l),
(180,280,l),
(140,180,l),
(120,180,l)
);
}
);
width = 320;
}
);
subCategory = special;
},
{
category = Letter;
color = 1;
glyphname = n.comp;
lastChange = "2021-12-20 09:20:25 +0000";
layers = (
{
anchors = (
{
name = bottom;
pos = (360,0);
},
{
name = top;
pos = (360,680);
}
);
hints = (
{
name = _corner.arrow;
origin = (0,11);
type = Corner;
},
{
name = _corner.arrow;
origin = (0,10);
type = Corner;
},
{
name = _corner.arrow;
origin = (0,12);
type = Corner;
},
{
name = _corner.arrow;
origin = (0,16);
type = Corner;
},
{
name = _corner.arrow;
origin = (0,17);
type = Corner;
},
{
name = _corner.arrow;
origin = (0,18);
type = Corner;
},
{
name = _corner.arrow;
origin = (0,0);
type = Corner;
},
{
name = _corner.arrow;
origin = (0,1);
type = Corner;
},
{
name = _corner.arrow;
origin = (0,2);
type = Corner;
}
);
layerId = m002;
shapes = (
{
closed = 1;
nodes = (
(380,0,l),
(680,0,l),
(680,220,l),
(600,220,l),
(620,180,l),
(680,320,l),
(680,560,l),
(560,680,l),
(360,680,l),
(280,600,l),
(280,680,l),
(20,680,l),
(20,400,l),
(100,400,l),
(80,440,l),
(20,320,l),
(20,0,l),
(320,0,l),
(320,220,l),
(240,220,l),
(260,180,l),
(320,320,l),
(320,400,l),
(380,400,l)
);
}
);
width = 700;
},
{
anchors = (
{
name = bottom;
pos = (140,0);
},
{
name = top;
pos = (140,680);
}
);
hints = (
{
name = _corner.arrow;
origin = (0,0);
type = Corner;
},
{
name = _corner.arrow;
origin = (0,1);
type = Corner;
},
{
name = _corner.arrow;
origin = (0,2);
type = Corner;
},
{
name = _corner.arrow;
origin = (0,10);
type = Corner;
},
{
name = _corner.arrow;
origin = (0,11);
type = Corner;
},
{
name = _corner.arrow;
origin = (0,12);
type = Corner;
},
{
name = _corner.arrow;
origin = (0,16);
type = Corner;
},
{
name = _corner.arrow;
origin = (0,17);
type = Corner;
},
{
name = _corner.arrow;
origin = (0,18);
type = Corner;
}
);
layerId = "A70D3E7C-EDA6-440E-AC35-67945F302293";
shapes = (
{
closed = 1;
nodes = (
(160,0,l),
(260,0,l),
(260,180,l),
(180,180,l),
(200,140,l),
(260,320,l),
(260,620,l),
(200,680,l),
(160,680,l),
(120,640,l),
(120,680,l),
(20,680,l),
(20,500,l),
(80,500,l),
(60,540,l),
(20,420,l),
(20,0,l),
(120,0,l),
(120,180,l),
(40,180,l),
(60,140,l),
(120,240,l),
(120,500,l),
(160,500,l)
);
}
);
width = 280;
}
);
subCategory = special;
},
{
category = Letter;
color = 1;
glyphname = o.comp;
lastChange = "2021-12-20 09:20:25 +0000";
layers = (
{
anchors = (
{
name = bottom;
pos = (340,0);
},
{
name = center;
pos = (340,360);
},
{
name = ogonek;
pos = (640,20);
},
{
name = top;
pos = (340,680);
},
{
name = topright;
pos = (680,720);
}
);
background = {
shapes = (
{
closed = 0;
nodes = (
(320,580,l),
(140,400,l)
);
},
{
closed = 0;
nodes = (
(620,240,l),
(440,80,l)
);
}
);
};
hints = (
{
name = _corner.arrow;
origin = (0,5);
type = Corner;
},
{
name = _corner.arrow;
origin = (0,2);
type = Corner;
}
);
layerId = m002;
shapes = (
{
closed = 1;
nodes = (
(500,0,l),
(660,160,l),
(660,680,l),
(180,680,l),
(20,520,l),
(20,0,l)
);
},
{
closed = 1;
nodes = (
(340,280,l),
(220,340,l),
(220,480,l),
(300,480,l),
(340,400,l),
(460,340,l),
(460,200,l),
(380,200,l)
);
}
);
width = 680;
},
{
anchors = (
{
name = bottom;
pos = (140,0);
},
{
name = center;
pos = (140,360);
},
{
name = ogonek;
pos = (260,20);
},
{
name = top;
pos = (140,680);
},
{
name = topright;
pos = (260,720);
}
);
background = {
shapes = (
{
closed = 0;
nodes = (
(337,573,l),
(169,405,l)
);
},
{
closed = 0;
nodes = (
(636,240,l),
(468,72,l)
);
}
);
};
hints = (
{
name = _corner.arrow;
origin = (0,2);
type = Corner;
},
{
name = _corner.arrow;
origin = (0,5);
type = Corner;
}
);
layerId = "A70D3E7C-EDA6-440E-AC35-67945F302293";
shapes = (
{
closed = 1;
nodes = (
(200,0,l),
(260,80,l),
(260,680,l),
(80,680,l),
(20,620,l),
(20,0,l)
);
},
{
closed = 1;
nodes = (
(140,280,l),
(100,380,l),
(100,520,l),
(140,520,l),
(140,420,l),
(180,320,l),
(180,160,l),
(140,160,l)
);
}
);
width = 280;
}
);
subCategory = special;
},
{
color = 1;
glyphname = r.comp;
lastChange = "2022-01-14 10:10:50 +0000";
layers = (
{
anchors = (
{
name = bottom;
pos = (290,0);
},
{
name = top;
pos = (290,680);
}
);
hints = (
{
name = _corner.arrow;
origin = (0,12);
type = Corner;
},
{
name = _corner.arrow;
origin = (0,11);
type = Corner;
},
{
name = _corner.arrow;
origin = (0,7);
type = Corner;
},
{
name = _corner.arrow;
origin = (0,6);
type = Corner;
},
{
name = _corner.arrow;
origin = (0,1);
type = Corner;
},
{
name = _corner.arrow;
origin = (0,0);
type = Corner;
},
{
name = _corner.arrow;
origin = (0,17);
type = Corner;
},
{
name = _corner.arrow;
origin = (0,13);
type = Corner;
}
);
layerId = m002;
shapes = (
{
closed = 1;
nodes = (
(360,0,l),
(360,220,l),
(280,220,l),
(300,180,l),
(360,280,l),
(360,340,l),
(540,340,l),
(540,680,l),
(360,680,l),
(140,480,l),
(260,480,l),
(260,680,l),
(20,680,l),
(20,400,l),
(100,400,l),
(80,440,l),
(20,320,l),
(20,0,l)
);
}
);
width = 560;
},
{
anchors = (
{
name = bottom;
pos = (120,0);
},
{
name = top;
pos = (120,720);
}
);
background = {
hints = (
{
name = _corner.arrow;
origin = (0,0);
type = Corner;
},
{
name = _corner.arrow;
origin = (0,1);
type = Corner;
},
{
name = _corner.arrow;
origin = (0,6);
type = Corner;
},
{
name = _corner.arrow;
origin = (0,7);
type = Corner;
},
{
name = _corner.arrow;
origin = (0,11);
type = Corner;
},
{
name = _corner.arrow;
origin = (0,12);
type = Corner;
},
{
name = _corner.arrow;
origin = (0,13);
type = Corner;
},
{
name = _corner.arrow;
origin = (0,17);
type = Corner;
}
);
shapes = (
{
closed = 1;
nodes = (
(120,0,l),
(120,180,l),
(40,180,l),
(60,140,l),
(120,240,l),
(120,480,l),
(220,480,l),
(220,680,l),
(180,680,l),
(60,560,l),
(120,560,l),
(120,680,l),
(20,680,l),
(20,480,l),
(80,480,l),
(60,520,l),
(20,400,l),
(20,0,l)
);
}
);
};
hints = (
{
name = _corner.arrow;
origin = (0,17);
type = Corner;
},
{
name = _corner.arrow;
origin = (0,0);
type = Corner;
},
{
name = _corner.arrow;
origin = (0,1);
type = Corner;
},
{
name = _corner.arrow;
origin = (0,13);
type = Corner;
},
{
name = _corner.arrow;
origin = (0,6);
type = Corner;
},
{
name = _corner.arrow;
origin = (0,7);
type = Corner;
},
{
name = _corner.arrow;
origin = (0,11);
type = Corner;
},
{
name = _corner.arrow;
origin = (0,12);
type = Corner;
}
);
layerId = "A70D3E7C-EDA6-440E-AC35-67945F302293";
shapes = (
{
closed = 1;
nodes = (
(120,0,l),
(120,180,l),
(40,180,l),
(60,140,l),
(120,240,l),
(120,480,l),
(220,480,l),
(220,680,l),
(180,680,l),
(60,560,l),
(120,560,l),
(120,680,l),
(20,680,l),
(20,480,l),
(80,480,l),
(60,520,l),
(20,400,l),
(20,0,l)
);
}
);
width = 240;
}
);
subCategory = special;
},
{
category = Letter;
color = 1;
glyphname = s.comp;
lastChange = "2022-01-14 10:11:10 +0000";
layers = (
{
anchors = (
{
name = bottom;
pos = (360,0);
},
{
name = top;
pos = (360,680);
}
);
background = {
shapes = (
{
closed = 1;
nodes = (
(260,353,ls),
(252,337,o),
(245,323,o),
(227,323,cs),
(210,323,o),
(201,333,o),
(201,356,cs),
(201,453,ls),
(201,488,o),
(226,513,o),
(263,513,cs),
(310,513,ls),
(342,513,o),
(372,507,o),
(395,493,cs),
(558,389,ls),
(572,380,o),
(588,376,o),
(606,376,cs),
(612,376,ls),
(630,376,o),
(645,390,o),
(645,410,cs),
(645,623,ls),
(645,635,o),
(641,640,o),
(629,640,cs),
(449,640,ls),
(439,640,o),
(431,635,o),
(431,625,cs),
(431,613,o),
(435,598,o),
(444,576,cs),
(480,497,l),
(473,497,l),
(416,588,ls),
(396,618,o),
(368,640,o),
(331,640,cs),
(78,640,ls),
(43,640,o),
(25,613,o),
(25,579,cs),
(25,365,ls),
(25,335,o),
(39,315,o),
(74,293,cs),
(222,201,ls),
(244,187,o),
(264,177,o),
(291,177,cs),
(339,177,o),
(363,200,o),
(379,230,cs),
(409,287,ls),
(417,303,o),
(425,317,o),
(442,317,cs),
(460,317,o),
(468,307,o),
(468,284,cs),
(468,187,ls),
(468,152,o),
(443,127,o),
(407,127,cs),
(359,127,ls),
(328,127,o),
(298,133,o),
(275,147,cs),
(112,251,ls),
(98,260,o),
(82,264,o),
(64,264,cs),
(57,264,ls),
(38,264,o),
(25,250,o),
(25,230,cs),
(25,17,ls),
(25,5,o),
(29,0,o),
(39,0,cs),
(220,0,ls),
(231,0,o),
(242,5,o),
(242,15,cs),
(242,27,o),
(235,42,o),
(225,64,cs),
(189,143,l),
(197,143,l),
(253,52,ls),
(273,22,o),
(302,0,o),
(338,0,cs),
(592,0,ls),
(626,0,o),
(645,27,o),
(645,61,cs),
(645,97,o),
(645,134,o),
(645,170,cs),
(645,205,o),
(645,241,o),
(645,275,cs),
(645,305,o),
(629,325,o),
(595,347,cs),
(448,439,ls),
(426,453,o),
(405,463,o),
(378,463,cs),
(330,463,o),
(306,440,o),
(290,410,cs)
);
}
);
};
hints = (
{
name = _corner.arrow;
origin = (0,6);
type = Corner;
},
{
name = _corner.arrow;
origin = (0,7);
type = Corner;
},
{
name = _corner.arrow;
origin = (0,8);
type = Corner;
},
{
name = _corner.arrow;
origin = (0,20);
type = Corner;
},
{
name = _corner.arrow;
origin = (0,21);
type = Corner;
},
{
name = _corner.arrow;
origin = (0,22);
type = Corner;
}
);
layerId = m002;
shapes = (
{
closed = 1;
nodes = (
(120,260,l),
(360,260,l),
(420,290,l),
(420,220,l),
(120,220,l),
(120,220,l),
(20,220,l),
(20,0,l),
(280,0,l),
(280,40,l),
(360,0,l),
(560,0,l),
(680,120,l),
(680,320,l),
(580,420,l),
(340,420,l),
(280,390,l),
(280,460,l),
(580,460,l),
(580,460,l),
(680,460,l),
(680,680,l),
(420,680,l),
(420,640,l),
(340,680,l),
(140,680,l),
(20,560,l),
(20,320,l)
);
}
);
width = 700;
},
{
anchors = (
{
name = bottom;
pos = (200,0);
},
{
name = top;
pos = (160,680);
}
);
background = {
shapes = (
{
closed = 1;
nodes = (
(260,353,ls),
(252,337,o),
(245,323,o),
(227,323,cs),
(210,323,o),
(201,333,o),
(201,356,cs),
(201,453,ls),
(201,488,o),
(226,513,o),
(263,513,cs),
(310,513,ls),
(342,513,o),
(372,507,o),
(395,493,cs),
(558,389,ls),
(572,380,o),
(588,376,o),
(606,376,cs),
(612,376,ls),
(630,376,o),
(645,390,o),
(645,410,cs),
(645,623,ls),
(645,635,o),
(641,640,o),
(629,640,cs),
(449,640,ls),
(439,640,o),
(431,635,o),
(431,625,cs),
(431,613,o),
(435,598,o),
(444,576,cs),
(480,497,l),
(473,497,l),
(416,588,ls),
(396,618,o),
(368,640,o),
(331,640,cs),
(78,640,ls),
(43,640,o),
(25,613,o),
(25,579,cs),
(25,365,ls),
(25,335,o),
(39,315,o),
(74,293,cs),
(222,201,ls),
(244,187,o),
(264,177,o),
(291,177,cs),
(339,177,o),
(363,200,o),
(379,230,cs),
(409,287,ls),
(417,303,o),
(425,317,o),
(442,317,cs),
(460,317,o),
(468,307,o),
(468,284,cs),
(468,187,ls),
(468,152,o),
(443,127,o),
(407,127,cs),
(359,127,ls),
(328,127,o),
(298,133,o),
(275,147,cs),
(112,251,ls),
(98,260,o),
(82,264,o),
(64,264,cs),
(57,264,ls),
(38,264,o),
(25,250,o),
(25,230,cs),
(25,17,ls),
(25,5,o),
(29,0,o),
(39,0,cs),
(220,0,ls),
(231,0,o),
(242,5,o),
(242,15,cs),
(242,27,o),
(235,42,o),
(225,64,cs),
(189,143,l),
(197,143,l),
(253,52,ls),
(273,22,o),
(302,0,o),
(338,0,cs),
(592,0,ls),
(626,0,o),
(645,27,o),
(645,61,cs),
(645,97,o),
(645,134,o),
(645,170,cs),
(645,205,o),
(645,241,o),
(645,275,cs),
(645,305,o),
(629,325,o),
(595,347,cs),
(448,439,ls),
(426,453,o),
(405,463,o),
(378,463,cs),
(330,463,o),
(306,440,o),
(290,410,cs)
);
}
);
};
hints = (
{
name = _corner.arrow;
origin = (0,6);
type = Corner;
},
{
name = _corner.arrow;
origin = (0,7);
type = Corner;
},
{
name = _corner.arrow;
origin = (0,8);
type = Corner;
},
{
name = _corner.arrow;
origin = (0,20);
type = Corner;
},
{
name = _corner.arrow;
origin = (0,21);
type = Corner;
},
{
name = _corner.arrow;
origin = (0,22);
type = Corner;
}
);
layerId = "A70D3E7C-EDA6-440E-AC35-67945F302293";
shapes = (
{
closed = 1;
nodes = (
(120,220,l),
(140,220,l),
(180,260,l),
(180,160,l),
(120,160,l),
(60,280,l),
(20,280,l),
(20,0,l),
(100,0,l),
(100,40,l),
(140,0,l),
(220,0,l),
(280,60,l),
(280,270,l),
(180,450,l),
(160,450,l),
(120,410,l),
(120,500,l),
(180,500,l),
(240,400,l),
(280,400,l),
(280,680,l),
(200,680,l),
(200,640,l),
(160,680,l),
(80,680,l),
(20,620,l),
(20,410,l)
);
}
);
width = 300;
}
);
subCategory = special;
},
{
color = 1;
glyphname = t.comp;
lastChange = "2022-01-13 03:04:23 +0000";
layers = (
{
anchors = (
{
name = bottom;
pos = (280,0);
},
{
name = center;
pos = (280,360);
},
{
name = top;
pos = (190,860);
},
{
name = topright;
pos = (340,920);
}
);
hints = (
{
name = _corner.arrow;
origin = (0,9);
type = Corner;
},
{
name = _corner.arrow;
origin = (0,0);
type = Corner;
},
{
name = _corner.arrow;
origin = (0,1);
type = Corner;
},
{
name = _corner.arrow;
origin = (3,7);
type = Corner;
},
{
name = _corner.arrow;
origin = (3,7);
type = Corner;
},
{
name = _corner.arrow;
origin = (0,6);
type = Corner;
},
{
name = _corner.arrow;
origin = (0,5);
type = Corner;
},
{
name = _corner.arrow;
origin = (0,10);
type = Corner;
}
);
layerId = m002;
shapes = (
{
closed = 1;
nodes = (
(540,0,l),
(540,280,l),
(280,280,l),
(280,300,l),
(340,340,l),
(540,340,l),
(540,560,l),
(340,560,l),
(280,520,l),
(280,860,l),
(80,860,l),
(20,620,l),
(20,100,l),
(120,0,l)
);
}
);
width = 569;
},
{
anchors = (
{
name = bottom;
pos = (120,0);
},
{
name = center;
pos = (120,360);
},
{
name = top;
pos = (120,720);
},
{
name = topright;
pos = (160,920);
}
);
hints = (
{
name = _corner.arrow;
origin = (3,7);
type = Corner;
},
{
name = _corner.arrow;
origin = (3,7);
type = Corner;
},
{
name = _corner.arrow;
origin = (0,0);
type = Corner;
},
{
name = _corner.arrow;
origin = (0,1);
type = Corner;
},
{
name = _corner.arrow;
origin = (0,5);
type = Corner;
},
{
name = _corner.arrow;
origin = (0,6);
type = Corner;
},
{
name = _corner.arrow;
origin = (0,9);
type = Corner;
},
{
name = _corner.arrow;
origin = (0,10);
type = Corner;
}
);
layerId = "A70D3E7C-EDA6-440E-AC35-67945F302293";
shapes = (
{
closed = 1;
nodes = (
(220,0,l),
(220,180,l),
(120,180,l),
(120,240,l),
(180,280,l),
(220,280,l),
(220,520,l),
(180,520,l),
(120,400,l),
(120,860,l),
(40,860,l),
(20,600,l),
(20,100,l),
(110,0,l)
);
}
);
width = 240;
}
);
subCategory = special;
},
{
color = 1;
glyphname = u.comp;
lastChange = "2022-01-14 10:11:56 +0000";
layers = (
{
anchors = (
{
name = bottom;
pos = (360,0);
},
{
name = ogonek;
pos = (680,0);
},
{
name = top;
pos = (360,680);
},
{
name = topright;
pos = (680,680);
}
);
hints = (
{
name = _corner.arrow;
origin = (0,2);
type = Corner;
},
{
name = _corner.arrow;
origin = (0,1);
type = Corner;
},
{
name = _corner.arrow;
origin = (0,0);
type = Corner;
},
{
name = _corner.arrow;
origin = (0,17);
type = Corner;
},
{
name = _corner.arrow;
origin = (0,16);
type = Corner;
},
{
name = _corner.arrow;
origin = (0,18);
type = Corner;
},
{
name = _corner.arrow;
origin = (0,12);
type = Corner;
},
{
name = _corner.arrow;
origin = (0,11);
type = Corner;
},
{
name = _corner.arrow;
origin = (0,10);
type = Corner;
}
);
layerId = m002;
shapes = (
{
closed = 1;
nodes = (
(320,680,l),
(20,680,l),
(20,460,l),
(100,460,l),
(80,500,l),
(20,360,l),
(20,120,l),
(140,0,l),
(340,0,l),
(420,80,l),
(420,0,l),
(680,0,l),
(680,300,l),
(595,300,l),
(620,260,l),
(680,380,l),
(680,680,l),
(380,680,l),
(380,460,l),
(460,460,l),
(440,500,l),
(380,360,l),
(380,300,l),
(320,300,l)
);
}
);
width = 700;
},
{
anchors = (
{
name = bottom;
pos = (140,0);
},
{
name = ogonek;
pos = (260,0);
},
{
name = top;
pos = (140,680);
},
{
name = topright;
pos = (260,720);
}
);
hints = (
{
name = _corner.arrow;
origin = (0,0);
type = Corner;
},
{
name = _corner.arrow;
origin = (0,1);
type = Corner;
},
{
name = _corner.arrow;
origin = (0,2);
type = Corner;
},
{
name = _corner.arrow;
origin = (0,10);
type = Corner;
},
{
name = _corner.arrow;
origin = (0,11);
type = Corner;
},
{
name = _corner.arrow;
origin = (0,12);
type = Corner;
},
{
name = _corner.arrow;
origin = (0,16);
type = Corner;
},
{
name = _corner.arrow;
origin = (0,17);
type = Corner;
},
{
name = _corner.arrow;
origin = (0,18);
type = Corner;
}
);
layerId = "A70D3E7C-EDA6-440E-AC35-67945F302293";
shapes = (
{
closed = 1;
nodes = (
(120,680,l),
(20,680,l),
(20,540,l),
(80,540,l),
(60,580,l),
(20,480,l),
(20,80,l),
(80,0,l),
(120,0,l),
(160,40,l),
(160,0,l),
(260,0,l),
(260,180,l),
(180,180,l),
(200,140,l),
(260,260,l),
(260,680,l),
(160,680,l),
(160,540,l),
(220,540,l),
(200,580,l),
(160,480,l),
(160,180,l),
(120,180,l)
);
}
);
width = 280;
}
);
subCategory = special;
},
{
color = 1;
glyphname = w.comp;
lastChange = "2022-01-14 10:11:44 +0000";
layers = (
{
anchors = (
{
name = bottom;
pos = (520,0);
},
{
name = top;
pos = (520,680);
}
);
hints = (
{
name = _corner.arrow;
origin = (0,33);
type = Corner;
},
{
name = _corner.arrow;
origin = (0,34);
type = Corner;
},
{
name = _corner.arrow;
origin = (0,10);
type = Corner;
},
{
name = _corner.arrow;
origin = (0,11);
type = Corner;
},
{
name = _corner.arrow;
origin = (0,22);
type = Corner;
},
{
name = _corner.arrow;
origin = (0,23);
type = Corner;
},
{
name = _corner.arrow;
origin = (0,24);
type = Corner;
}
);
layerId = m002;
shapes = (
{
closed = 1;
nodes = (
(20,120,l),
(140,0,l),
(460,0,l),
(520,100,l),
(580,0,l),
(860,0,l),
(980,120,l),
(980,360,l),
(920,520,l),
(900,460,l),
(980,460,l),
(980,680,l),
(786,680,ls),
(757,680,o),
(748,666,o),
(744,638,cs),
(710,370,l),
(750,290,l),
(650,290,l),
(650,390,l),
(590,520,l),
(570,460,l),
(650,460,l),
(650,680,l),
(370,680,l),
(370,370,l),
(410,290,l),
(270,290,l),
(310,370,l),
(275,638,ls),
(271,665,o),
(261,680,o),
(233,680,cs),
(20,680,l),
(20,460,l),
(105,460,l),
(77,522,l),
(20,360,l)
);
}
);
width = 1000;
},
{
anchors = (
{
name = bottom;
pos = (220,0);
},
{
name = top;
pos = (220,680);
}
);
hints = (
{
name = _corner.arrow;
origin = (0,34);
type = Corner;
},
{
name = _corner.arrow;
origin = (0,10);
type = Corner;
},
{
name = _corner.arrow;
origin = (0,11);
type = Corner;
},
{
name = _corner.arrow;
origin = (0,22);
type = Corner;
},
{
name = _corner.arrow;
origin = (0,23);
type = Corner;
},
{
name = _corner.arrow;
origin = (0,24);
type = Corner;
},
{
name = _corner.arrow;
origin = (0,33);
type = Corner;
}
);
layerId = "A70D3E7C-EDA6-440E-AC35-67945F302293";
shapes = (
{
closed = 1;
nodes = (
(20,80,l),
(100,0,l),
(160,0,l),
(220,100,l),
(280,0,l),
(340,0,l),
(400,80,l),
(400,360,l),
(340,500,l),
(320,460,l),
(400,460,l),
(400,680,l),
(337,680,ls),
(326,680,o),
(320,675,o),
(319,660,cs),
(300,260,l),
(340,180,l),
(260,180,l),
(260,280,l),
(220,560,l),
(200,460,l),
(260,460,l),
(260,680,l),
(160,680,l),
(160,260,l),
(200,180,l),
(80,180,l),
(120,260,l),
(102,660,ls),
(101,675,o),
(95,680,o),
(84,680,cs),
(20,680,l),
(20,460,l),
(100,460,l),
(80,500,l),
(20,360,l)
);
}
);
width = 420;
}
);
subCategory = special;
},
{
color = 1;
glyphname = y.comp;
lastChange = "2022-01-14 10:11:34 +0000";
layers = (
{
anchors = (
{
name = bottom;
pos = (360,0);
},
{
name = top;
pos = (360,680);
}
);
hints = (
{
name = _corner.arrow;
origin = (0,0);
type = Corner;
},
{
name = _corner.arrow;
origin = (0,1);
type = Corner;
},
{
name = _corner.arrow;
origin = (0,6);
type = Corner;
},
{
name = _corner.arrow;
origin = (0,7);
type = Corner;
},
{
name = _corner.arrow;
origin = (0,10);
type = Corner;
},
{
name = _corner.arrow;
origin = (0,11);
type = Corner;
},
{
name = _corner.arrow;
origin = (0,12);
type = Corner;
}
);
layerId = m002;
shapes = (
{
closed = 1;
nodes = (
(20,100,l),
(20,-180,l),
(440,-180,l),
(540,-80,l),
(540,40,l),
(680,180,l),
(680,680,l),
(380,680,l),
(380,330,l),
(340,330,l),
(340,680,l),
(20,680,l),
(20,410,l),
(80,410,l),
(80,260,l),
(200,140,l),
(340,140,l),
(380,180,l),
(380,100,l)
);
}
);
width = 700;
},
{
anchors = (
{
name = bottom;
pos = (160,0);
},
{
name = top;
pos = (160,720);
}
);
background = {
anchors = (
{
name = bottom;
pos = (360,0);
},
{
name = top;
pos = (360,720);
}
);
};
hints = (
{
name = _corner.arrow;
origin = (0,0);
type = Corner;
},
{
name = _corner.arrow;
origin = (0,1);
type = Corner;
},
{
name = _corner.arrow;
origin = (0,6);
type = Corner;
},
{
name = _corner.arrow;
origin = (0,7);
type = Corner;
},
{
name = _corner.arrow;
origin = (0,10);
type = Corner;
},
{
name = _corner.arrow;
origin = (0,11);
type = Corner;
},
{
name = _corner.arrow;
origin = (0,12);
type = Corner;
}
);
layerId = "A70D3E7C-EDA6-440E-AC35-67945F302293";
shapes = (
{
closed = 1;
nodes = (
(20,0,l),
(20,-180,l),
(160,-180,l),
(220,-100,l),
(220,80,l),
(280,140,l),
(280,680,l),
(180,680,l),
(180,220,l),
(140,220,l),
(140,680,l),
(20,680,l),
(20,420,l),
(40,420,l),
(40,80,l),
(80,40,l),
(100,40,l),
(120,60,l),
(120,0,l)
);
}
);
width = 320;
}
);
subCategory = special;
},
{
category = Letter;
color = 1;
glyphname = z.comp;
lastChange = "2022-01-14 09:22:12 +0000";
layers = (
{
anchors = (
{
name = bottom;
pos = (360,0);
},
{
name = center;
pos = (360,360);
},
{
name = top;
pos = (360,681);
}
);
hints = (
{
name = _corner.arrow;
origin = (0,0);
type = Corner;
},
{
name = _corner.arrow;
origin = (0,1);
type = Corner;
},
{
name = _corner.arrow;
origin = (0,5);
type = Corner;
},
{
name = _corner.arrow;
origin = (0,6);
type = Corner;
},
{
name = _corner.arrow;
origin = (0,13);
type = Corner;
},
{
name = _corner.arrow;
origin = (0,14);
type = Corner;
},
{
name = _corner.arrow;
origin = (0,18);
type = Corner;
},
{
name = _corner.arrow;
origin = (0,19);
type = Corner;
}
);
layerId = m002;
shapes = (
{
closed = 1;
nodes = (
(680,680,l),
(420,680,l),
(420,600,l),
(460,610,l),
(340,680,l),
(40,680,l),
(40,480,l),
(100,480,l),
(100,480,l),
(420,480,l),
(400,440,l),
(100,440,l),
(20,300,l),
(20,0,l),
(280,0,l),
(280,80,l),
(240,70,l),
(360,0,l),
(660,0,l),
(660,220,l),
(600,220,l),
(600,220,l),
(280,220,l),
(300,260,l),
(600,260,l),
(680,400,l)
);
}
);
width = 700;
},
{
anchors = (
{
name = bottom;
pos = (160,0);
},
{
name = center;
pos = (160,360);
},
{
name = top;
pos = (160,680);
}
);
hints = (
{
name = _corner.arrow;
origin = (0,0);
type = Corner;
},
{
name = _corner.arrow;
origin = (0,1);
type = Corner;
},
{
name = _corner.arrow;
origin = (0,5);
type = Corner;
},
{
name = _corner.arrow;
origin = (0,6);
type = Corner;
},
{
name = _corner.arrow;
origin = (0,13);
type = Corner;
},
{
name = _corner.arrow;
origin = (0,14);
type = Corner;
},
{
name = _corner.arrow;
origin = (0,18);
type = Corner;
},
{
name = _corner.arrow;
origin = (0,19);
type = Corner;
}
);
layerId = "A70D3E7C-EDA6-440E-AC35-67945F302293";
shapes = (
{
closed = 1;
nodes = (
(280,680,l),
(160,680,l),
(160,600,l),
(220,620,l),
(100,680,l),
(20,680,l),
(20,400,l),
(60,400,l),
(140,540,l),
(180,540,l),
(180,500,l),
(160,500,l),
(20,220,l),
(20,0,l),
(140,0,l),
(140,80,l),
(80,60,l),
(200,0,l),
(280,0,l),
(280,320,l),
(240,320,l),
(160,140,l),
(120,140,l),
(120,180,l),
(140,180,l),
(280,460,l)
);
}
);
width = 300;
}
);
subCategory = special;
},
{
color = 8;
glyphname = i.ss01;
lastChange = "2021-12-20 09:20:25 +0000";
layers = (
{
anchors = (
{
name = bottom;
pos = (260,0);
}
);
hints = (
{
name = _corner.arrow;
origin = (0,5);
type = Corner;
},
{
name = _corner.arrow;
origin = (0,6);
type = Corner;
},
{
name = _corner.arrow;
origin = (1,3);
type = Corner;
},
{
name = _corner.arrow;
origin = (1,2);
type = Corner;
},
{
name = _corner.arrow;
origin = (1,1);
type = Corner;
},
{
name = _corner.arrow;
origin = (1,0);
type = Corner;
},
{
name = _corner.arrow;
origin = (0,9);
type = Corner;
},
{
name = _corner.arrow;
origin = (0,10);
type = Corner;
},
{
name = _corner.arrow;
origin = (0,0);
type = Corner;
},
{
name = _corner.arrow;
origin = (0,1);
type = Corner;
}
);
layerId = m002;
shapes = (
{
closed = 1;
nodes = (
(500,0,l),
(500,260,l),
(420,260,l),
(420,620,l),
(320,720,l),
(20,720,l),
(20,480,l),
(120,480,l),
(120,260,l),
(20,260,l),
(20,0,l)
);
},
{
closed = 1;
nodes = (
(420,760,l),
(420,920,l),
(20,920,l),
(20,760,l)
);
}
);
width = 520;
},
{
anchors = (
{
name = bottom;
pos = (120,0);
}
);
hints = (
{
name = _corner.arrow;
origin = (0,0);
type = Corner;
},
{
name = _corner.arrow;
origin = (0,1);
type = Corner;
},
{
name = _corner.arrow;
origin = (0,5);
type = Corner;
},
{
name = _corner.arrow;
origin = (0,6);
type = Corner;
},
{
name = _corner.arrow;
origin = (0,9);
type = Corner;
},
{
name = _corner.arrow;
origin = (0,10);
type = Corner;
},
{
name = _corner.arrow;
origin = (1,0);
type = Corner;
},
{
name = _corner.arrow;
origin = (1,1);
type = Corner;
},
{
name = _corner.arrow;
origin = (1,2);
type = Corner;
},
{
name = _corner.arrow;
origin = (1,3);
type = Corner;
}
);
layerId = "A70D3E7C-EDA6-440E-AC35-67945F302293";
shapes = (
{
closed = 1;
nodes = (
(200,0,l),
(200,180,l),
(160,180,l),
(160,660,l),
(100,720,l),
(20,720,l),
(20,520,l),
(60,520,l),
(60,180,l),
(20,180,l),
(20,0,l)
);
},
{
closed = 1;
nodes = (
(160,760,l),
(160,880,l),
(20,880,l),
(20,760,l)
);
}
);
width = 220;
}
);
},
{
color = 0;
glyphname = j.ss01;
lastChange = "2021-12-20 09:20:25 +0000";
layers = (
{
background = {
hints = (
{
name = _corner.arrow;
origin = (0,0);
type = Corner;
},
{
name = _corner.arrow;
origin = (0,1);
type = Corner;
},
{
name = _corner.arrow;
origin = (0,2);
type = Corner;
},
{
name = _corner.arrow;
origin = (0,3);
type = Corner;
},
{
name = _corner.arrow;
origin = (1,0);
type = Corner;
},
{
name = _corner.arrow;
origin = (1,1);
type = Corner;
},
{
name = _corner.arrow;
origin = (1,2);
type = Corner;
},
{
name = _corner.arrow;
origin = (1,3);
type = Corner;
}
);
shapes = (
{
closed = 1;
nodes = (
(25,0,l),
(260,0,l),
(260,592,l),
(25,592,l)
);
},
{
closed = 1;
nodes = (
(25,642,l),
(260,642,l),
(260,820,l),
(25,820,l)
);
}
);
};
hints = (
{
name = _corner.arrow;
origin = (0,4);
type = Corner;
},
{
name = _corner.arrow;
origin = (0,5);
type = Corner;
},
{
name = _corner.arrow;
origin = (0,8);
type = Corner;
},
{
name = _corner.arrow;
origin = (0,9);
type = Corner;
},
{
name = _corner.arrow;
origin = (1,0);
type = Corner;
},
{
name = _corner.arrow;
origin = (1,1);
type = Corner;
},
{
name = _corner.arrow;
origin = (1,2);
type = Corner;
},
{
name = _corner.arrow;
origin = (1,3);
type = Corner;
}
);
layerId = m002;
shapes = (
{
closed = 1;
nodes = (
(320,-180,l),
(420,-60,l),
(420,620,l),
(320,720,l),
(20,720,l),
(20,480,l),
(120,480,l),
(120,80,l),
(20,80,l),
(20,-180,l)
);
},
{
closed = 1;
nodes = (
(420,760,l),
(420,920,l),
(20,920,l),
(20,760,l)
);
}
);
width = 440;
},
{
background = {
hints = (
{
name = _corner.arrow;
origin = (0,0);
type = Corner;
},
{
name = _corner.arrow;
origin = (0,1);
type = Corner;
},
{
name = _corner.arrow;
origin = (0,2);
type = Corner;
},
{
name = _corner.arrow;
origin = (0,3);
type = Corner;
},
{
name = _corner.arrow;
origin = (1,0);
type = Corner;
},
{
name = _corner.arrow;
origin = (1,1);
type = Corner;
},
{
name = _corner.arrow;
origin = (1,2);
type = Corner;
},
{
name = _corner.arrow;
origin = (1,3);
type = Corner;
}
);
shapes = (
{
closed = 1;
nodes = (
(15,0,l),
(250,0,l),
(250,592,l),
(15,592,l)
);
},
{
closed = 1;
nodes = (
(15,642,l),
(250,642,l),
(250,820,l),
(15,820,l)
);
}
);
};
guides = (
{
pos = (159,-40);
}
);
hints = (
{
name = _corner.arrow;
origin = (0,4);
type = Corner;
},
{
name = _corner.arrow;
origin = (0,5);
type = Corner;
},
{
name = _corner.arrow;
origin = (0,8);
type = Corner;
},
{
name = _corner.arrow;
origin = (0,9);
type = Corner;
},
{
name = _corner.arrow;
origin = (1,0);
type = Corner;
},
{
name = _corner.arrow;
origin = (1,1);
type = Corner;
},
{
name = _corner.arrow;
origin = (1,2);
type = Corner;
},
{
name = _corner.arrow;
origin = (1,3);
type = Corner;
}
);
layerId = "A70D3E7C-EDA6-440E-AC35-67945F302293";
shapes = (
{
closed = 1;
nodes = (
(90,-180,l),
(150,-120,l),
(150,660,l),
(90,720,l),
(10,720,l),
(10,520,l),
(50,520,l),
(50,-40,l),
(10,-40,l),
(10,-180,l)
);
},
{
closed = 1;
nodes = (
(150,760,l),
(150,880,l),
(10,880,l),
(10,760,l)
);
}
);
width = 170;
}
);
},
{
color = 8;
glyphname = l.ss01;
lastChange = "2021-12-20 09:20:25 +0000";
layers = (
{
anchors = (
{
name = bottom;
pos = (220,0);
},
{
name = center;
pos = (220,460);
},
{
name = top;
pos = (220,920);
},
{
name = topright;
pos = (420,920);
}
);
hints = (
{
name = _corner.arrow;
origin = (0,7);
type = Corner;
},
{
name = _corner.arrow;
origin = (0,8);
type = Corner;
},
{
name = _corner.arrow;
origin = (0,1);
type = Corner;
},
{
name = _corner.arrow;
origin = (0,2);
type = Corner;
},
{
name = _corner.arrow;
origin = (0,6);
type = Corner;
}
);
layerId = m002;
shapes = (
{
closed = 1;
nodes = (
(160,0,l),
(420,0,l),
(420,280,l),
(275,280,l),
(295,243,l),
(360,340,l),
(360,860,l),
(20,860,l),
(20,600,l),
(100,600,l),
(80,640,l),
(20,520,l),
(20,140,l)
);
}
);
width = 440;
},
{
anchors = (
{
name = bottom;
pos = (100,0);
},
{
name = center;
pos = (100,460);
},
{
name = top;
pos = (100,920);
},
{
name = topright;
pos = (160,920);
}
);
hints = (
{
name = _corner.arrow;
origin = (0,7);
type = Corner;
},
{
name = _corner.arrow;
origin = (0,8);
type = Corner;
},
{
name = _corner.arrow;
origin = (0,1);
type = Corner;
},
{
name = _corner.arrow;
origin = (0,2);
type = Corner;
},
{
name = _corner.arrow;
origin = (0,6);
type = Corner;
}
);
layerId = "A70D3E7C-EDA6-440E-AC35-67945F302293";
shapes = (
{
closed = 1;
nodes = (
(100,0,l),
(160,0,l),
(160,240,l),
(40,240,l),
(60,200,l),
(140,300,l),
(140,880,l),
(20,880,l),
(20,660,l),
(100,660,l),
(80,700,l),
(20,580,l),
(20,80,l)
);
}
);
width = 180;
}
);
},
{
color = 8;
glyphname = t.ss01;
lastChange = "2022-01-13 02:31:03 +0000";
layers = (
{
anchors = (
{
name = bottom;
pos = (360,0);
},
{
name = center;
pos = (360,360);
},
{
name = top;
pos = (360,720);
},
{
name = topright;
pos = (680,920);
}
);
hints = (
{
name = _corner.arrow;
origin = (0,12);
type = Corner;
},
{
name = _corner.arrow;
origin = (0,13);
type = Corner;
},
{
name = _corner.arrow;
origin = (0,0);
type = Corner;
},
{
name = _corner.arrow;
origin = (3,7);
type = Corner;
},
{
name = _corner.arrow;
origin = (0,1);
type = Corner;
},
{
name = _corner.arrow;
origin = (0,5);
type = Corner;
},
{
name = _corner.arrow;
origin = (0,6);
type = Corner;
},
{
name = _corner.arrow;
origin = (0,9);
type = Corner;
}
);
layerId = m002;
shapes = (
{
closed = 1;
nodes = (
(680,0,l),
(680,280,l),
(460,280,l),
(460,360,l),
(510,400,l),
(680,400,l),
(680,720,l),
(510,720,l),
(460,680,l),
(460,860,l),
(280,860,l),
(140,720,l),
(20,720,l),
(20,400,l),
(160,400,l),
(160,120,l),
(280,0,l)
);
}
);
width = 700;
},
{
anchors = (
{
name = bottom;
pos = (120,0);
},
{
name = center;
pos = (120,360);
},
{
name = top;
pos = (120,720);
},
{
name = topright;
pos = (240,920);
}
);
hints = (
{
name = _corner.arrow;
origin = (0,12);
type = Corner;
},
{
name = _corner.arrow;
origin = (0,13);
type = Corner;
},
{
name = _corner.arrow;
origin = (0,0);
type = Corner;
},
{
name = _corner.arrow;
origin = (3,7);
type = Corner;
},
{
name = _corner.arrow;
origin = (0,1);
type = Corner;
},
{
name = _corner.arrow;
origin = (0,5);
type = Corner;
},
{
name = _corner.arrow;
origin = (0,6);
type = Corner;
},
{
name = _corner.arrow;
origin = (0,9);
type = Corner;
}
);
layerId = "A70D3E7C-EDA6-440E-AC35-67945F302293";
shapes = (
{
closed = 1;
nodes = (
(220,0,l),
(220,240,l),
(180,240,l),
(180,520,l),
(180,520,l),
(220,520,l),
(220,720,l),
(180,720,l),
(180,720,l),
(180,880,l),
(120,880,l),
(60,720,l),
(20,720,l),
(20,520,l),
(60,520,l),
(60,80,l),
(140,0,l)
);
}
);
width = 240;
}
);
},
{
color = 8;
glyphname = f.ss02;
lastChange = "2022-01-13 02:31:26 +0000";
layers = (
{
anchors = (
{
name = bottom;
pos = (300,0);
},
{
name = top;
pos = (300,920);
}
);
hints = (
{
name = _corner.arrow;
origin = (0,6);
type = Corner;
},
{
name = _corner.arrow;
origin = (0,7);
type = Corner;
},
{
name = _corner.arrow;
origin = (0,10);
type = Corner;
},
{
name = _corner.arrow;
origin = (0,11);
type = Corner;
},
{
name = _corner.arrow;
origin = (0,14);
type = Corner;
}
);
layerId = m002;
shapes = (
{
closed = 1;
nodes = (
(220,-180,l,{
GSCap = {
name = _cap.orgo;
options = "2";
};
}),
(320,0,l),
(320,200,l),
(280,280,l),
(280,450,l),
(185,320,l),
(540,320,l),
(540,570,l),
(280,570,l),
(240,629,l),
(560,629,l),
(560,860,l),
(200,860,l),
(20,580,l),
(20,-180,l)
);
}
);
width = 580;
},
{
anchors = (
{
name = bottom;
pos = (120,0);
},
{
name = top;
pos = (120,920);
}
);
hints = (
{
name = _corner.arrow;
origin = (0,6);
type = Corner;
},
{
name = _corner.arrow;
origin = (0,7);
type = Corner;
},
{
name = _corner.arrow;
origin = (0,10);
type = Corner;
},
{
name = _corner.arrow;
origin = (0,11);
type = Corner;
},
{
name = _corner.arrow;
origin = (0,14);
type = Corner;
}
);
layerId = "A70D3E7C-EDA6-440E-AC35-67945F302293";
shapes = (
{
closed = 1;
nodes = (
(100,-180,l,{
GSCap = {
name = _cap.orgo;
options = "2";
};
}),
(120,0,l),
(120,260,l),
(100,340,l),
(100,460,l),
(160,340,l),
(200,340,l),
(200,600,l),
(140,600,l),
(100,660,l),
(200,660,l),
(200,860,l),
(120,860,l),
(20,660,l),
(20,-180,l)
);
}
);
width = 220;
}
);
},
{
color = 8;
glyphname = g.ss02;
lastChange = "2021-12-20 09:20:25 +0000";
layers = (
{
anchors = (
{
name = bottom;
pos = (380,-180);
},
{
name = top;
pos = (380,720);
}
);
hints = (
{
name = _corner.arrow;
origin = (2,12);
type = Corner;
},
{
name = _corner.arrow;
origin = (2,11);
type = Corner;
},
{
name = _corner.arrow;
origin = (2,8);
type = Corner;
},
{
name = _corner.arrow;
origin = (2,1);
type = Corner;
},
{
name = _corner.arrow;
origin = (2,17);
type = Corner;
}
);
layerId = m002;
shapes = (
{
closed = 1;
nodes = (
(280,580,l),
(420,580,l),
(420,520,l),
(280,520,l)
);
},
{
closed = 1;
nodes = (
(520,680,l),
(440,820,l),
(140,820,l),
(20,680,l),
(20,420,l),
(140,300,l),
(440,300,l),
(520,400,l),
(580,400,l),
(580,680,l)
);
},
{
closed = 1;
nodes = (
(740,-60,l),
(740,140,l),
(480,140,l),
(480,40,l),
(280,40,l),
(280,100,l),
(560,100,l),
(740,280,l),
(740,520,l),
(580,520,l),
(740,660,l),
(740,820,l),
(500,820,l),
(500,300,l),
(460,260,l),
(140,260,l),
(20,160,l),
(20,-180,l),
(620,-180,l)
);
}
);
width = 760;
},
{
anchors = (
{
name = bottom;
pos = (380,-180);
},
{
name = top;
pos = (380,720);
}
);
hints = (
{
name = _corner.arrow;
origin = (2,12);
type = Corner;
},
{
name = _corner.arrow;
origin = (2,11);
type = Corner;
},
{
name = _corner.arrow;
origin = (2,8);
type = Corner;
},
{
name = _corner.arrow;
origin = (2,1);
type = Corner;
},
{
name = _corner.arrow;
origin = (2,17);
type = Corner;
}
);
layerId = "A70D3E7C-EDA6-440E-AC35-67945F302293";
shapes = (
{
closed = 1;
nodes = (
(280,580,l),
(420,580,l),
(420,520,l),
(280,520,l)
);
},
{
closed = 1;
nodes = (
(520,680,l),
(440,820,l),
(140,820,l),
(20,680,l),
(20,420,l),
(140,300,l),
(440,300,l),
(520,400,l),
(580,400,l),
(580,680,l)
);
},
{
closed = 1;
nodes = (
(740,-60,l),
(740,140,l),
(480,140,l),
(480,40,l),
(280,40,l),
(280,100,l),
(560,100,l),
(740,280,l),
(740,520,l),
(580,520,l),
(740,660,l),
(740,820,l),
(500,820,l),
(500,300,l),
(460,260,l),
(140,260,l),
(20,160,l),
(20,-180,l),
(620,-180,l)
);
}
);
width = 760;
}
);
},
{
color = 8;
glyphname = a.ss03;
lastChange = "2021-12-20 09:20:25 +0000";
layers = (
{
anchors = (
{
name = bottom;
pos = (360,0);
},
{
name = ogonek;
pos = (640,20);
},
{
name = top;
pos = (360,720);
}
);
hints = (
{
name = _corner.arrow;
origin = (0,11);
type = Corner;
},
{
name = _corner.arrow;
origin = (0,10);
type = Corner;
},
{
name = _corner.arrow;
origin = (0,14);
type = Corner;
},
{
name = _corner.arrow;
origin = (0,4);
type = Corner;
},
{
name = _corner.arrow;
origin = (0,3);
type = Corner;
}
);
layerId = m002;
shapes = (
{
closed = 1;
nodes = (
(360,0,l),
(476,87,l),
(440,105,l),
(440,0,l),
(680,0,l),
(680,600,l),
(560,720,l),
(320,720,l),
(280,680,l),
(240,720,l),
(20,720,l),
(20,420,l),
(160,420,l),
(20,280,l),
(20,0,l)
);
},
{
closed = 1;
nodes = (
(300,260,l),
(440,420,l),
(440,240,l),
(300,240,l)
);
}
);
width = 700;
},
{
associatedMasterId = m002;
layerId = "41E64BBC-7021-4818-931B-3E095C9A2D18";
name = "4 Dec 21, 04:31";
shapes = (
{
closed = 1;
nodes = (
(480,427,l),
(480,246,l),
(233,246,l)
);
},
{
closed = 1;
nodes = (
(567,711,l),
(340,711,l),
(163,480,l),
(245,630,l),
(245,711,l),
(10,711,l),
(10,427,l),
(221,427,l),
(364,484,l),
(10,238,l),
(10,0,l),
(322,0,l),
(480,243,l),
(480,0,l),
(715,0,l),
(715,361,l),
(509,511,l),
(715,511,l)
);
}
);
width = 725;
},
{
anchors = (
{
name = bottom;
pos = (360,0);
},
{
name = ogonek;
pos = (640,20);
},
{
name = top;
pos = (360,720);
}
);
hints = (
{
name = _corner.arrow;
origin = (0,11);
type = Corner;
},
{
name = _corner.arrow;
origin = (0,10);
type = Corner;
},
{
name = _corner.arrow;
origin = (0,14);
type = Corner;
},
{
name = _corner.arrow;
origin = (0,4);
type = Corner;
},
{
name = _corner.arrow;
origin = (0,3);
type = Corner;
}
);
layerId = "A70D3E7C-EDA6-440E-AC35-67945F302293";
shapes = (
{
closed = 1;
nodes = (
(360,0,l),
(476,87,l),
(440,105,l),
(440,0,l),
(680,0,l),
(680,600,l),
(560,720,l),
(320,720,l),
(280,680,l),
(240,720,l),
(20,720,l),
(20,420,l),
(160,420,l),
(20,280,l),
(20,0,l)
);
},
{
closed = 1;
nodes = (
(300,260,l),
(440,420,l),
(440,240,l),
(300,240,l)
);
}
);
width = 700;
},
{
associatedMasterId = "A70D3E7C-EDA6-440E-AC35-67945F302293";
layerId = "0B3F54A8-9164-4FAD-A180-1D34A8569453";
name = "4 Dec 21, 04:31";
shapes = (
{
closed = 1;
nodes = (
(480,427,l),
(480,246,l),
(233,246,l)
);
},
{
closed = 1;
nodes = (
(567,711,l),
(340,711,l),
(163,480,l),
(245,630,l),
(245,711,l),
(10,711,l),
(10,427,l),
(221,427,l),
(364,484,l),
(10,238,l),
(10,0,l),
(322,0,l),
(480,243,l),
(480,0,l),
(715,0,l),
(715,361,l),
(509,511,l),
(715,511,l)
);
}
);
width = 725;
}
);
},
{
color = 8;
glyphname = g.ss03;
lastChange = "2021-12-20 09:20:25 +0000";
layers = (
{
anchors = (
{
name = bottom;
pos = (360,-180);
},
{
name = top;
pos = (360,720);
}
);
hints = (
{
name = _corner.arrow;
origin = (0,9);
type = Corner;
},
{
name = _corner.arrow;
origin = (0,13);
type = Corner;
},
{
name = _corner.arrow;
origin = (0,14);
type = Corner;
},
{
name = _corner.arrow;
origin = (0,2);
type = Corner;
},
{
name = _corner.arrow;
origin = (0,3);
type = Corner;
}
);
layerId = m002;
shapes = (
{
closed = 1;
nodes = (
(500,0,l),
(680,180,l),
(680,720,l),
(460,720,l),
(460,595,l),
(487,604,l),
(400,720,l),
(160,720,l),
(20,580,l),
(20,260,l),
(400,260,l),
(460,340,l),
(460,220,l),
(20,220,l),
(20,0,l)
);
},
{
closed = 1;
nodes = (
(220,520,l),
(400,520,l),
(440,460,l),
(220,460,l)
);
}
);
width = 700;
},
{
anchors = (
{
name = bottom;
pos = (360,-180);
},
{
name = top;
pos = (360,720);
}
);
hints = (
{
name = _corner.arrow;
origin = (0,9);
type = Corner;
},
{
name = _corner.arrow;
origin = (0,13);
type = Corner;
},
{
name = _corner.arrow;
origin = (0,14);
type = Corner;
},
{
name = _corner.arrow;
origin = (0,2);
type = Corner;
},
{
name = _corner.arrow;
origin = (0,3);
type = Corner;
}
);
layerId = "A70D3E7C-EDA6-440E-AC35-67945F302293";
shapes = (
{
closed = 1;
nodes = (
(500,0,l),
(680,180,l),
(680,720,l),
(460,720,l),
(460,595,l),
(487,604,l),
(400,720,l),
(160,720,l),
(20,580,l),
(20,260,l),
(400,260,l),
(460,340,l),
(460,220,l),
(20,220,l),
(20,0,l)
);
},
{
closed = 1;
nodes = (
(180,520,l),
(400,520,l),
(440,460,l),
(220,460,l)
);
}
);
width = 700;
}
);
},
{
color = 8;
glyphname = y.ss03;
lastChange = "2021-12-28 21:27:37 +0000";
layers = (
{
anchors = (
{
name = bottom;
pos = (360,0);
},
{
name = top;
pos = (360,720);
}
);
hints = (
{
name = _corner.arrow;
origin = (0,4);
type = Corner;
},
{
name = _corner.arrow;
origin = (0,3);
type = Corner;
},
{
name = _corner.arrow;
origin = (0,2);
type = Corner;
},
{
name = _corner.arrow;
origin = (2,2);
type = Corner;
},
{
name = _corner.arrow;
origin = (2,1);
type = Corner;
},
{
name = _corner.arrow;
origin = (1,6);
type = Corner;
},
{
name = _corner.arrow;
origin = (1,5);
type = Corner;
}
);
layerId = m002;
shapes = (
{
closed = 1;
nodes = (
(480,260,l),
(340,440,l),
(340,720,l),
(20,720,l),
(20,440,l),
(80,440,l),
(220,260,l)
);
},
{
closed = 1;
nodes = (
(520,0,l),
(680,180,l),
(680,260,l),
(300,260,l),
(240,280,l),
(20,280,l),
(20,0,l)
);
},
{
closed = 1;
nodes = (
(680,240,l),
(680,720,l),
(380,720,l),
(380,540,l),
(480,420,l),
(480,240,l)
);
}
);
width = 700;
},
{
anchors = (
{
name = bottom;
pos = (360,0);
},
{
name = top;
pos = (360,720);
}
);
hints = (
{
name = _corner.arrow;
origin = (0,4);
type = Corner;
},
{
name = _corner.arrow;
origin = (0,3);
type = Corner;
},
{
name = _corner.arrow;
origin = (0,2);
type = Corner;
},
{
name = _corner.arrow;
origin = (2,2);
type = Corner;
},
{
name = _corner.arrow;
origin = (2,1);
type = Corner;
},
{
name = _corner.arrow;
origin = (1,6);
type = Corner;
},
{
name = _corner.arrow;
origin = (1,5);
type = Corner;
}
);
layerId = "A70D3E7C-EDA6-440E-AC35-67945F302293";
shapes = (
{
closed = 1;
nodes = (
(180,160,l),
(140,610,l),
(140,720,l),
(20,720,l),
(20,540,l),
(50,540,l),
(90,160,l)
);
},
{
closed = 1;
nodes = (
(210,0,l),
(280,70,l),
(280,160,l),
(230,180,l),
(140,180,l),
(20,180,l),
(20,0,l)
);
},
{
closed = 1;
nodes = (
(280,140,l),
(280,720,l),
(180,720,l),
(180,622,l),
(200,302,l),
(200,140,l)
);
}
);
width = 700;
}
);
},
{
color = 8;
glyphname = y.ss04;
lastChange = "2021-12-20 09:20:25 +0000";
layers = (
{
anchors = (
{
name = bottom;
pos = (360,0);
},
{
name = top;
pos = (360,720);
}
);
hints = (
{
name = _corner.arrow;
origin = (0,5);
type = Corner;
},
{
name = _corner.arrow;
origin = (0,4);
type = Corner;
},
{
name = _corner.arrow;
origin = (0,3);
type = Corner;
},
{
name = _corner.arrow;
origin = (2,2);
type = Corner;
},
{
name = _corner.arrow;
origin = (2,1);
type = Corner;
},
{
name = _corner.arrow;
origin = (1,6);
type = Corner;
},
{
name = _corner.arrow;
origin = (1,5);
type = Corner;
}
);
layerId = m002;
shapes = (
{
closed = 1;
nodes = (
(420,80,l),
(420,180,l),
(340,300,l),
(340,720,l),
(20,720,l),
(20,440,l),
(80,440,l),
(80,260,l),
(220,80,l)
);
},
{
closed = 1;
nodes = (
(520,-180,l),
(680,0,l),
(680,80,l),
(300,80,l),
(240,100,l),
(20,100,l),
(20,-180,l)
);
},
{
closed = 1;
nodes = (
(680,80,l),
(680,720,l),
(380,720,l),
(380,320,l),
(460,200,l),
(460,80,l)
);
}
);
width = 700;
},
{
anchors = (
{
name = bottom;
pos = (360,0);
},
{
name = top;
pos = (360,720);
}
);
hints = (
{
name = _corner.arrow;
origin = (0,3);
type = Corner;
},
{
name = _corner.arrow;
origin = (0,4);
type = Corner;
},
{
name = _corner.arrow;
origin = (0,5);
type = Corner;
},
{
name = _corner.arrow;
origin = (1,5);
type = Corner;
},
{
name = _corner.arrow;
origin = (1,6);
type = Corner;
},
{
name = _corner.arrow;
origin = (2,1);
type = Corner;
},
{
name = _corner.arrow;
origin = (2,2);
type = Corner;
}
);
layerId = "A70D3E7C-EDA6-440E-AC35-67945F302293";
shapes = (
{
closed = 1;
nodes = (
(420,80,l),
(420,180,l),
(340,300,l),
(340,720,l),
(20,720,l),
(20,440,l),
(80,440,l),
(80,260,l),
(220,80,l)
);
},
{
closed = 1;
nodes = (
(520,-180,l),
(680,0,l),
(680,80,l),
(300,80,l),
(240,100,l),
(20,100,l),
(20,-180,l)
);
},
{
closed = 1;
nodes = (
(680,80,l),
(680,720,l),
(380,720,l),
(380,320,l),
(460,200,l),
(460,80,l)
);
}
);
width = 700;
}
);
},
{
glyphname = fi;
lastChange = "2021-12-28 17:01:00 +0000";
layers = (
{
hints = (
{
name = _corner.arrow;
origin = (0,0);
type = Corner;
},
{
name = _corner.arrow;
origin = (0,4);
type = Corner;
},
{
name = _corner.arrow;
origin = (0,5);
type = Corner;
},
{
name = _corner.arrow;
origin = (0,6);
type = Corner;
},
{
name = _corner.arrow;
origin = (0,9);
type = Corner;
},
{
name = _corner.arrow;
origin = (0,12);
type = Corner;
},
{
name = _corner.arrow;
origin = (0,13);
type = Corner;
},
{
name = _corner.arrow;
origin = (0,16);
type = Corner;
}
);
layerId = m002;
shapes = (
{
closed = 1;
nodes = (
(320,0,l),
(320,420,l),
(440,300,l),
(420,220,l),
(420,0,l),
(740,0,l),
(740,220,l),
(700,220,l),
(740,300,l),
(740,560,l),
(360,560,l),
(300,600,l),
(640,600,l),
(640,820,l),
(160,820,l),
(20,680,l),
(20,0,l)
);
}
);
width = 760;
},
{
hints = (
{
name = _corner.arrow;
origin = (0,0);
type = Corner;
},
{
name = _corner.arrow;
origin = (0,4);
type = Corner;
},
{
name = _corner.arrow;
origin = (0,5);
type = Corner;
},
{
name = _corner.arrow;
origin = (0,6);
type = Corner;
},
{
name = _corner.arrow;
origin = (0,9);
type = Corner;
},
{
name = _corner.arrow;
origin = (0,12);
type = Corner;
},
{
name = _corner.arrow;
origin = (0,13);
type = Corner;
},
{
name = _corner.arrow;
origin = (0,16);
type = Corner;
}
);
layerId = "A70D3E7C-EDA6-440E-AC35-67945F302293";
shapes = (
{
closed = 1;
nodes = (
(120,0,l),
(120,509,l),
(160,407,l),
(160,215,l),
(160,0,l),
(260,0,l),
(260,180,l),
(233,180,l),
(260,260,l),
(260,600,l),
(140,600,l),
(100,660,l),
(260,660,l),
(260,860,l),
(120,860,l),
(20,660,l),
(20,0,l)
);
}
);
width = 280;
}
);
metricLeft = f;
metricRight = i;
unicode = 64257;
},
{
color = 9;
glyphname = Aacute;
lastChange = "2021-12-28 17:32:30 +0000";
layers = (
{
hints = (
{
name = _corner.arrow;
origin = (0,0);
type = Corner;
},
{
name = _corner.arrow;
origin = (0,5);
type = Corner;
},
{
name = _corner.arrow;
origin = (2,0);
type = Corner;
},
{
name = _corner.arrow;
origin = (2,3);
type = Corner;
},
{
name = _corner.arrow;
origin = (3,0);
type = Corner;
},
{
name = _corner.arrow;
origin = (3,1);
type = Corner;
},
{
name = _corner.arrow;
origin = (3,5);
type = Corner;
},
{
name = _corner.arrow;
origin = (3,6);
type = Corner;
},
{
name = _corner.arrow;
origin = (3,7);
type = Corner;
},
{
name = _corner.arrow;
origin = (4,4);
type = Corner;
}
);
layerId = m002;
shapes = (
{
closed = 1;
nodes = (
(280,0,l),
(280,360,l),
(500,680,l),
(260,720,l),
(20,440,l),
(20,0,l)
);
},
{
closed = 1;
nodes = (
(540,160,l),
(540,360,l),
(180,360,l),
(180,160,l)
);
},
{
closed = 1;
nodes = (
(680,0,l),
(680,500,l),
(420,680,l),
(420,0,l)
);
},
{
closed = 1;
nodes = (
(680,580,l),
(680,820,l),
(540,820,l),
(440,740,l),
(180,740,l),
(180,820,l),
(20,820,l),
(20,580,l)
);
},
{
closed = 1;
nodes = (
(160,760,l),
(160,720,l),
(380,720,l),
(560,860,l),
(560,940,l),
(320,940,l)
);
}
);
width = 700;
},
{
hints = (
{
name = _corner.arrow;
origin = (0,0);
type = Corner;
},
{
name = _corner.arrow;
origin = (0,5);
type = Corner;
},
{
name = _corner.arrow;
origin = (2,0);
type = Corner;
},
{
name = _corner.arrow;
origin = (2,3);
type = Corner;
},
{
name = _corner.arrow;
origin = (3,0);
type = Corner;
},
{
name = _corner.arrow;
origin = (3,1);
type = Corner;
},
{
name = _corner.arrow;
origin = (3,5);
type = Corner;
},
{
name = _corner.arrow;
origin = (3,6);
type = Corner;
},
{
name = _corner.arrow;
origin = (3,7);
type = Corner;
},
{
name = _corner.arrow;
origin = (4,4);
type = Corner;
}
);
layerId = "A70D3E7C-EDA6-440E-AC35-67945F302293";
shapes = (
{
closed = 1;
nodes = (
(120,0,l),
(120,620,l),
(160,680,l),
(120,760,l),
(20,620,l),
(20,0,l)
);
},
{
closed = 1;
nodes = (
(240,160,l),
(240,320,l),
(60,320,l),
(60,160,l)
);
},
{
closed = 1;
nodes = (
(260,0,l),
(260,620,l),
(160,720,l),
(160,0,l)
);
},
{
closed = 1;
nodes = (
(260,680,l),
(260,860,l),
(229,860,l),
(188,820,l),
(70,820,l),
(70,860,l),
(20,860,l),
(20,680,l)
);
},
{
closed = 1;
nodes = (
(70,840,l),
(70,780,l),
(129,780,l),
(229,880,l),
(229,930,l),
(139,930,l)
);
}
);
width = 280;
}
);
script = Latin;
unicode = 193;
},
{
color = 9;
glyphname = Adieresis;
lastChange = "2021-12-28 17:32:30 +0000";
layers = (
{
hints = (
{
name = _corner.arrow;
origin = (0,0);
type = Corner;
},
{
name = _corner.arrow;
origin = (0,7);
type = Corner;
},
{
name = _corner.arrow;
origin = (2,0);
type = Corner;
},
{
name = _corner.arrow;
origin = (2,3);
type = Corner;
},
{
name = _corner.arrow;
origin = (3,1);
type = Corner;
},
{
name = _corner.arrow;
origin = (3,2);
type = Corner;
},
{
name = _corner.arrow;
origin = (3,3);
type = Corner;
},
{
name = _corner.arrow;
origin = (4,2);
type = Corner;
},
{
name = _corner.arrow;
origin = (4,1);
type = Corner;
},
{
name = _corner.arrow;
origin = (4,0);
type = Corner;
}
);
layerId = m002;
shapes = (
{
closed = 1;
nodes = (
(280,0,l),
(280,360,l),
(400,540,l),
(500,540,l),
(500,760,l),
(260,760,l),
(20,480,l),
(20,0,l)
);
},
{
closed = 1;
nodes = (
(540,160,l),
(540,360,l),
(180,360,l),
(180,160,l)
);
},
{
closed = 1;
nodes = (
(680,0,l),
(680,540,l),
(420,720,l),
(420,0,l)
);
},
{
closed = 1;
nodes = (
(300,620,l),
(300,860,l),
(20,860,l),
(20,620,l)
);
},
{
closed = 1;
nodes = (
(680,620,l),
(680,860,l),
(400,860,l),
(400,620,l)
);
}
);
width = 700;
},
{
hints = (
{
name = _corner.arrow;
origin = (0,7);
type = Corner;
},
{
name = _corner.arrow;
origin = (0,0);
type = Corner;
},
{
name = _corner.arrow;
origin = (2,3);
type = Corner;
},
{
name = _corner.arrow;
origin = (2,0);
type = Corner;
},
{
name = _corner.arrow;
origin = (3,2);
type = Corner;
},
{
name = _corner.arrow;
origin = (3,3);
type = Corner;
},
{
name = _corner.arrow;
origin = (3,1);
type = Corner;
},
{
name = _corner.arrow;
origin = (4,2);
type = Corner;
},
{
name = _corner.arrow;
origin = (4,1);
type = Corner;
},
{
name = _corner.arrow;
origin = (4,0);
type = Corner;
}
);
layerId = "A70D3E7C-EDA6-440E-AC35-67945F302293";
shapes = (
{
closed = 1;
nodes = (
(120,0,l),
(120,610,l),
(160,670,l),
(204,670,l),
(204,800,l),
(120,800,l),
(20,660,l),
(20,0,l)
);
},
{
closed = 1;
nodes = (
(240,160,l),
(240,320,l),
(60,320,l),
(60,160,l)
);
},
{
closed = 1;
nodes = (
(260,0,l),
(260,654,l),
(160,754,l),
(160,0,l)
);
},
{
closed = 1;
nodes = (
(140,710,l),
(140,920,l),
(20,920,l),
(20,710,l)
);
},
{
closed = 1;
nodes = (
(280,710,l),
(280,920,l),
(160,920,l),
(160,710,l)
);
}
);
width = 300;
}
);
script = Latin;
unicode = 196;
},
{
color = 9;
glyphname = Agrave;
lastChange = "2021-12-28 17:32:30 +0000";
layers = (
{
hints = (
{
name = _corner.arrow;
origin = (0,0);
type = Corner;
},
{
name = _corner.arrow;
origin = (0,5);
type = Corner;
},
{
name = _corner.arrow;
origin = (2,0);
type = Corner;
},
{
name = _corner.arrow;
origin = (2,3);
type = Corner;
},
{
name = _corner.arrow;
origin = (3,0);
type = Corner;
},
{
name = _corner.arrow;
origin = (3,1);
type = Corner;
},
{
name = _corner.arrow;
origin = (3,6);
type = Corner;
},
{
name = _corner.arrow;
origin = (3,7);
type = Corner;
},
{
name = _corner.arrow;
options = 1;
origin = (4,0);
scale = (-1,1);
type = Corner;
}
);
layerId = m002;
shapes = (
{
closed = 1;
nodes = (
(280,0,l),
(280,360,l),
(500,680,l),
(260,720,l),
(20,440,l),
(20,0,l)
);
},
{
closed = 1;
nodes = (
(540,160,l),
(540,360,l),
(180,360,l),
(180,160,l)
);
},
{
closed = 1;
nodes = (
(680,0,l),
(680,500,l),
(420,680,l),
(420,0,l)
);
},
{
closed = 1;
nodes = (
(680,580,l),
(680,820,l),
(480,820,l),
(440,740,l),
(280,740,l),
(160,820,l),
(20,820,l),
(20,580,l)
);
},
{
closed = 1;
nodes = (
(160,940,l),
(160,860,l),
(340,720,l),
(560,720,l),
(560,760,l),
(400,940,l)
);
}
);
width = 700;
},
{
hints = (
{
name = _corner.arrow;
origin = (0,0);
type = Corner;
},
{
name = _corner.arrow;
origin = (0,5);
type = Corner;
},
{
name = _corner.arrow;
origin = (2,0);
type = Corner;
},
{
name = _corner.arrow;
origin = (2,3);
type = Corner;
},
{
name = _corner.arrow;
origin = (3,0);
type = Corner;
},
{
name = _corner.arrow;
origin = (3,1);
type = Corner;
},
{
name = _corner.arrow;
origin = (3,6);
type = Corner;
},
{
name = _corner.arrow;
origin = (3,7);
type = Corner;
},
{
name = _corner.arrow;
options = 1;
origin = (4,0);
scale = (-1,1);
type = Corner;
}
);
layerId = "A70D3E7C-EDA6-440E-AC35-67945F302293";
shapes = (
{
closed = 1;
nodes = (
(120,0,l),
(120,620,l),
(160,680,l),
(120,760,l),
(20,620,l),
(20,0,l)
);
},
{
closed = 1;
nodes = (
(240,160,l),
(240,320,l),
(60,320,l),
(60,160,l)
);
},
{
closed = 1;
nodes = (
(260,0,l),
(260,620,l),
(160,720,l),
(160,0,l)
);
},
{
closed = 1;
nodes = (
(260,680,l),
(260,860,l),
(209,860,l),
(188,820,l),
(109,820,l),
(69,860,l),
(20,860,l),
(20,680,l)
);
},
{
closed = 1;
nodes = (
(70,930,l),
(70,880,l),
(170,780,l),
(229,780,l),
(229,850,l),
(160,930,l)
);
}
);
width = 280;
}
);
script = Latin;
unicode = 192;
},
{
color = 9;
glyphname = Amacron;
lastChange = "2021-12-30 09:48:53 +0000";
layers = (
{
hints = (
{
name = _corner.arrow;
origin = (0,2);
type = Corner;
},
{
name = _corner.arrow;
origin = (0,3);
type = Corner;
},
{
name = _corner.arrow;
origin = (0,0);
type = Corner;
},
{
name = _corner.arrow;
origin = (0,1);
type = Corner;
}
);
layerId = m002;
shapes = (
{
closed = 1;
nodes = (
(680,760,l),
(680,940,l),
(20,940,l),
(20,760,l)
);
},
{
ref = A.comp;
}
);
width = 700;
},
{
hints = (
{
name = _corner.arrow;
origin = (0,0);
type = Corner;
},
{
name = _corner.arrow;
origin = (0,1);
type = Corner;
},
{
name = _corner.arrow;
origin = (0,2);
type = Corner;
},
{
name = _corner.arrow;
origin = (0,3);
type = Corner;
}
);
layerId = "A70D3E7C-EDA6-440E-AC35-67945F302293";
shapes = (
{
closed = 1;
nodes = (
(260,840,l),
(260,960,l),
(20,960,l),
(20,840,l)
);
},
{
ref = A.comp;
}
);
width = 280;
}
);
script = Latin;
unicode = 256;
},
{
color = 9;
glyphname = Aring;
lastChange = "2021-12-28 17:32:30 +0000";
layers = (
{
hints = (
{
name = _corner.arrow;
origin = (0,0);
type = Corner;
},
{
name = _corner.arrow;
origin = (0,7);
type = Corner;
},
{
name = _corner.arrow;
origin = (2,0);
type = Corner;
},
{
name = _corner.arrow;
origin = (2,3);
type = Corner;
},
{
name = _corner.arrow;
origin = (4,1);
type = Corner;
},
{
name = _corner.arrow;
origin = (4,4);
type = Corner;
},
{
name = _corner.arrow;
origin = (2,1);
type = Corner;
}
);
layerId = m002;
shapes = (
{
closed = 1;
nodes = (
(280,0,l),
(280,360,l),
(400,540,l),
(500,540,l),
(500,700,l),
(260,700,l),
(20,420,l),
(20,0,l)
);
},
{
closed = 1;
nodes = (
(540,160,l),
(540,360,l),
(180,360,l),
(180,160,l)
);
},
{
closed = 1;
nodes = (
(680,0,l),
(680,540,l),
(420,540,l),
(420,0,l)
);
},
{
closed = 1;
nodes = (
(500,760,l),
(500,700,l),
(260,700,l),
(260,760,l)
);
},
{
closed = 1;
nodes = (
(680,660,l),
(680,940,l),
(140,940,l),
(20,820,l),
(20,540,l),
(560,540,l)
);
}
);
width = 700;
},
{
hints = (
{
name = _corner.arrow;
origin = (0,0);
type = Corner;
},
{
name = _corner.arrow;
origin = (0,7);
type = Corner;
},
{
name = _corner.arrow;
origin = (2,0);
type = Corner;
},
{
name = _corner.arrow;
origin = (2,3);
type = Corner;
},
{
name = _corner.arrow;
origin = (4,1);
type = Corner;
},
{
name = _corner.arrow;
origin = (4,4);
type = Corner;
},
{
name = _corner.arrow;
origin = (2,1);
type = Corner;
}
);
layerId = "A70D3E7C-EDA6-440E-AC35-67945F302293";
shapes = (
{
closed = 1;
nodes = (
(120,0,l),
(120,640,l),
(160,700,l),
(204,700,l),
(204,770,l),
(120,770,l),
(20,650,l),
(20,0,l)
);
},
{
closed = 1;
nodes = (
(240,160,l),
(240,320,l),
(60,320,l),
(60,160,l)
);
},
{
closed = 1;
nodes = (
(260,0,l),
(260,700,l),
(160,700,l),
(160,0,l)
);
},
{
closed = 1;
nodes = (
(190,840,l),
(190,790,l),
(100,790,l),
(100,840,l)
);
},
{
closed = 1;
nodes = (
(280,760,l),
(280,940,l),
(120,940,l),
(0,850,l),
(0,700,l),
(204,700,l)
);
}
);
width = 280;
}
);
script = Latin;
unicode = 197;
},
{
color = 9;
glyphname = AE;
lastChange = "2022-01-14 10:05:48 +0000";
layers = (
{
hints = (
{
name = _corner.arrow;
origin = (4,5);
type = Corner;
},
{
name = _corner.arrow;
origin = (4,0);
type = Corner;
},
{
name = _corner.arrow;
origin = (0,2);
type = Corner;
},
{
name = _corner.arrow;
origin = (1,0);
type = Corner;
},
{
name = _corner.arrow;
origin = (1,1);
type = Corner;
},
{
name = _corner.arrow;
origin = (3,0);
type = Corner;
},
{
name = _corner.arrow;
origin = (3,1);
type = Corner;
},
{
name = _corner.arrow;
origin = (2,0);
type = Corner;
},
{
name = _corner.arrow;
origin = (2,1);
type = Corner;
},
{
name = _corner.arrow;
origin = (2,5);
type = Corner;
},
{
name = _corner.arrow;
origin = (2,6);
type = Corner;
},
{
name = _corner.arrow;
origin = (2,7);
type = Corner;
}
);
layerId = m002;
shapes = (
{
closed = 1;
nodes = (
(600,760,l),
(380,760,l),
(380,0,l),
(600,0,l)
);
},
{
closed = 1;
nodes = (
(990,0,l),
(990,260,l),
(520,260,l),
(600,0,l)
);
},
{
closed = 1;
nodes = (
(990,600,l),
(990,860,l),
(320,860,l),
(220,800,l),
(260,780,l),
(260,860,l),
(20,860,l),
(20,600,l)
);
},
{
closed = 1;
nodes = (
(970,320,l),
(970,560,l),
(670,560,l),
(590,680,l),
(530,680,l),
(710,320,l)
);
},
{
closed = 1;
nodes = (
(260,0,l),
(260,420,l),
(450,720,l),
(240,760,l),
(20,480,l),
(20,0,l)
);
},
{
closed = 1;
nodes = (
(520,160,l),
(520,360,l),
(180,360,l),
(180,160,l)
);
}
);
width = 1010;
},
{
hints = (
{
name = _corner.arrow;
origin = (2,6);
type = Corner;
},
{
name = _corner.arrow;
origin = (2,5);
type = Corner;
},
{
name = _corner.arrow;
origin = (2,1);
type = Corner;
},
{
name = _corner.arrow;
origin = (2,0);
type = Corner;
},
{
name = _corner.arrow;
origin = (2,7);
type = Corner;
},
{
name = _corner.arrow;
origin = (4,5);
type = Corner;
},
{
name = _corner.arrow;
origin = (4,0);
type = Corner;
},
{
name = _corner.arrow;
origin = (0,2);
type = Corner;
},
{
name = _corner.arrow;
origin = (1,0);
type = Corner;
},
{
name = _corner.arrow;
origin = (1,1);
type = Corner;
},
{
name = _corner.arrow;
origin = (3,0);
type = Corner;
},
{
name = _corner.arrow;
origin = (3,1);
type = Corner;
}
);
layerId = "A70D3E7C-EDA6-440E-AC35-67945F302293";
shapes = (
{
closed = 1;
nodes = (
(260,760,l),
(160,760,l),
(160,0,l),
(260,0,l)
);
},
{
closed = 1;
nodes = (
(400,0,l),
(400,190,l),
(220,190,l),
(239,0,l)
);
},
{
closed = 1;
nodes = (
(400,680,l),
(400,860,l),
(220,860,l),
(120,800,l),
(160,800,l),
(160,860,l),
(20,860,l),
(20,680,l)
);
},
{
closed = 1;
nodes = (
(390,300,l),
(390,580,l),
(293,580,l),
(253,700,l),
(233,580,l),
(293,300,l)
);
},
{
closed = 1;
nodes = (
(120,0,l),
(120,620,l),
(186,720,l),
(120,760,l),
(20,620,l),
(20,0,l)
);
},
{
closed = 1;
nodes = (
(200,160,l),
(200,320,l),
(80,320,l),
(80,160,l)
);
}
);
width = 420;
}
);
script = Latin;
unicode = 198;
},
{
color = 3;
glyphname = Eth;
lastChange = "2021-12-22 08:44:10 +0000";
layers = (
{
layerId = m002;
shapes = (
{
ref = D;
},
{
closed = 1;
nodes = (
(0,380,l),
(398,380,l),
(398,560,l),
(0,560,l)
);
}
);
width = 789;
},
{
layerId = "A70D3E7C-EDA6-440E-AC35-67945F302293";
shapes = (
{
ref = D;
},
{
closed = 1;
nodes = (
(0,420,l),
(150,420,l),
(150,520,l),
(0,520,l)
);
}
);
width = 300;
}
);
script = Latin;
unicode = 208;
},
{
color = 3;
glyphname = Eogonek;
lastChange = "2021-12-22 08:44:10 +0000";
layers = (
{
layerId = m002;
shapes = (
{
ref = E.comp;
},
{
pos = (300,0);
ref = ogonekcomb.cup;
},
{
closed = 1;
nodes = (
(400,91,l),
(440,91,l),
(440,40,l),
(340,0,l),
(266,0,l),
(400,60,l)
);
}
);
width = 718;
},
{
layerId = "A70D3E7C-EDA6-440E-AC35-67945F302293";
shapes = (
{
ref = E.comp;
},
{
pos = (-120,0);
ref = ogonekcomb.cup;
},
{
closed = 1;
nodes = (
(160,91,l),
(180,91,l),
(180,20,l),
(160,0,l),
(131,0,l),
(160,30,l)
);
}
);
width = 300;
}
);
script = Latin;
unicode = 280;
},
